<svg xmlns="http://www.w3.org/2000/svg" xmlns:xlink="http://www.w3.org/1999/xlink" width="717.529" height="615.67" fill="none"><defs><linearGradient id="c"><stop offset="0" style="stop-color:#fa02d1;stop-opacity:1"/><stop offset=".455" style="stop-color:#8400ff;stop-opacity:1"/><stop offset="1" style="stop-color:#2600ba;stop-opacity:1"/></linearGradient><linearGradient xlink:href="#b" id="k" x1="64.583" x2="451.458" y1="74.339" y2="359.723" gradientTransform="translate(460.854 -275.401) scale(.57208)" gradientUnits="userSpaceOnUse"/><linearGradient xlink:href="#c" id="j" x1="60.078" x2="395.227" y1="100.551" y2="583.135" gradientTransform="translate(399.87 -46.296) scale(.57208)" gradientUnits="userSpaceOnUse"/><linearGradient xlink:href="#d" id="i" x1="-2063.64" x2="-1497.423" y1="1205.219" y2="1150.219" gradientTransform="matrix(.99999 0 0 .99999 2290.738 -637.725)" gradientUnits="userSpaceOnUse"/><linearGradient id="d"><stop offset="0" style="stop-color:#4e00aa;stop-opacity:1"/><stop offset=".43" style="stop-color:#39007c;stop-opacity:1"/><stop offset="1" style="stop-color:#48009a;stop-opacity:1"/></linearGradient><linearGradient xlink:href="#e" id="h" x1="-2195.64" x2="-1493.423" y1="1149.219" y2="1149.219" gradientTransform="matrix(1.00222 0 0 1.01431 2296.528 -642.026)" gradientUnits="userSpaceOnUse"/><linearGradient id="e"><stop offset="0" style="stop-color:#fa02d1;stop-opacity:1"/><stop offset=".455" style="stop-color:#8400ff;stop-opacity:1"/><stop offset="1" style="stop-color:#2600ba;stop-opacity:1"/></linearGradient><linearGradient xlink:href="#f" id="m" x1="64.583" x2="451.458" y1="74.339" y2="359.723" gradientTransform="translate(-363.096 134.211) scale(.57208)" gradientUnits="userSpaceOnUse"/><linearGradient xlink:href="#c" id="l" x1="60.078" x2="395.227" y1="100.551" y2="583.135" gradientTransform="matrix(-.57208 0 0 .57208 315.049 -46.296)" gradientUnits="userSpaceOnUse"/><linearGradient id="f"><stop offset="0" style="stop-color:#7e45ff;stop-opacity:1"/><stop offset="1" style="stop-color:#00d2fe;stop-opacity:1"/></linearGradient><linearGradient id="g"><stop offset="0" style="stop-color:#ff9b61;stop-opacity:1"/><stop offset="1" style="stop-color:#b900f5;stop-opacity:1"/></linearGradient><linearGradient id="b"><stop offset="0" style="stop-color:#4ae8cd;stop-opacity:1"/><stop offset="1" style="stop-color:#e56199;stop-opacity:1"/></linearGradient><linearGradient xlink:href="#c" id="o" x1="337.921" x2="525.321" y1="292.207" y2="292.207" gradientTransform="matrix(.77915 0 0 .77915 129.633 112.429)" gradientUnits="userSpaceOnUse"/><linearGradient xlink:href="#c" id="p" x1="409.798" x2="539.804" y1="278.418" y2="285.577" gradientTransform="matrix(.77915 0 0 .77915 129.633 112.429)" gradientUnits="userSpaceOnUse"/><linearGradient xlink:href="#g" id="q" x1="370.127" x2="581.078" y1="156.625" y2="156.625" gradientTransform="matrix(.77915 0 0 .77915 129.633 112.429)" gradientUnits="userSpaceOnUse"/><linearGradient xlink:href="#e" id="r" x1="439.54" x2="581.078" y1="222.89" y2="208.04" gradientTransform="matrix(.77915 0 0 .77915 129.633 112.429)" gradientUnits="userSpaceOnUse"/><linearGradient xlink:href="#c" id="s" x1="383.283" x2="585.087" y1="173.886" y2="256.153" gradientTransform="matrix(.77915 0 0 .77915 129.633 112.429)" gradientUnits="userSpaceOnUse"/><linearGradient xlink:href="#e" id="n" x1="281.974" x2="541.231" y1="348.317" y2="396.317" gradientTransform="matrix(.77915 0 0 .77915 129.633 112.429)" gradientUnits="userSpaceOnUse"/><linearGradient xlink:href="#c" id="y" x1="539.864" x2="370.127" y1="235.492" y2="185.442" gradientTransform="matrix(-.77915 0 0 .77915 593.762 112.429)" gradientUnits="userSpaceOnUse"/><linearGradient xlink:href="#e" id="x" x1="581.079" x2="385.993" y1="170.625" y2="263.229" gradientTransform="matrix(-.77915 0 0 .77915 593.762 112.429)" gradientUnits="userSpaceOnUse"/><linearGradient xlink:href="#g" id="w" x1="554.944" x2="397.544" y1="142.507" y2="148.924" gradientTransform="matrix(-.77915 0 0 .77915 593.762 112.429)" gradientUnits="userSpaceOnUse"/><linearGradient xlink:href="#c" id="v" x1="553.545" x2="405.041" y1="246.332" y2="246.332" gradientTransform="matrix(-.77915 0 0 .77915 593.762 112.429)" gradientUnits="userSpaceOnUse"/><linearGradient xlink:href="#c" id="u" x1="526.589" x2="405.96" y1="263.889" y2="263.889" gradientTransform="matrix(-.77915 0 0 .77915 593.762 112.429)" gradientUnits="userSpaceOnUse"/><linearGradient xlink:href="#e" id="t" x1="643.909" x2="383.973" y1="305.963" y2="357.318" gradientTransform="matrix(-.77915 0 0 .77915 593.762 112.429)" gradientUnits="userSpaceOnUse"/></defs><g transform="translate(-87.5 -92.125)"><ellipse cx="447.875" cy="523.663" rx="350.283" ry="165.906" style="fill:url(#h);fill-opacity:1;stroke:none;stroke-width:3.24118;stroke-linecap:round;stroke-linejoin:round;paint-order:stroke fill markers"/><ellipse cx="445.093" cy="515.318" rx="349.5" ry="163.563" style="fill:#fff;fill-opacity:1;stroke:none;stroke-width:3.21461;stroke-linecap:round;stroke-linejoin:round;paint-order:stroke fill markers"/><ellipse cx="446.208" cy="511.493" rx="349.5" ry="163.563" style="fill:url(#i);fill-opacity:1;stroke:none;stroke-width:3.21461;stroke-linecap:round;stroke-linejoin:round;paint-order:stroke fill markers"/></g><g transform="translate(1.915)"><path d="M489.193 8.924a.867.867 0 0 0-.128.016c-.8.17-1.702.461-2.614.825-2.411.962-4.886 2.448-5.713 3.65.245.563.482 1.12.492 1.185l1.698.336s3.16.592 3.26.592l.032-.012V169.17c0 2.398 1.675 5.289 3.756 6.48l183.292 112.24c2.443-.012 7.797-4.334 8.031-4.602.378-.46.597-1.14.597-2.006V123.2c0-2.398-1.675-5.288-3.756-6.48L490.76 9.359c-.493-.19-1.113-.461-1.566-.435z" style="fill:url(#j);fill-opacity:1;stroke:none;stroke-width:.700822;stroke-linecap:round;stroke-linejoin:round;paint-order:fill markers stroke"/><path d="M483.54 11.228c-1.25.729-2.324 1.492-2.802 2.187.245.563.482 1.12.492 1.185l1.698.336s3.16.592 3.26.592l.032-.012V169.17c0 2.398 1.675 5.289 3.756 6.48l183.291 112.24c.55-.003 1.255-.242 2.007-.585.774-.63 1.282-1.926 1.454-4.655V126.23c0-2.399-1.675-5.288-3.756-6.48L483.645 11.276c-.035-.02-.068-.03-.103-.048h-.001z" style="fill:#fff;fill-opacity:1;stroke:none;stroke-width:.700822;stroke-linecap:round;stroke-linejoin:round;paint-order:fill markers stroke"/><rect width="224.834" height="166.685" x="553.087" y="-263.775" ry="4.328" style="fill:url(#k);fill-opacity:1;stroke:none;stroke-width:.752359;stroke-linecap:round;stroke-linejoin:round;paint-order:fill markers stroke" transform="skewY(29.811) scale(.86767 1)"/><path d="M596.25 77.846c-32.204 19.82-87.445 54.006-116.351 71.904v23.789c0 2.398 1.675 5.288 3.755 6.48l49.102 28.134 136.45-88.507z" style="opacity:.12;fill:#fff;stroke:none;stroke-width:.572079px;stroke-linecap:butt;stroke-linejoin:miter;stroke-opacity:1"/><path d="M225.726 8.924a.867.867 0 0 1 .129.016c.8.17 1.702.461 2.613.825h.001c2.41.962 4.886 2.448 5.712 3.65-.244.563-.482 1.12-.491 1.185l-1.699.336s-3.16.592-3.259.592l-.033-.012V169.17c0 2.398-1.675 5.289-3.755 6.48L41.652 287.89c-2.443-.012-7.798-4.334-8.032-4.602-.377-.46-.596-1.14-.596-2.006V123.2c0-2.398 1.675-5.288 3.755-6.48L224.161 9.359c.493-.19 1.112-.461 1.565-.435z" style="fill:url(#l);fill-opacity:1;stroke:none;stroke-width:.700822;stroke-linecap:round;stroke-linejoin:round;paint-order:fill markers stroke"/><path d="M231.38 11.228c1.249.729 2.323 1.492 2.801 2.187-.244.563-.482 1.12-.491 1.185l-1.699.336s-3.16.592-3.259.592l-.033-.012V169.17c0 2.398-1.674 5.289-3.755 6.48L41.652 287.89c-.549-.003-1.255-.242-2.006-.585-.774-.63-1.283-1.926-1.454-4.655V126.23c0-2.399 1.675-5.288 3.755-6.48L231.274 11.276c.035-.02.069-.03.104-.048h.001z" style="fill:#fff;fill-opacity:1;stroke:none;stroke-width:.700822;stroke-linecap:round;stroke-linejoin:round;paint-order:fill markers stroke"/><rect width="224.834" height="166.685" x="-270.862" y="145.837" ry="4.328" style="fill:url(#m);fill-opacity:1;stroke:none;stroke-width:.752359;stroke-linecap:round;stroke-linejoin:round;paint-order:fill markers stroke" transform="matrix(-.86767 .49713 0 1 0 0)"/><path d="M232.729 12.834c-.45.04-.943.202-1.463.5l-75.864 43.465 79.618 20.9V15.512c0-1.799-.943-2.795-2.291-2.678z" style="opacity:.12;fill:#fff;stroke:none;stroke-width:1px;stroke-linecap:butt;stroke-linejoin:miter;stroke-opacity:1"/><path d="M231.02 61.643 35.936 174.275v3.348L231.02 64.993ZM189 98.173c-.306.183-6.812 18.5-7.06 18.827-.248.328-15.995 11.422-16.09 11.77-.094.347 11.632 4.018 11.727 4.253.095.236-3.133 17.667-2.885 17.7.248.032 14.002-16.015 14.309-16.198.306-.182 14.058-.504 14.306-.832.248-.327-2.979-13.915-2.884-14.263.094-.348 11.823-17.978 11.728-18.213-.094-.235-15.844 7.413-16.092 7.38-.248-.032-6.752-10.606-7.058-10.423zm42.02 30.47L35.936 241.275v3.348l195.084-112.63Zm-97.54 1.152c-.307.182-6.813 18.498-7.061 18.826-.248.328-15.995 11.422-16.09 11.77-.095.348 11.632 4.02 11.726 4.255.095.236-3.132 17.665-2.884 17.698.248.032 14.002-16.013 14.308-16.196.307-.182 14.059-.504 14.307-.832.248-.327-2.98-13.917-2.885-14.265.095-.348 11.823-17.976 11.729-18.211-.095-.235-15.844 7.413-16.092 7.38-.248-.032-6.752-10.607-7.059-10.425zm-55.522 31.623c-.307.182-6.813 18.498-7.06 18.826-.249.328-15.996 11.422-16.09 11.77-.095.348 11.631 4.018 11.726 4.254.095.235-3.133 17.666-2.885 17.699.248.032 14.002-16.015 14.309-16.197.306-.183 14.059-.505 14.306-.833.248-.327-2.979-13.915-2.884-14.263.094-.348 11.823-17.978 11.728-18.213-.094-.235-15.844 7.413-16.092 7.38-.248-.032-6.752-10.605-7.058-10.423z" style="opacity:.12;fill:#1a1a1a;fill-opacity:1;stroke:none;stroke-width:.700815;stroke-linecap:round;stroke-linejoin:round;paint-order:fill markers stroke"/><path d="M236.936 57.643 41.852 170.275v3.348l195.084-112.63v-3.35zm-42.02 36.53c-.306.183-6.813 18.5-7.06 18.827-.249.328-15.996 11.422-16.09 11.77-.095.347 11.631 4.018 11.726 4.253.095.236-3.133 17.667-2.885 17.7.248.032 14.003-16.015 14.309-16.198.307-.182 14.059-.504 14.307-.832.248-.327-2.98-13.915-2.885-14.263.095-.348 11.823-17.978 11.728-18.213-.094-.235-15.843 7.413-16.091 7.38-.248-.032-6.752-10.606-7.059-10.423zm42.02 30.47L41.852 237.275v3.348l195.084-112.63v-3.35zm-97.541 1.152c-.307.182-6.813 18.498-7.061 18.826-.248.328-15.995 11.422-16.09 11.77-.095.347 11.632 4.02 11.727 4.255.094.236-3.133 17.665-2.885 17.698.248.032 14.002-16.013 14.309-16.196.306-.182 14.058-.504 14.306-.832.248-.327-2.98-13.917-2.885-14.265.095-.348 11.824-17.976 11.729-18.211-.095-.235-15.844 7.413-16.092 7.38-.248-.032-6.752-10.607-7.058-10.425zm-55.522 31.623c-.306.182-6.813 18.498-7.06 18.826-.248.328-15.996 11.422-16.09 11.77-.095.348 11.632 4.018 11.726 4.254.095.235-3.133 17.666-2.885 17.699.248.032 14.003-16.015 14.309-16.197.307-.183 14.059-.505 14.307-.833.248-.327-2.98-13.915-2.885-14.263.095-.348 11.823-17.978 11.728-18.213-.094-.235-15.843 7.413-16.091 7.38-.248-.032-6.752-10.605-7.059-10.423z" style="fill:#fea;fill-opacity:1;stroke:none;stroke-width:.700815;stroke-linecap:round;stroke-linejoin:round;paint-order:fill markers stroke" transform="translate(-1.915)"/><path d="M483.906 61.643 678.99 174.275v3.348L483.906 64.993Zm42.02 36.53c.306.183 6.812 18.5 7.06 18.827.248.328 15.995 11.422 16.09 11.77.095.347-11.632 4.018-11.727 4.253-.094.236 3.133 17.667 2.885 17.7-.248.032-14.002-16.015-14.308-16.198-.307-.182-14.06-.504-14.307-.832-.248-.327 2.98-13.915 2.885-14.263-.095-.348-11.824-17.978-11.729-18.213.095-.235 15.844 7.413 16.092 7.38.248-.032 6.752-10.606 7.059-10.423zm-42.02 30.47L678.99 241.275v3.348l-195.084-112.63Zm97.541 1.152c.307.182 6.813 18.498 7.06 18.826.249.328 15.996 11.422 16.09 11.77.095.348-11.631 4.02-11.726 4.255-.095.236 3.133 17.665 2.885 17.698-.248.032-14.002-16.013-14.309-16.196-.306-.182-14.059-.504-14.307-.832-.248-.327 2.98-13.917 2.885-14.265-.095-.348-11.823-17.976-11.728-18.211.094-.235 15.843 7.413 16.091 7.38.248-.032 6.753-10.607 7.06-10.425zm55.522 31.623c.306.182 6.812 18.498 7.06 18.826.248.328 15.995 11.422 16.09 11.77.095.348-11.632 4.018-11.727 4.254-.094.235 3.133 17.666 2.885 17.699-.248.032-14.002-16.015-14.308-16.197-.307-.183-14.06-.505-14.307-.833-.248-.327 2.98-13.915 2.885-14.263-.095-.348-11.824-17.978-11.729-18.213.095-.235 15.844 7.413 16.092 7.38.248-.032 6.752-10.605 7.059-10.423z" style="opacity:.12;fill:#1a1a1a;fill-opacity:1;stroke:none;stroke-width:.700815;stroke-linecap:round;stroke-linejoin:round;paint-order:fill markers stroke"/><path d="M479.906 57.643 674.99 170.275v3.348L479.906 60.993Zm42.02 36.53c.306.183 6.812 18.5 7.06 18.827.248.328 15.995 11.422 16.09 11.77.095.347-11.632 4.018-11.727 4.253-.094.236 3.133 17.667 2.885 17.7-.248.032-14.002-16.015-14.308-16.198-.307-.182-14.06-.504-14.307-.832-.248-.327 2.98-13.915 2.885-14.263-.095-.348-11.824-17.978-11.729-18.213.095-.235 15.844 7.413 16.092 7.38.248-.032 6.752-10.606 7.059-10.423zm-42.02 30.47L674.99 237.275v3.348l-195.084-112.63Zm97.541 1.152c.307.182 6.813 18.498 7.06 18.826.249.328 15.996 11.422 16.09 11.77.095.347-11.631 4.02-11.726 4.255-.095.236 3.133 17.665 2.885 17.698-.248.032-14.002-16.013-14.309-16.196-.306-.182-14.059-.504-14.307-.832-.248-.327 2.98-13.917 2.885-14.265-.095-.348-11.823-17.976-11.728-18.211.094-.235 15.843 7.413 16.091 7.38.248-.032 6.753-10.607 7.06-10.425zm55.522 31.623c.306.182 6.812 18.498 7.06 18.826.248.328 15.995 11.422 16.09 11.77.095.348-11.632 4.018-11.727 4.254-.094.235 3.133 17.666 2.885 17.699-.248.032-14.002-16.015-14.308-16.197-.307-.183-14.06-.505-14.307-.833-.248-.327 2.98-13.915 2.885-14.263-.095-.348-11.824-17.978-11.729-18.213.095-.235 15.844 7.413 16.092 7.38.248-.032 6.752-10.605 7.059-10.423z" style="fill:#fff;fill-opacity:1;stroke:none;stroke-width:.700815;stroke-linecap:round;stroke-linejoin:round;paint-order:fill markers stroke"/><path d="M377.835 91.5c1.583.979 3.166 1.88 4.75 4 1.424-2.38 2.229-4.798 2.5-7.25 2.399 1.881 4.902 3.483 8 3.5-.07-3.051-.473-6.213-1.25-9.5 2.631 2.404 5.417 4.5 8.75 5.5.458-2.408-.318-4.57-1-6.75 2.437 1.694 4.649 3.404 8.5 5 .146-3.176-.012-6.308-1.5-9.25 3.137 1.475 6.411 2.677 10.25 2.75-1.506-2.661-2.715-5.618-3.75-8.75 3.248.626 6.318 1.689 10 1.25-1.045-3.039-3.314-4.853-5.5-6.75 1.677-1.143 6.976-.114 10.75 0-2.216-2.737-4.858-5.219-8.25-7.25 4.182-.357 8.363.28 12.545-1.78-3.008-1.908-5.907-3.831-7.295-5.97 3.583-.124 7.166-.477 10.75-2-3.161-2.71-6.066-3.628-9-4.75 4.259-.69 8.664-.843 12.25-4a83.661 83.661 0 0 1-6.5-3.25c3.127-1.369 6.325-2.525 9-5.25-3.012-1.773-6.259-2.375-9.5-3 3.416-1.482 6.833-2.454 10.25-5.25-3.75-1.667-7.5-1.676-11.25-2 4.644-2.364 9.295-4.717 13.25-8-5.88-.726-10.484.145-15.5.5 4.245-2.678 8.385-4.528 12.778-8.351-4.946-.279-7.986-.773-12.278-.399 7.912-4.311 16.054-8.428 21-15.25-3.528.194-7.169.502-10.25.25 5.6-2.82 10.547-6.575 14.5-11.75-2.33-.423-4.707-.774-7.5-.5 7.987-4.128 14.236-8.988 17.75-15-3.368-.926-6.898-.718-10.5 0-5.804-1.566-14.385 7.24-27.53 14.037-13.047 6.749-26.727 16.59-34.47 28.963-7.327 9.693-8.003 16.684-.25 20.25.42 1.619.073 3.347 2 4.75-1.25 2.111-.857 4.405 0 6.75.82 2.526-.008 4.684-1.25 6.75-3.785 4.057-7.045 6.963-10.25 9.75l-5-2.25-11-13.25c.043-1.167-.33-2.333-.75-3.5-.96-3.301-1.504-3.696-2.25-5.5.402-4.069-.249-7.085-.75-10.25.47-4.637-.36-7.974-.75-11.75l-1.25-2.25s-3.194-3.059-5.25-3.5c-.991-.213-3 .5-3 .5l-3.25-.75s-7.062-2.934-10.5-2c-.855.232-2 1.75-2 1.75s-3.31-1.177-4.75-.5c-.816.383-1.5 2.25-1.5 2.25-4.937.27-10.668-.734-9.25 9.75l3-2c4.148 5.346 9.178 5.18 14.25 4.75-.023 1.539-.002 3.162-.25 4.25.603 1.536-3.298 2.24-3.5 5.5-3.833 5.865-10.515 9.415-11 18-9.465 12.048-14.72 7.694-17.75 11-3.206-2.787-6.465-5.693-10.25-9.75-1.242-2.066-2.07-4.224-1.25-6.75.856-2.345 1.249-4.639 0-6.75 1.926-1.403 1.58-3.131 2-4.75 7.753-3.566 7.077-10.557-.25-20.25-7.743-12.374-21.423-22.214-34.471-28.963-13.145-6.798-21.725-15.603-27.53-14.037-3.602-.718-7.131-.926-10.5 0 3.515 6.012 9.764 10.872 17.75 15-2.793-.274-5.17.077-7.5.5 3.953 5.175 8.9 8.93 14.5 11.75-3.08.252-6.722-.056-10.25-.25 4.947 6.822 13.088 10.939 21 15.25-4.291-.374-7.332.12-12.277.399 4.393 3.823 8.532 5.673 12.778 8.351-5.016-.355-9.62-1.226-15.5-.5 3.954 3.283 8.606 5.636 13.25 8-3.75.324-7.5.333-11.25 2 3.416 2.796 6.833 3.768 10.25 5.25-3.242.625-6.488 1.227-9.5 3 2.675 2.725 5.873 3.881 9 5.25a83.661 83.661 0 0 1-6.5 3.25c3.586 3.157 7.99 3.31 12.25 4-2.934 1.122-5.84 2.04-9 4.75 3.583 1.523 7.166 1.876 10.75 2-1.388 2.139-4.287 4.062-7.296 5.97 4.182 2.06 8.364 1.423 12.546 1.78-3.393 2.031-6.034 4.513-8.25 7.25 3.774-.114 9.072-1.143 10.75 0-2.186 1.897-4.456 3.711-5.5 6.75 3.681.439 6.752-.624 10-1.25-1.035 3.132-2.245 6.089-3.75 8.75 3.838-.073 7.112-1.275 10.25-2.75-1.488 2.942-1.646 6.074-1.5 9.25 3.85-1.596 6.063-3.306 8.5-5-.682 2.18-1.459 4.342-1 6.75 3.333-1 6.119-3.096 8.75-5.5-.777 3.287-1.18 6.449-1.25 9.5 3.097-.017 5.601-1.619 8-3.5.27 2.452 1.075 4.87 2.5 7.25 1.583-2.12 3.166-3.021 4.75-4z" style="fill:#9a6c38;fill-opacity:1;stroke:none;stroke-width:1px;stroke-linecap:butt;stroke-linejoin:miter;stroke-opacity:1" transform="matrix(.76312 0 0 .76312 93.89 80.804)"/><path d="M287.46 69.25c-.423-2.057-.089-3.546.125-5.125-1.539.804-3.109 1.481-4.813 1.625-.781-2.266.17-3.665.625-5.313-1.934.501-3.557 1.728-5.937 1.188.433-2.592 1.855-4.152 3-6-2.029.073-4.125.417-6-.125.188-2.375 1.48-4.087 2.437-6-2.062.253-4.125.555-6.187 0 .837-2.818 2.986-4.586 4.562-6.813-1.802-.298-3.72.209-5.375-1.124 1.308-2.14 2.965-3.003 4.5-4.313-2.164-.666-4.233-1.413-5.25-3.063 1.729-2.356 3.673-3.1 5.563-4.25-1.907-1.308-3.953-2.56-5.063-4.187.406-1.545 1.813-2.277 3-3.188-2.7-.542-4.031-2.111-5.437-3.625 1.875-1.724 3.75-1.995 5.625-2.437-2.974-1.508-4.644-3.575-6.5-5.563 3.208-1.549 6.416-1.923 9.625-1.812-4.257-1.957-8.117-4.378-11.375-7.5L269.96.5c-4.775-2.727-7.614-6.422-11.188-9.75l4.375-.313c-3.225-3.032-4.997-6.55-7.322-9.882 15.895.656 23.89 10.836 23.865 16.617.604 1.867 3.096 3.6 6.01 5.303-5.288.904-.554 4.647 3.89 8.308-1.375 1.665-2.852 3.315-2.122 5.304-3.467-1.11-1.394 3.32-1.59 5.48-2.685 2.032.113 5.56.706 8.485-1.805 1.06-.563 2.121.177 3.182-2.203 3.359-1.02 6.718-.353 10.076-.897 2.665 1.2 2.336 2.474 2.829-.85 1.684.139 3.254 1.945 4.773-.454 2.418 2.33 3.472 4.95 4.596.255 2.076 1.613 1.579 2.828 1.414 1.76 2.448 3.343 1.522 4.95 1.06.944 1.899 1.32 4.112 5.126 4.42l6.955.883-3.242 14.497c-2.774-.18-3.463 2.601-5.834 3.005-1.49-2.512-.546-5.295-.707-7.955-1.47 1.859-3.63 3.373-6.096 4.734-1.049-2.108-.883-4.217-.621-6.325-1.848 1.163-3.26 2.514-6.189 3.214-1.035-2.775-.4-5.178.001-7.633-1.587 1.173-3.244 2.24-5.488 2.428zM402.679 69.25c.423-2.057.088-3.546-.125-5.125 1.538.804 3.108 1.481 4.812 1.625.782-2.266-.17-3.665-.625-5.313 1.934.501 3.557 1.728 5.938 1.188-.433-2.592-1.855-4.152-3-6 2.028.073 4.125.417 6-.125-.188-2.375-1.481-4.087-2.438-6 2.063.253 4.125.555 6.188 0-.837-2.818-2.987-4.586-4.563-6.813 1.803-.298 3.72.209 5.375-1.124-1.307-2.14-2.965-3.003-4.5-4.313 2.164-.666 4.233-1.413 5.25-3.063-1.728-2.356-3.673-3.1-5.562-4.25 1.907-1.308 3.953-2.56 5.062-4.187-.405-1.545-1.813-2.277-3-3.188 2.7-.542 4.032-2.111 5.438-3.625-1.875-1.724-3.75-1.995-5.625-2.437 2.973-1.508 4.643-3.575 6.5-5.563-3.209-1.549-6.417-1.923-9.625-1.812 4.257-1.957 8.116-4.378 11.375-7.5L420.179.5c4.774-2.727 7.613-6.422 11.187-9.75l-4.375-.313c3.225-3.032 4.997-6.55 7.322-9.882-15.895.656-23.89 10.836-23.865 16.617-.603 1.867-3.095 3.6-6.01 5.303 5.288.904.554 4.647-3.89 8.308 1.375 1.665 2.852 3.315 2.122 5.304 3.468-1.11 1.394 3.32 1.591 5.48 2.685 2.032-.114 5.56-.707 8.485 1.805 1.06.563 2.121-.177 3.182 2.203 3.359 1.02 6.718.354 10.076.896 2.665-1.2 2.336-2.475 2.829.851 1.684-.139 3.254-1.945 4.773.455 2.418-2.33 3.472-4.95 4.596-.255 2.076-1.612 1.579-2.828 1.414-1.76 2.448-3.342 1.522-4.95 1.06-.944 1.899-1.32 4.112-5.126 4.42l-6.954.883 3.242 14.497c2.774-.18 3.462 2.601 5.833 3.005 1.49-2.512.547-5.295.707-7.955 1.47 1.859 3.63 3.373 6.097 4.734 1.048-2.108.882-4.217.62-6.325 1.849 1.163 3.26 2.514 6.189 3.214 1.036-2.775.401-5.178-.001-7.633 1.587 1.173 3.245 2.24 5.489 2.428z" style="fill:#82683b;fill-opacity:1;stroke:none;stroke-width:1px;stroke-linecap:butt;stroke-linejoin:miter;stroke-opacity:1" transform="matrix(.76312 0 0 .76312 93.89 80.804)"/><path d="M310.244 40.418V68.73c0 24.277 12.918 42.463 34.826 57.54 21.907-15.077 34.825-33.263 34.825-57.54V40.418H345.07z" style="fill:#fff;fill-opacity:1;stroke:none;stroke-width:1.24148;stroke-linecap:butt;stroke-linejoin:miter;stroke-miterlimit:4;stroke-dasharray:none;stroke-opacity:1" transform="matrix(.76312 0 0 .76312 93.89 80.804)"/><path d="M317.55 63.285v30.656a62.051 62.051 0 0 0 5.304 9.264v-39.92Zm10.714 0v46.8a85.016 85.016 0 0 0 5.302 5.458V63.285Zm10.713 0v56.99c1.692 1.38 3.47 2.73 5.302 4.059V63.285Zm10.712 0v61.049a118.753 118.753 0 0 0 5.303-4.057V63.285Zm10.711 0v52.26a85.022 85.022 0 0 0 5.305-5.46v-46.8Zm10.713 0v39.926a62.054 62.054 0 0 0 5.305-9.266v-30.66Z" style="opacity:1;fill:#ce0f25;fill-opacity:1;stroke:none;stroke-width:2.9;stroke-linecap:round;stroke-linejoin:round;stroke-miterlimit:4;stroke-dasharray:none;paint-order:stroke fill markers" transform="matrix(.76312 0 0 .76312 92.429 80.804)"/><path d="M342.438-1.182A5.926 5.926 0 0 0 341-1c-.855.232-2 1.75-2 1.75s-3.309-1.177-4.75-.5c-.816.383-1.5 2.25-1.5 2.25-4.937.27-10.668-.734-9.25 9.75l3-2c4.148 5.346 9.178 5.18 14.25 4.75-.022 1.539-.002 3.162-.25 4.25.604 1.536-3.297 2.24-3.5 5.5-3.29 5.034-8.652 8.383-10.42 14.652.7.19 1.517.347 2.07.24 1.491-.285 2.526-3.264 3.823-2.474.644.393-.913 1.952-.221 2.254 1.019.444 1.133-2.778 2.209-2.498 1 .26-.29 2.632.664 3.027.808.335 1.353-1.234 2.209-1.414 1.35-.283 2.952 1.423 4.088.64.732-.503-.313-2.405.553-2.607 1.379-.322 1.215 3.42 2.629 3.338.967-.056.572-2.654 1.525-2.476.596.111-.268 1.698.332 1.79 2.055.32 1.634-7.122 2.937-5.501.659.818-.792 5.274 1.918 2.967.978-.833.713 3.273 1.973 3.308 2.184.06 1.585-5.124 3.756-5.369 1.117-.126.5 2.376 1.234 3.66.288.504 1.305-1.466 1.328-.918.059 1.344 1.44 3.494 3.227 2.494 1.065-.596-1.431-3.116-.332-3.646 1.431-.69 2.036 4.023 3.447 3.293 1.389-.719-2.116-4.015-.683-4.64 1.507-.66 1.506 4.277 3.093 3.845.261-.071.497-.184.71-.332L368.75 38c.043-1.167-.329-2.333-.75-3.5-.96-3.301-1.504-3.696-2.25-5.5.402-4.069-.248-7.085-.75-10.25.47-4.637-.36-7.974-.75-11.75L363 4.75s-3.194-3.059-5.25-3.5c-.991-.213-3 .5-3 .5L351.5 1s-5.407-2.246-9.063-2.182z" style="fill:#f9f9f9;stroke:none;stroke-width:1px;stroke-linecap:butt;stroke-linejoin:miter;stroke-opacity:1" transform="matrix(.76312 0 0 .76312 92.429 80.804)"/><path d="M312.16 40.418v26.758h69.65V40.418h-34.826z" style="fill:#1353b4;fill-opacity:1;stroke:none;stroke-width:1px;stroke-linecap:butt;stroke-linejoin:miter;stroke-opacity:1" transform="matrix(.76312 0 0 .76312 92.429 80.804)"/><path d="M335.6.043c-.513-.015-.99.038-1.35.207-.816.383-1.5 2.25-1.5 2.25-4.937.27-10.668-.734-9.25 9.75l3-2c4.148 5.346 9.178 5.18 14.25 4.75l3.611-.416.266 1.855 1.414 1.768 1.414-.176 1.06-1.767-.884-1.946-2.74-2.209-5.303-1.855-1.238-2.652V.572c-.58-.184-1.575-.494-2.75-.529z" style="fill:#fedc5d;fill-opacity:1;stroke:none;stroke-width:1px;stroke-linecap:butt;stroke-linejoin:miter;stroke-opacity:1" transform="matrix(.76312 0 0 .76312 92.429 80.804)"/><path d="M341.297 5.657s.433 2.458 1.326 3.182c.861.699 2.296 1.15 3.27.619 1.172-.64 1.503-3.713 1.503-3.713-2.05-.591-4.079-.464-6.1-.088z" style="fill:#ccc;stroke:none;stroke-width:1px;stroke-linecap:butt;stroke-linejoin:miter;stroke-opacity:1" transform="matrix(.76312 0 0 .76312 93.89 80.804)"/><path d="M341.208 6.276c-.187.42-.884 1.06-.884 1.06s-1.047-1.206-1.06-1.944c-.006-.33.157-.718.442-.884 1.988-1.16 4.817-.636 6.894.353.358.17.442.704.796.884 1.003.512 3.358.354 3.358.354s-2.452.769-3.624.442c-.505-.141-.74-.806-1.237-.973-1.453-.486-4.596.089-4.596.089s-.004.428-.089.619z" style="fill:#333;stroke:none;stroke-width:1px;stroke-linecap:butt;stroke-linejoin:miter;stroke-opacity:1" transform="matrix(.76312 0 0 .76312 93.89 80.804)"/><path d="m344.452 6.063.633 1.226-.742 1.594-.727-1.531z" style="fill:#1a1a1a;stroke:none;stroke-width:1px;stroke-linecap:butt;stroke-linejoin:miter;stroke-opacity:1" transform="matrix(.76312 0 0 .76312 93.89 80.804)"/></g><path d="m500.197 198.611-82.181 24.944v33.361l32.16 18.299v103.457l-21.371 12.16 71.392 40.62 71.393-40.62-21.37-12.158V275.213l32.159-18.297v-11.545z" style="fill:#4a00a2;fill-opacity:1;stroke:none;stroke-width:.779146px;stroke-linecap:butt;stroke-linejoin:miter;stroke-opacity:1" transform="translate(-2.322)"/><path d="m571.59 390.831-71.393-40.62-71.392 40.62 71.392 40.62z" style="fill:url(#n);fill-opacity:1;stroke:none;stroke-width:.779146px;stroke-linecap:butt;stroke-linejoin:miter;stroke-opacity:1" transform="translate(-2.322)"/><path d="m500.197 281.154-50.022-28.461v136.024l50.022 28.461z" style="fill:url(#o);fill-opacity:1;stroke:none;stroke-width:.258687px;stroke-linecap:butt;stroke-linejoin:miter;stroke-opacity:1" transform="translate(-2.322)"/><path d="m500.197 281.154 50.023-28.461v136.024l-50.023 28.461z" style="fill:url(#p);fill-opacity:1;stroke:none;stroke-width:.258687px;stroke-linecap:butt;stroke-linejoin:miter;stroke-opacity:1" transform="translate(-2.322)"/><path d="M418.016 256.915v-33.36M500.197 303.675v-33.36M582.379 256.915v-11.544" style="fill:none;stroke:#000;stroke-width:.779146px;stroke-linecap:butt;stroke-linejoin:miter;stroke-opacity:1" transform="translate(-2.322)"/><path d="m582.379 245.37-82.182-46.759-82.18 24.944 82.18 46.76z" style="fill:url(#q);fill-opacity:1;stroke:none;stroke-width:.896844px;stroke-linecap:butt;stroke-linejoin:miter;stroke-opacity:1" transform="translate(-2.322)"/><path d="M500.197 270.314v33.36l82.182-46.759v-11.544z" style="fill:url(#r);fill-opacity:1;stroke:none;stroke-width:.779146px;stroke-linecap:butt;stroke-linejoin:miter;stroke-opacity:1" transform="translate(-2.322)"/><path d="m418.016 223.555 82.181 46.76v33.36l-82.18-46.76z" style="fill:url(#s);fill-opacity:1;stroke:none;stroke-width:.779146px;stroke-linecap:butt;stroke-linejoin:miter;stroke-opacity:1" transform="translate(-2.322)"/><path d="m223.198 198.611 82.181 24.944v33.361l-32.16 18.299v103.457l21.371 12.16-71.392 40.62-71.393-40.62 21.37-12.158V275.213l-32.159-18.297v-11.545z" style="fill:#4a00a2;fill-opacity:1;stroke:none;stroke-width:.779146px;stroke-linecap:butt;stroke-linejoin:miter;stroke-opacity:1" transform="translate(-2.322)"/><path d="m151.805 390.831 71.392-40.62 71.393 40.62-71.393 40.62z" style="fill:url(#t);fill-opacity:1;stroke:none;stroke-width:.779146px;stroke-linecap:butt;stroke-linejoin:miter;stroke-opacity:1" transform="translate(-2.322)"/><path d="m223.197 281.154 50.023-28.461v136.024l-50.023 28.461z" style="fill:url(#u);fill-opacity:1;stroke:none;stroke-width:.258687px;stroke-linecap:butt;stroke-linejoin:miter;stroke-opacity:1" transform="translate(-2.322)"/><path d="m223.197 281.154-50.022-28.461v136.024l50.022 28.461z" style="fill:url(#v);fill-opacity:1;stroke:none;stroke-width:.258687px;stroke-linecap:butt;stroke-linejoin:miter;stroke-opacity:1" transform="translate(-2.322)"/><path d="M305.379 256.915v-33.36M223.197 303.675v-33.36M141.016 256.915v-11.544" style="fill:none;stroke:#000;stroke-width:.779146px;stroke-linecap:butt;stroke-linejoin:miter;stroke-opacity:1" transform="translate(-2.322)"/><path d="m141.016 245.37 82.181-46.759 82.182 24.944-82.182 46.76z" style="fill:url(#w);fill-opacity:1;stroke:none;stroke-width:.896844px;stroke-linecap:butt;stroke-linejoin:miter;stroke-opacity:1" transform="translate(-2.322)"/><path d="M223.197 270.314v33.36l-82.18-46.759v-11.544z" style="fill:url(#x);fill-opacity:1;stroke:none;stroke-width:.779146px;stroke-linecap:butt;stroke-linejoin:miter;stroke-opacity:1" transform="translate(-2.322)"/><path d="m305.379 223.555-82.182 46.76v33.36l82.182-46.76z" style="fill:url(#y);fill-opacity:1;stroke:none;stroke-width:.779146px;stroke-linecap:butt;stroke-linejoin:miter;stroke-opacity:1" transform="translate(-2.322)"/><ellipse cx="248.75" cy="237.875" rx="12.75" ry="6.375" style="opacity:.5;fill:#4a00a2;fill-opacity:1;stroke:none;stroke-width:12.3402;stroke-linecap:round;stroke-linejoin:round;paint-order:stroke fill markers"/><path d="m249.25 237.75-1.25-38.5-9.75-1.5" style="fill:none;stroke:#000;stroke-width:4;stroke-linecap:round;stroke-linejoin:round;stroke-opacity:1;stroke-miterlimit:4;stroke-dasharray:none"/><rect width="19.5" height="10.25" x="251.688" y="150.988" ry="5.125" style="opacity:1;fill:#1a1a1a;fill-opacity:1;stroke:none;stroke-width:12.3402;stroke-linecap:round;stroke-linejoin:round;paint-order:stroke fill markers" transform="rotate(9.36)"/><ellipse cx="-470.627" cy="237.875" rx="12.75" ry="6.375" style="opacity:.5;fill:#4a00a2;fill-opacity:1;stroke:none;stroke-width:12.3402;stroke-linecap:round;stroke-linejoin:round;paint-order:stroke fill markers" transform="scale(-1 1)"/><path d="m470.127 237.75 1.25-38.5 9.75-1.5" style="fill:none;stroke:#000;stroke-width:4;stroke-linecap:round;stroke-linejoin:round;stroke-miterlimit:4;stroke-dasharray:none;stroke-opacity:1"/><rect width="19.5" height="10.25" x="-458.111" y="267.987" ry="5.125" style="opacity:1;fill:#1a1a1a;fill-opacity:1;stroke:none;stroke-width:12.3402;stroke-linecap:round;stroke-linejoin:round;paint-order:stroke fill markers" transform="scale(-1 1) rotate(9.36)"/></svg>