<svg xmlns="http://www.w3.org/2000/svg" xmlns:xlink="http://www.w3.org/1999/xlink" id="svg50" version="1.1" width="893" height="608" viewBox="0 0 236.273 160.867">
  <defs id="defs14">
    <linearGradient id="linearGradient82">
      <stop id="stop80" offset="0" style="stop-color:#74138f;stop-opacity:1"/>
      <stop id="stop81" offset=".502" style="stop-color:#4d06cb;stop-opacity:1"/>
      <stop id="stop82" offset="1" style="stop-color:#6e07f0;stop-opacity:1"/>
    </linearGradient>
    <linearGradient id="linearGradient79">
      <stop id="stop77" offset="0" style="stop-color:#b61ddf;stop-opacity:1"/>
      <stop id="stop78" offset=".502" style="stop-color:#6d1ff9;stop-opacity:1"/>
      <stop id="stop79" offset="1" style="stop-color:#00a2ca;stop-opacity:1"/>
    </linearGradient>
    <linearGradient id="linearGradient76">
      <stop id="stop73" offset="0" style="stop-color:#fdb692;stop-opacity:1"/>
      <stop id="stop74" offset=".34" style="stop-color:#fc78a9;stop-opacity:1"/>
      <stop id="stop75" offset=".66" style="stop-color:#ffe951;stop-opacity:1"/>
      <stop id="stop76" offset="1" style="stop-color:#e61fdc;stop-opacity:1"/>
    </linearGradient>
    <linearGradient id="linearGradient72">
      <stop id="stop70" offset="0" style="stop-color:#b61ddf;stop-opacity:1"/>
      <stop id="stop71" offset=".502" style="stop-color:#6d1ff9;stop-opacity:1"/>
      <stop id="stop72" offset="1" style="stop-color:#19b09b;stop-opacity:1"/>
    </linearGradient>
    <linearGradient id="d">
      <stop id="stop1" offset="0" style="stop-color:#e71fdb;stop-opacity:1"/>
      <stop id="stop2" offset="1" style="stop-color:#e61fdc;stop-opacity:0"/>
    </linearGradient>
    <linearGradient id="c">
      <stop id="stop3" offset="0" style="stop-color:#fca16a;stop-opacity:1"/>
      <stop id="stop4" offset=".54" style="stop-color:#f51fd1;stop-opacity:1"/>
      <stop id="stop5" offset="1" style="stop-color:#6218c0;stop-opacity:1"/>
    </linearGradient>
    <linearGradient id="b">
      <stop id="stop6" offset="0" style="stop-color:#b61ddf;stop-opacity:1"/>
      <stop id="stop7" offset=".502" style="stop-color:#6d1ff9;stop-opacity:1"/>
      <stop id="stop8" offset="1" style="stop-color:#7f1ff9;stop-opacity:1"/>
    </linearGradient>
    <linearGradient id="a">
      <stop id="stop9" offset="0" style="stop-color:#9e12dc;stop-opacity:.50196081"/>
      <stop id="stop10" offset="1" style="stop-color:#5a12fc;stop-opacity:.50196081"/>
    </linearGradient>
    <linearGradient xlink:href="#a" id="f" x1="-2.173" x2="139.764" y1="100.253" y2="48.953" gradientTransform="translate(14.547 9.736) scale(.93731)" gradientUnits="userSpaceOnUse"/>
    <linearGradient xlink:href="#b" id="g" x1="34.094" x2="108.478" y1="98.868" y2="20.369" gradientTransform="translate(14.547 9.736) scale(.93731)" gradientUnits="userSpaceOnUse"/>
    <linearGradient xlink:href="#c" id="j" x1="57.604" x2="58.395" y1="35.796" y2="28.678" gradientTransform="translate(-113.927 7.626) scale(.93731)" gradientUnits="userSpaceOnUse"/>
    <linearGradient xlink:href="#c" id="i" x1="80.112" x2="66.292" y1="43.699" y2="27.793" gradientTransform="translate(-113.927 7.626) scale(.93731)" gradientUnits="userSpaceOnUse"/>
    <linearGradient xlink:href="#c" id="k" x1="57.604" x2="73.415" y1="35.796" y2="33.438" gradientTransform="translate(-163.224 -11.243) scale(.93731)" gradientUnits="userSpaceOnUse"/>
    <linearGradient xlink:href="#c" id="n" x1="82.608" x2="55.292" y1="30.435" y2="25.112" gradientTransform="translate(-160.842 -16.051) scale(.93731)" gradientUnits="userSpaceOnUse"/>
    <linearGradient xlink:href="#c" id="m" x1="57.466" x2="66.899" y1="36.258" y2="32.745" gradientTransform="translate(-113.927 7.626) scale(.93731)" gradientUnits="userSpaceOnUse"/>
    <linearGradient xlink:href="#c" id="l" x1="55.175" x2="44.8" y1="33.519" y2="28.155" gradientTransform="translate(-113.927 7.626) scale(.93731)" gradientUnits="userSpaceOnUse"/>
    <linearGradient id="e">
      <stop id="stop11" offset="0" style="stop-color:#fdb692;stop-opacity:1"/>
      <stop id="stop12" offset=".34" style="stop-color:#fc78a9;stop-opacity:1"/>
      <stop id="stop13" offset=".66" style="stop-color:#fb1fcd;stop-opacity:1"/>
      <stop id="stop14" offset="1" style="stop-color:#e61fdc;stop-opacity:1"/>
    </linearGradient>
    <linearGradient xlink:href="#e" id="p" x1="-63.832" x2="-48.063" y1="77.615" y2="67.045" gradientTransform="matrix(.76226 .3259 0 .76226 -7.57 -33.836)" gradientUnits="userSpaceOnUse"/>
    <linearGradient xlink:href="#c" id="o" x1="-76.135" x2="-48.063" y1="94.485" y2="67.045" gradientTransform="matrix(.76226 .3259 0 .76226 -5.392 -35.355)" gradientUnits="userSpaceOnUse"/>
    <linearGradient xlink:href="#e" id="linearGradient52" x1="-79.657" x2="-40.425" y1="102.032" y2="74.883" gradientTransform="matrix(1.05645 0 0 1.00376 198.784 -104.334)" gradientUnits="userSpaceOnUse"/>
    <linearGradient xlink:href="#linearGradient82" id="linearGradient56" x1="-66.298" x2="-31.96" y1="85.314" y2="59.704" gradientTransform="matrix(1.05645 0 0 1.00376 201.735 -106.616)" gradientUnits="userSpaceOnUse"/>
    <linearGradient xlink:href="#e" id="linearGradient58" x1="101.093" x2="168.194" y1="-14.346" y2="-14.346" gradientUnits="userSpaceOnUse"/>
    <linearGradient xlink:href="#e" id="linearGradient59" x1="101.093" x2="168.194" y1="-14.346" y2="-14.346" gradientTransform="matrix(.87302 0 0 .87302 17.098 -1.822)" gradientUnits="userSpaceOnUse"/>
    <radialGradient xlink:href="#d" id="h" cx="78.769" cy="47.785" r="19.513" fx="78.769" fy="47.785" gradientTransform="matrix(.99999 0 0 .38904 -128.474 27.085)" gradientUnits="userSpaceOnUse"/>
  </defs>
  <path id="path14" d="M12.08 86.362c-.901-1-.973-3.127-.108-3.206.147-.013.515-.29.816-.614.408-.438.822-.646 1.615-.813.586-.123.971-.28.855-.348-.122-.072.288-.295.96-.523.687-.233 1.233-.29 1.315-.14.088.163.39.108.81-.147.49-.298.508-.371.063-.274-1.899.415 2.624-1.836 5.777-2.875.868-.286 2.312-.905 3.208-1.374.897-.47 2.66-1.334 3.917-1.919 1.26-.585 2.918-1.48 3.686-1.988 1.355-.895 1.391-.966 1.177-2.35-.193-1.251-.034-1.675 1.293-3.45.832-1.113 1.55-2.248 1.595-2.522.115-.706.91-1.245 2.05-1.388.572-.071.87-.186.714-.276-.642-.373 2.506-1.378 5.107-1.63 1.37-.132 3.869-2.422 2.95-2.704-.257-.08-.606-.03-.777.11-.375.309-1.042-.02-.808-.397.09-.148-.036-.385-.282-.527-.246-.142-.305-.344-.132-.449.174-.105.189-.42.033-.7-.156-.28-.096-.623.133-.76.69-.417.686-1.575-.01-2.232-.359-.34-.613-1.012-.565-1.493.068-.679-.108-.935-.787-1.144-.607-.186-1.1-.7-1.612-1.678-1.004-1.916-1.023-2.815-.066-3.21.551-.229.848-.696 1.1-1.734.191-.781.405-1.456.476-1.5.071-.042.228-.545.348-1.116.121-.57.425-1.37.677-1.777.456-.737.29-1.169-.311-.803-.175.106-.604.856-.955 1.668-.35.811-.758 1.548-.906 1.638-.147.09-.324.463-.391.83-.068.366-.271.681-.451.7-.466.047-.436-1.278.034-1.575.216-.135.319-.567.23-.959-.11-.48.045-.792.475-.956.35-.134.602-.399.56-.588-.043-.19.28-.83.717-1.423.544-.738.673-1.283.409-1.726-.268-.448-.085-1.193.593-2.416.957-1.728 1.027-1.794 2.995-2.826 2.83-1.483 3.274-1.956 3.015-3.213-.15-.724-.052-1.074.299-1.062.36.013.714-.734 1.138-2.4.512-2.015.491-2.49-.128-2.84-.408-.23-.83-.702-.938-1.048-.108-.345-.784-1.12-1.501-1.723-.717-.601-1.364-1.179-1.438-1.283-.074-.105-.494-.214-.934-.244-.44-.03-1.233-.185-1.763-.346-.77-.233-.866-.352-.475-.592.408-.25.353-.304-.337-.324-.455-.013-.842.04-.861.119-.02.078-.319.188-.665.245-.485.078-.474.143.05.279.495.129.533.233.142.381-.713.27-1.635-.043-1.375-.467.154-.25-.268-.363-1.695-.45-1.044-.064-2.099-.23-2.343-.368-.245-.139-.797-.278-1.227-.31-.43-.031-.961-.215-1.18-.407-.315-.277-.122-.292.912-.074 2.293.485 3.95.653 4.504.458.364-.128.356-.294-.023-.513-.31-.177-.808-.465-1.108-.638-.3-.174-.4-.474-.225-.666.177-.193.11-.385-.15-.428-.26-.042-.457-.42-.439-.84.03-.705.1-.771.943-.889.5-.07 1.413.053 2.027.272 1.387.495 1.766.07.458-.513-.88-.394-1.96-1.81-1.424-1.87.637-.071 2.706.724 2.636 1.013-.042.173.126.354.373.402.248.047.222-.414-.057-1.024-.52-1.138-.156-1.554.858-.983.314.177.994.332 1.51.345 1.484.036 4.409 1.153 5.332 2.036.446.427 1.713 1.388 2.815 2.136 1.103.749 2.55 1.826 3.216 2.393.882.753 1.992 1.334 4.089 2.142 1.585.61 2.901 1.221 2.925 1.358.023.136.698.647 1.5 1.136.803.49 1.825 1.255 2.27 1.701.663.664.84.74.967.42.123-.309.37-.302 1.172.036.85.357.821.306-.172-.304-.727-.447-1.01-.773-.731-.84.251-.06.286-.204.078-.321-.208-.118-.172-.262.08-.322.722-.173.1-.369-.741-.234-.817.13-1.498-.16-2.346-1-.648-.642-.541-.719 1.338-.962 1.434-.187 1.518-.161 2.93.883.8.592 1.606 1.387 1.791 1.766.186.38.877 1.01 1.535 1.4.658.39 1.187.873 1.174 1.072-.016.27.065.27.314 0 .243-.26.602-.279 1.283-.064 1.391.44 1.424.49.59.924-.594.31-.686.603-.419 1.325.297.8.238.936-.424.992-.544.046-1.108-.184-1.932-.788l-1.162-.852 1.09 1.122c1.29 1.328 2.393 2.023 2.99 1.883a.433.433 0 0 0 .326-.521c-.092-.371-.008-.394.726-.196.47.127.897.459.985.767.145.51.114.536-.503.419-.56-.107-.63-.077-.477.199.1.178.534.32.964.313.71-.01.761-.064.546-.577-.233-.555.472-1.285.97-1.005.149.084.459-.06.761-.352.665-.644 1.418-.614 2.718.11 1.112.62.67 1.1-.666.722-1.025-.29-1.598.001-1.318.668.131.311.032.615-.22.674-.252.06-.293.2-.092.314.202.114.218.298.034.409-.183.11-.138.208.1.216.588.021 1.08.767.583.883-.817.192-.266.63.702.557 1.535-.115 1.971-.521 1.1-1.025-1.358-.786-.66-2.09 1.051-1.96 1.1.084 2.172.723 1.483.884-.378.09-.334.161.146.24 1.618.268 2.332.652 2.405 1.295.042.364.37.757.729.873.55.178.56.15.06-.173-.953-.616-.371-.996.642-.42.774.44 1.444 1.491.738 1.158-.393-.186.673 1.34 1.697 2.428 1.011 1.074 1.12 1.563.402 1.81-.293.102-.117.667.455 1.46l.932 1.295-1.236-.025c-1.129-.024-1.26-.088-1.515-.738-.153-.392-.5-.756-.772-.81-.319-.063-.387.172-.194.665.164.42.067.946-.215 1.17-.446.356-.586.335-1.088-.161-.537-.532-.575-.534-.58-.025-.003.332-.13.48-.324.376-.614-.324-1.803-1.869-1.875-2.436-.04-.315-.586-.886-1.212-1.268-1.369-.836-1.055-1.335.421-.67.995.447 2.55.532 3.152.17.542-.325-.077-.773-.946-.684-.993.102-1.727-.188-1.231-.486.179-.108.694-.139 1.143-.068.578.09.709.059.444-.107-.206-.128-.28-.331-.167-.45.23-.24-.208-.627-1.38-1.223-.705-.359-.847-.34-1.625.216-.765.546-.973.578-2.026.315-.644-.16-1.189-.396-1.21-.524-.02-.127-.672-.179-1.447-.115-.775.064-1.792.008-2.26-.125-.467-.134-.988-.159-1.158-.056-.17.102-.5.077-.734-.055-.47-.265-3.228-.022-3.82.337-.207.125-.22.314-.032.42.189.108.174.43-.032.716-.207.286-.139.655.151.819.29.164.846.809 1.235 1.433.39.624 1.027 1.316 1.418 1.537.547.31.57.487.1.77-.336.202-.749.753-.919 1.223-.285.792-.242.848.594.767.738-.072.979-.192 1.318-.66.228-.316.477-.571.554-.568.077.004.627.054 1.222.111 1.281.124 2.269-.38 2.075-1.06-.1-.35.036-.511.494-.582.348-.054 1.026-.362 1.508-.684.876-.586.876-.586 1.987.164 1.568 1.06 2.217 2.186 1.548 2.69-.301.226-.448.65-.325.943.188.448.448.52 1.666.457l1.444-.074-.316 1.186c-.173.653-.464 1.268-.646 1.368-.181.1-.131.542.111.983.725 1.319.606 1.988-.453 2.563-1.577.855-1.704 1-1.15 1.316.555.315.163 1.344-.576 1.513-.48.11-1.808-.708-1.474-.908.12-.073-.165-.4-.634-.729l-.851-.597 1.833-.375 1.836-.376-.782-.18c-.43-.1-1.008-.163-1.285-.14-.277.021-.83-.143-1.228-.366-.555-.311-.713-.316-.676-.022.042.332-.006.354-.35.164-.617-.343-.804-.86-.347-.966.718-.166-.284-.518-1.91-.671-1.96-.185-2.28-.052-.51.212 1.718.257 1.951.654.691 1.177-.526.218-.842.436-.703.483.723.246 1.21.763.807.855-.645.149-.194.35.604.27.499-.049.638.026.57.307-.07.28-.303.336-.953.227-.474-.08-1.562-.252-2.419-.383-1.662-.253-1.944-.57-.68-.762 1.035-.158.9-.204-1.56-.535-2.066-.278-2.826-.181-2.537.322.093.16-.11.205-.544.121-.38-.073-1.095-.206-1.588-.296-.493-.09-1.5-.017-2.239.162-.737.179-1.357.227-1.376.107-.02-.12-.45.098-.957.485-.816.624-1.04.686-1.964.55-.572-.086-1.809-.121-2.747-.08l-1.704.075-1.102 1.138c-1.339 1.383-2.082 1.853-2.526 1.599-.402-.23.117-1.315.836-1.749.283-.17.53-.486.55-.7.046-.529-2.425-2.413-2.662-2.03-.28.45-1.125.17-1.709-.566-.472-.596-.741-.68-2.266-.71-1.053-.021-1.912.103-2.197.316-.257.194-1.07.625-1.806.959-1.057.479-1.485.82-2.037 1.626-.384.56-.55 1.193-.368 1.406.484.567 2.008.896 2.984.643 1.195-.31 1.673-.283 2.414.135.587.332.554.405-.358.792-.551.234-1.216.467-1.478.517-.26.05-.845.247-1.297.438-.763.321-.746.39.248.968 1.539.894 1.481 1.136-.507 2.131-2.17 1.086-2.432 1.852-.823 2.4.67.229 1.031.509 1.007.781-.03.35.257.389 1.61.222.906-.111 1.856-.083 2.11.064.255.147.667.22.916.163.717-.164 1.003.155.34.379-.708.24-.498.432.38.347.469-.045.64.099.695.582.078.703 1.04 1.415 2.442 1.808.642.18.751.287.38.37-.286.066-.409.183-.274.261.136.078.386.058.557-.044.17-.102.426-.12.568-.038.141.082-.012.239-.34.35-.328.11-.613.398-.634.638a19.5 19.5 0 0 1-.2 1.349c-.117.663.08 1.05.728 1.425 1 .578 1.132 1.67.299 2.466-.292.278-.514.626-.495.772.023.18-.223.305-.759.383-.678.1-.723.157-.314.394.264.153.403.4.31.55-.094.15.013.282.236.293.224.01.564.45.757.978.193.528.711 1.31 1.153 1.74.442.429.788 1.124.77 1.546-.018.421.107.846.277.945.442.257-.325 1.197-1.303 1.597-.457.187-1.957.515-3.332.73-1.374.214-2.835.59-3.248.836-1.176.7-4.439 1.881-5.788 2.095-.688.11-1.86.027-2.677-.188-1.901-.5-3.567-.453-4.54.127-.494.295-2.119.657-4.509 1.003-3.718.54-3.73.539-4.547-.113l-.819-.653-.39.677c-.375.652-.44.68-1.743.74-.845.04-1.641-.106-2.122-.389-.624-.367-.912-.383-1.528-.084-.58.281-.902.28-1.372-.008-.357-.219-.778-.278-1.006-.14-.216.129-.216.342-.001.473.343.21.267.243-.613.272-.553.018-1.306.14-1.676.27-.369.13-.827.144-1.019.032-.467-.276-1.04.1-1.036.68.002.435-.151.483-1.947.619-1.078.081-2.15.303-2.402.498-.585.45-.875 1.726-.449 1.979.18.106.176.285-.01.397-.186.111-.461.05-.611-.135-.15-.185-.512-.363-.804-.394-.292-.031-.743-.293-1.004-.581zm42.944-26.833c.174-.19.045-.178-.327.032-.336.19-.464.332-.284.314.18-.017.455-.173.611-.346zm.003-30.84c.11-.539.096-.537-.33.035-.245.328-.297.582-.116.563.182-.02.382-.289.446-.598zm20.712-3.733c.209-.127-.237-.462-1.22-.916-2.134-.986-2.567-.833-.67.236.936.528 1.692.8 1.89.68zm-56.93 62.496c.243-.054.743.079 1.11.296.368.217.531.477.364.577-.167.1-.667-.033-1.111-.296-.48-.285-.628-.518-.364-.577zm66.94 37.892c.093-.372.753-.36 1.064.019.168.204.121.41-.104.457-.475.099-1.033-.178-.96-.476zm53.768 29.138c-.398-.478.379-.678 2.197-.566.847.053 2.384.032 3.416-.047 1.032-.078 1.685-.033 1.451.099-.234.132-.238.253-.01.27.229.015.336.151.239.302-.218.337-2.558.723-2.979.49-.169-.092-.766-.06-1.328.072-1.645.387-2.252.261-2.986-.62zm-8.682-8.597.595-.77.975.574c.867.511.89.624.2 1.013-.697.393-1.561.426-2.148.08-.12-.07.051-.474.378-.897zm16.636 8.71c.344-.193.55-.466.457-.608-.13-.199.031-.28.723-.365.778-.094.963-.241 1.452-1.156.759-1.419 1.205-1.36.8.105-.319 1.156-.247 1.397.51 1.714.623.26-.314.558-2.284.724-2.166.183-2.551.087-1.658-.414zm-15.735-11.08c-.315-.262-.348-.921-.082-1.612.273-.708.243-1.21-.075-1.273-.433-.085-.353-.145.448-.334 1.168-.276 1.095-.387-.192-.294-.88.064-.915.007-.53-.839.282-.62.185-1.117-.304-1.569-.777-.717-3.275-1.587-4.84-1.686-.538-.034-1.367-.29-1.843-.57-.475-.28-1.424-.572-2.108-.65-1.02-.118-1.298-.256-1.554-.773-.3-.608 0-1.1.494-.81.405.237 1.45-.514 2.697-1.94 1.827-2.086 3.855-3.075 5.803-2.827 2.147.273 3.352.525 3.82.799.27.157 1.043.101 1.956-.143.831-.221 1.82-.329 2.197-.238.377.09.819.09.98-.003.163-.092.818-.144 1.457-.115 1.007.046 1.185.135 1.338.665.155.537.272.59.946.437 1.266-.288 2.543-.325 2.584-.073.022.13.268.106.548-.053.569-.323 1.06-.166.792.252-.096.15.203.493.665.762.913.532.634.849-.959 1.089-.89.134-.954.238-.8 1.313.27 1.866.44 1.87 4.262.096.932-.433 1.854-.777 2.05-.764.386.024-.454 1.124-1.164 1.526-.24.136-.313.398-.162.583.157.193-.175.742-.777 1.285-.668.602-1.187 1.535-1.426 2.56-.206.887-.476 1.67-.6 1.74-.123.07-.243.396-.265.725-.082 1.2-3.715 3.345-6.054 3.577-.514.05-1.852.347-2.972.658-1.432.398-2.178.482-2.514.285-.262-.155-.87-.306-1.35-.337-.67-.043-.85-.145-.776-.44.053-.213-.183-.424-.531-.475-.345-.051-.867-.291-1.16-.535zm-61.167-39.44c.054-.22.433-.595.843-.835s1.113-1.08 1.564-1.865c.454-.791 1.372-1.838 2.056-2.345.68-.504 1.697-1.54 2.259-2.3 1.206-1.632 2.095-2.205 4.356-2.802 2.77-.731 4.9-2.494 5.928-4.909.43-1.008.564-1.119 2.284-1.89 2.155-.965 2.528-1.611 1.19-2.064-.597-.202-.695-.403-.395-.812.31-.423.174-.67-.61-1.114-.554-.313-1.47-.606-2.035-.652-.665-.055-1.348-.34-1.939-.81-.523-.418-1.282-.761-1.78-.807-1.422-.13-1.48-.99-.321-4.75.496-1.613 1.411-2.551 2.872-2.945 1.36-.366 2.992-1.31 3.112-1.797.068-.277.454-.466 1.542-.755 3.521-.936 4.75-1.11 6.871-.968 1.005.068 1.648-.063 2.682-.546 1.035-.482 1.647-.607 2.554-.519 2.234.216 4.037-.771 2.275-1.247-.507-.137-.518-.3-.043-.687.768-.626 3.698-2.236 4.146-2.278.181-.017 1.097.439 2.036 1.014 1.662 1.017 1.735 1.034 2.695.644 1.269-.515 1.434-.808.98-1.733-.453-.918.015-.972 2.296-.263.963.3 2.09.495 2.504.435.414-.06.882-.036 1.04.054.159.09.886.084 1.615-.013.95-.126 1.572-.038 2.184.309.848.48.867.478 1.822-.264.866-.672 1.065-.731 1.939-.576 1.164.207 1.267.253.913.418-.8.373-.968.661-.528.91.523.297.818.045 1.438-1.223.247-.507.16-.587-.73-.662-.556-.047-1.275-.291-1.598-.542-.488-.379-.425-.586.367-1.215 1.17-.931 1.872-1.054 3.54-.621.7.182 2.645.312 4.324.288 3.705-.051 6.685.298 7.859.923.48.255 1.193.495 1.584.532 1.222.116 3.827 1.687 3.588 2.164-.116.232-.06.524.123.648 2.017 1.358 3.67 3.472 3.013 3.854-.658.383-1.772.03-3.074-.974-.643-.496-1.167-.766-1.165-.602.002.164-.183.489-.41.721-.227.232-.239.52-.025.641.231.13.47.09.59-.098.147-.23.424-.123 1.015.394.536.47.874.616.992.43.206-.324 1.845-.092 2.68.38.476.268.676.228 1.304-.257.697-.539.77-.541 1.214-.036.604.69.55.856-.272.823-.507-.02-.51.063-.01.35.36.205.834.335 1.053.287.709-.155 3.678.928 5.682 2.074 1.635.934 2.03 1.064 2.396.786.51-.387 1.385.222 2.793 1.945.461.564.994 1.012 1.184.995.19-.017.186-.219-.009-.448-.333-.392-.285-.5.445-.993.16-.108 1.002-.199 1.87-.201 1.933-.007 3.298.842 2.065 1.284-.404.144-.715.385-.69.535.026.15-.166.318-.425.374-.26.056-.56.318-.667.583-.166.406-.383.486-1.395.516-1.424.04-1.004.432.459.427.808-.003 1.011-.09 1.318-.561.2-.307.657-.653 1.017-.769.383-.123.522-.286.335-.392-.19-.106.179-.215.903-.265 1.194-.082 1.807.326.812.54-.285.062-.093.144.45.192.521.046 1.312.348 1.757.673.685.499.88.528 1.279.188.413-.353.666-.29 2.129.533.99.556 1.73.827 1.83.67.26-.404 2.35.253 6.208 1.95 1.923.845 3.737 1.53 4.03 1.521.291-.009.882.103 1.31.248.442.15.262-.055-.416-.472-1.106-.68-1.123-.735-.22-.743 1.11-.01 2.476.662 2.553 1.255.046.353.007.374-.343.196-.217-.11-.283.177-.145.637.163.547.616.98 1.306 1.249.581.226 1.38.797 1.774 1.27.669.8.653.858-.234.855-.522-.001-1.23-.16-1.572-.352-.741-.417-.937-.06-.252.46.265.2.512.41.55.468.036.057.59.381 1.228.72.64.34 1.686 1.057 2.327 1.592.641.535 1.292.902 1.446.814.385-.22 2.191.834 2.58 1.506.176.302.091.68-.187.837-.596.339.044 1.203.92 1.243.334.015 1.448.548 2.475 1.184 1.427.883 1.956 1.09 2.238.872.534-.412 5.364 2.524 5.967 3.629.258.471 1.257 1.278 2.337 1.886 1.37.771 1.811 1.169 1.608 1.45-.204.28.348.778 2.016 1.816 1.264.787 2.373 1.615 2.464 1.84.125.307.314.325.763.073.54-.302.798-.2 2.68 1.06 2.73 1.828 2.841 2.218.906 3.187-1.23.616-1.63.705-2.288.51-.722-.215-.802-.19-.842.255-.068.746-.555.876-1.428.384-.432-.245-1.97-.705-3.417-1.024-1.445-.318-2.854-.71-3.13-.869-1.4-.808-3.606-1.46-4.66-1.378-1.045.082-1.12.117-.728.339.536.303-.382.868-1.173.722-.315-.058-.785.014-1.044.159-.258.145-.644.165-.857.045-.213-.12-.68-.129-1.038-.017-.358.11-.768.135-.91.054-.143-.08-.947-.079-1.786.005-1.322.132-1.483.095-1.211-.28.172-.237.936-.863 1.698-1.391 1.095-.759 1.624-.987 2.509-1.081.616-.066 1.26-.041 1.43.055.322.182 5.197.546 6.224.465.385-.03.437-.13.153-.29-.237-.134-.568-.167-.736-.072-.468.263-2.767-.275-2.45-.573.144-.135-.075-.435-.486-.668-.82-.464-2.987-.65-3.229-.279-.224.345-2.443-.48-2.343-.87.05-.196-.929-.83-2.392-1.552-2.276-1.122-2.71-1.236-5.47-1.43-1.648-.115-3.188-.17-3.425-.12-.523.108.234 1.043.874 1.078.252.014.495.34.54.724.076.642.152.688.922.561.992-.163 1.006.137.033.69-.384.218-.96.736-1.282 1.151-.718.93-.756.95-1.204.696-.505-.286-1.407-.058-1.52.384-.141.561-.571.704-1.142.38-.462-.264-.325-.393 1.38-1.3 1.042-.555 1.923-1.118 1.956-1.25.078-.309-1.202-.054-2.016.4-1.355.758-8.634 1.209-9.176.57-.393-.464-2.096-.712-2.667-.388-.238.136-.86.202-1.382.148a16.776 16.776 0 0 0-1.135-.092c-.102.004-.288.332-.412.73-.317 1.013-1.537 1.647-2.736 1.422-1.482-.278-1.51-.397-.265-1.104.848-.482 1.052-.721.759-.889-.275-.157-.16-.321.366-.522.972-.371.732-.835-.556-1.075-1.175-.22-1.209-.476-.082-.625 1.235-.164.44-.493-1.145-.474-.698.008-1.442-.077-1.655-.189-.261-.137-.391.026-.402.505-.01.438.219.728.598.76.721.06 1.344.686.922.926-.161.092-.408.1-.55.02-.14-.08-.767-.166-1.39-.19l-1.133-.045-.486 1.016c-.553 1.155-2.376 2.516-3.385 2.528-.362.005-1.483.162-2.49.35-1.856.347-4.65.268-5.38-.151-.22-.127-.73-.262-1.132-.302a12.49 12.49 0 0 1-1.377-.224c-.421-.1-.777-.017-1.024.238-.48.494-1.697.663-2.298.317-.554-.319-.169-.585.89-.614 2.011-.055 1.785-1.018-.249-1.06-1.473-.031-2.14.44-2.637 1.865-.625 1.791-2.043 2.545-4.81 2.558-2.182.01-2.694-.092-2.118-.422.456-.261.909-2.069.567-2.266-.145-.083-.116-.235.063-.338.79-.453-.183-.35-1.662.175-1.8.639-1.873.722-2.24 2.55-.115.566-.484 1.186-.82 1.379a3.894 3.894 0 0 0-1.005.877c-.525.704-1.082.715-1.205.024l-.1-.56-.247.772c-.136.424-.405.861-.598.971-.193.11-.423.555-.511.988-.102.496-.523.995-1.14 1.351-.873.503-.91.655-.348 1.404.347.462.905.893 1.24.956.334.064.694.42.8.792.105.371.31.845.456 1.054.6.86-.435.326-2.182-1.126-1.272-1.056-1.818-1.733-1.718-2.132.08-.322.05-.64-.066-.708-.315-.183.546-2.64 1.36-3.88.39-.595.875-1.66 1.077-2.365.327-1.146.43-1.258.96-1.058.35.132.554.752.496 1.501-.055.702-.04 1.312.034 1.354.243.141 2.59-2.42 2.6-2.839.007-.273.558-.71 1.639-1.298.897-.488 2.132-1.33 2.745-1.868.89-.784.986-1.003.476-1.089-1.113-.187-1.476-.467-1.005-.776.25-.164.678-.441.95-.615.272-.174.616-.701.764-1.172.148-.47.482-.977.742-1.127.26-.149.402-.31.317-.36-.522-.3-3.087-.76-4.01-.72-4.833.209-5.961.224-6.203.085-.152-.088-.39-.099-.53-.025-3.09 1.645-3.925 1.973-5.454 2.148-1.27.146-1.637.099-1.61-.206.02-.217.178-.477.351-.577.174-.1.62-.535.991-.967 1.978-2.3 2.88-3.203 4.038-4.04 1.155-.834 1.212-.955.59-1.254-.51-.245-.545-.51-.137-1.018.304-.378.434-.856.289-1.062-.145-.205-.111-.532.075-.726.254-.265-.107-.607-1.46-1.383-2.259-1.295-3.034-2.056-2.444-2.398.343-.199.21-.352-.528-.604-1.13-.386-1.45-1.096-1.101-2.43.238-.909-.225-1.193-1.107-.68-.257.149-.5.54-.538.87-.038.329-.27.715-.516.857-.265.154-.223.3.101.36.373.068.345.218-.087.469-.962.558.326 1.141 2.213 1.002l1.548-.115-.837.486c-.64.37-.746.63-.448 1.1.518.817-.046 1.353-1.592 1.512-.684.07-1.417.228-1.627.35-.21.122-.496.157-.634.077s-.762-.111-1.385-.07c-.624.04-1.524-.049-2-.198-.478-.15-1.136-.186-1.463-.08-.328.106-.74.115-.915.02-.176-.093-1.032-.258-1.903-.364-.87-.106-1.708-.26-1.863-.343-.155-.083-.898-.25-1.652-.371-1.235-.2-1.38-.173-1.493.281-.113.454.086.567 2.046 1.169 1.195.367 2.233.701 2.306.744.313.18-1.174.779-3.602 1.45-2.544.702-3.255.79-9.066 1.123-3.12.178-6.177.838-6.306 1.36-.044.178-.335.406-.647.507-.311.1-.73.46-.93.8-.2.339-1.084 1.1-1.963 1.69-1.393.936-1.762 1.087-2.884 1.181-.708.06-1.419.03-1.58-.064-.162-.094-.96-.124-1.773-.066-1.324.095-1.622.206-2.854 1.064-1.315.917-1.428.952-2.622.824-.899-.097-1.469-.005-2.044.331-.85.497-4.646 1.108-6.432 1.037-.578-.023-1.806-.356-2.728-.74-.921-.384-2.03-.799-2.464-.922-.471-.134-.75-.386-.691-.624zm46.321-12.392c.59-.426 1.26-1.12 1.487-1.543.228-.423.559-.853.736-.957.178-.103.261-.402.186-.664-.075-.262.136-.635.47-.83.333-.194.762-.736.953-1.204.191-.468.611-1.24.934-1.713.411-.604.409-.943-.01-1.135-.617-.282-.704-.218-1.388 1.03-.226.414-.57.844-.763.957-.193.112-.424.497-.513.855-.089.358-.516.857-.95 1.11-.99.577-1.955 2.243-2.14 3.691-.077.611-.125 1.126-.107 1.144.017.019.515-.315 1.105-.74zm-.124-13.916c.873-.51 1.987-.115 2.477.88.24.488 1.291 1.4 2.537 2.199l2.13 1.367 1.796-.475c2.922-.771 2.972-.967.608-2.395-2.236-1.35-2.406-1.976-.744-2.738.785-.36.82-.76.102-1.17-.208-.118-.44-.071-.556.114-.138.218-.308.187-.549-.099-.342-.407-.356-.4-.778.316-.296.501-.556.703-.831.644-.221-.048-.607.033-.857.18s-.563.206-.693.13c-.28-.159.936-2.292 1.678-2.945.283-.248.374-.81.203-1.248-.171-.439-.224-1.013-.118-1.276.106-.263.052-.558-.12-.655-.17-.098-.18-.313-.021-.478.198-.205.063-.228-.432-.073-.786.246-1.3 1.782-.709 2.119.18.102.181.27.005.374-.177.104-.172.274.01.377.182.104.242.413.131.686-.178.444-.235.447-.528.031-.232-.33-.386-.374-.527-.152-.109.173-.546.364-.97.425-.667.095-.71.03-.313-.473.387-.493.347-1.444-.118-2.803-.055-.159.118-.417.384-.573.377-.222.263-.354-.517-.6a32.81 32.81 0 0 1-2.31-.865c-.817-.344-1.463-.458-1.725-.304-.23.135-1.111.205-1.959.155-.938-.056-1.662.037-1.852.238-.476.503-2.537.55-3.59.084-.516-.229-1.059-.318-1.205-.198-.459.375.733 1.06 2.347 1.349 1.586.284 6.213 2.25 6.473 2.75.146.281-.872.954-1.73 1.143-.522.115-.332.853.423 1.646.28.294.485.736.455.982-.066.547.628 1.637 1.062 1.669.174.013.593-.14.932-.338zm8.84 2.494c.08-.127.437-.151.793-.054.356.097.532.244.39.326-.379.221-1.353-.003-1.183-.272zm-4.253-2.805c.092-.147.375-.055.663.215.674.635.573.84-.198.4-.345-.198-.554-.474-.465-.615zm-4.042-3.828c-.332-.637-.15-.7.88-.308.69.262.745.397.276.672-.649.38-.79.336-1.156-.364zm-.87-2.69c.275-.24.659-.45.853-.469a2.18 2.18 0 0 0 .733-.253c.21-.121.548-.21.75-.196.203.013-.204.408-.903.877-.937.63-1.358.804-1.602.664-.183-.104-.106-.385.169-.624zm11.385 5.766c.23-.05.93.081 1.554.293 1.074.365 1.632.673 4.367 2.408 1.503.953 2.153.598 1.686-.92-.282-.919-.21-1.15.39-1.235 1.029-.145 1-.448-.07-.747-.841-.235-.904-.218-.894.247.009.462-.063.478-.943.207-1.053-.324-1.26-.684-.61-1.064a.401.401 0 0 0 .113-.625c-.23-.273-.901-.296-2.483-.084-2.305.308-2.68.428-2.614.83.065.394-.457.598-1.087.427-.514-.139-.534-.129-.2.1.204.14.56.214.79.163zm4.194-8.988c.517.234 1.097.49 1.29.57.192.078.623-.017.957-.213.838-.49 2.034-.496 2.378-.01.293.414.976.234.897-.236-.093-.561.908-.416 2.21.321 1.03.582 1.396.682 1.466.401.067-.267-.335-.513-1.405-.861-1.726-.561-2.245-1.269-1.327-1.806.33-.193.683-.43.784-.527.101-.097 1.104-.1 2.228-.007 1.732.143 2.003.108 1.765-.228-.332-.468-2.06-.829-2.563-.535-.192.113-.987.107-1.767-.013-1.753-.27-2.43-.135-2.65.526-.192.578-1.367 1.06-1.878.77-.186-.104-.61-.03-.945.166-.806.473-1.583.479-3.311.024-1.022-.269-1.41-.478-1.349-.727.121-.488-.214-.62-.76-.3-.734.432-.197.795 3.98 2.685zm-42.1 40.494c-.063-.457 1.877-1.857 2.735-1.973.403-.054 1.11-.346 1.57-.648 1.463-.959 1.932-1.117 2.669-.903.787.229 2.582.17 3.834-.124 1.025-.242.914.209-.286 1.168-.632.505-.917.638-.949.442-.028-.17-.3-.132-.69.095-.354.205-2.024.862-3.71 1.458-3.578 1.264-5.046 1.402-5.173.485zm66.203 35.485c.043-.547.21-.802.439-.669.372.216.41 1.46.05 1.661-.387.217-.557-.128-.49-.992zm8.998 2.422c.182-.102.559-.051.838.112.28.163.292.34.027.392-.266.053-.643.002-.838-.112-.196-.114-.208-.29-.027-.392zm1.977.023c.902.048 1.229.24.618.36a1.468 1.468 0 0 1-.895-.151c-.357-.212-.318-.242.277-.21zm-5.653-4.45c.192-.107.368-.079.392.063.023.142-.022.294-.102.339-.08.045-.256.017-.391-.062-.136-.08-.09-.232.101-.34zm.58-3.426c.191-.107.367-.08.39.062.025.142-.021.295-.101.34-.08.044-.256.017-.392-.062-.135-.08-.09-.232.102-.34zm-21.97-13.137c-.034-.203.127-.383.358-.4.23-.019.376.138.324.348-.123.493-.603.53-.682.052zm1.94 1.137c.51-.29 2.53-.11 2.858.254.247.275.122.303-.704.16-.551-.095-1.23-.126-1.508-.07-.634.13-1.07-.102-.646-.344zm13.089 6.856c.24-1.13-.078-1.453-1.185-1.202-.584.132-.897.03-1.357-.442a8.044 8.044 0 0 0-1.249-1.018c-.691-.429-.59-.62.37-.691 1.047-.079 1.358-.796.787-1.815-.307-.547-.737-1.05-.956-1.12-.36-.113-.08-.43.672-.764.155-.068.172-.383.039-.699-.284-.67.513-.741 1.569-.138.507.29.492.533-.07 1.08-.657.637-.611 1.23.064.848.152-.086.678-.097 1.17-.025 1.124.165 3.031 3.013 2.71 4.048-.117.371-.093.744.05.828.145.084.018.228-.282.321-.696.215-1.126 1.051-1.022 1.989l.082.732-.803-.464c-.557-.322-.737-.77-.59-1.467zm6.453 4.291c.363-.204 1.776-.219 1.726-.018-.084.333-.635.556-.682.276-.024-.141-.2-.17-.391-.062-.192.108-.46.132-.595.053-.135-.079-.162-.19-.058-.249zm-22.088-13.759c.26-.053.694.03.961.186.268.155.273.326.012.38-.262.054-.695-.03-.962-.185-.268-.156-.273-.327-.011-.38zm1.703.99c.105-.164.533-.053 1.08.28.722.442.75.528.137.429-1.053-.17-1.423-.386-1.217-.708zm21.225 11.591c.097-.15.288-.209.423-.13.136.079.167.266.07.417-.097.15-.288.209-.423.13-.136-.079-.167-.266-.07-.417zm-12.008-8.271c.28-.159.62-.225.754-.147.135.078.107.22-.063.317-.169.096-.508.162-.754.146-.245-.015-.217-.157.063-.316zm11.036 6.552c.307-.476.73-.37.525.133-.118.29-.288.406-.451.311-.144-.083-.178-.283-.074-.444zm-3.005-2.096c-.042-.33.04-.352.496-.14.301.14.685.315.852.39.168.073.739.101 1.269.062.901-.066.957-.1.867-.514-.053-.243.029-.374.183-.291.153.083.17.454.034.826-.134.371-.275.533-.312.36-.038-.178-.237-.218-.462-.091-.497.28-2.008.282-2.502.003-.205-.117-.397-.389-.425-.605zm-14.419-9.91c1.028-.794 2.562-1.43 3.794-1.574.649-.076 1.083.058 1.553.48.391.35.965.577 1.43.566.49-.012.65.054.432.179-.558.316-1.385.171-2.45-.43-.714-.402-1.132-.481-1.483-.281-.515.293-.42.37.916.741l.829.23-1.1.045c-1.056.042-1.122.076-1.66.836-.985 1.393-1.963 1.221-1.142-.2l.527-.911-.923.681c-1.23.91-1.92.562-.722-.362zm-2.251-1.479c.042-.17-.668-.837-1.442-1.355-.426-.285 1.073-2.145 1.952-2.42.36-.114.876-.078 1.149.08.272.158.639.205.814.105.176-.1.686-.076 1.134.054.448.13.933.168 1.078.086.144-.083 1.166-.161 2.27-.175l2.01-.024-.033.76c-.018.42-.131.705-.252.635-.12-.07-.668-.035-1.217.077-.837.17-1.063.312-1.4.876-.22.37-.506.613-.633.54-.29-.17-2.861.48-3.621.913-.312.178-.829.273-1.15.212-.71-.136-.715-.138-.66-.364zm7.601 3.87c.18-.101.596-.029.924.162.329.19.518.47.422.62-.103.159-.487.092-.924-.162-.412-.238-.601-.517-.422-.62zm2.045-1.444c.236-.314.685-.593 1.114-.692.65-.148.7-.118.527.31-.144.352-.378.498-.906.565-.391.05-.735.189-.765.307-.03.119-.124.175-.209.126-.085-.05.023-.326.24-.616zm2.486-3.308c-.078-.149.146-.434.498-.634.538-.306.505-.377-.202-.448-.671-.067-.74-.141-.338-.37.276-.157.663-.218.859-.137.196.082.496.21.667.286.17.075.709.127 1.196.115.766-.02.852.031.638.374-.344.552-1.081.926-2.138 1.088-.955.146-.962.144-1.18-.274zm-22.884-14.259c.706-.595 1.831-1.023 2.172-.826.336.193-.727 1.317-1.468 1.553-.991.315-1.418-.125-.704-.727zm22.446 10.7c.686-.112 1.355-.149 1.485-.08.131.068-.39.185-1.157.258-1.779.171-1.933.088-.328-.177zm2.29 1.311c.27-.154.4-.333.287-.397-.113-.065.016-.244.287-.398.27-.154.591-.222.714-.152.422.244-.015 1.065-.677 1.272-.844.264-1.259.044-.611-.325zm1.534.51c.15-.12.396-.316.545-.437.15-.12.426-.322.615-.447s.224-.382.078-.57a5.466 5.466 0 0 1-.46-.726c-.154-.304-.28-.296-.603.036-.29.299-.464.337-.598.132-.104-.16.162-.449.596-.647.43-.197.654-.433.495-.525-.2-.115.14-.35 1.112-.766 1.823-.78 1.98-.803 2.36-.351.334.396-.545 1.082-1.327 1.037-.824-.048-1.754.68-1.245.975.264.151.408.658.322 1.126-.134.723-.309.89-1.161 1.116-.552.146-.88.167-.729.047zm-97.7-62.33c-.617-.544-.486-1.09.17-.712.344.198.605.18.824-.055.231-.248.448-.243.78.019 1.278 1.009 1.405 2.132.16 1.416-.294-.17-.746-.297-1.004-.285-.258.012-.677-.16-.93-.383zM57.14 54.25c.389-.234.635-.092.696.4.038.308-.053.324-.48.084-.288-.164-.386-.381-.216-.484zm5.573 3.206c.171-.103.468-.097.66.014.192.11.21.285.038.387-.171.103-.468.096-.66-.014s-.209-.285-.038-.387zM18.95 31.367c.491-.301.957-.166.726.21-.08.132-.377.2-.658.152-.312-.053-.338-.195-.068-.362zm39.78 22.336c.25-.057.292-.197.093-.312-.2-.114-.251-.274-.116-.356.495-.297-1.057-1.81-1.932-1.883-.639-.053-.711-.109-.324-.251.914-.337 2.336.152 2.898.997.74 1.112 1.23 2.744.836 2.782-.573.057-1.943-.864-1.454-.977zm105.238 58.091c.74-.42 2.412-.663 2.33-.337-.055.218-2.691 1.025-2.92.893-.106-.06.16-.31.59-.556zM60.995 51.84c.075-.306.534-.546.778-.406.114.066.058.28-.125.477-.338.363-.748.318-.653-.07zm1.735-.953c-.31-.45-.295-.464.208-.21.298.15.466.395.374.543-.092.149-.186.243-.208.21l-.374-.543zm112.992 60.438c.273-.155.385-.346.248-.424-.486-.278.288-.417 2.137-.383 1.08.02 2.209.223 2.656.478.46.263 1.038.362 1.418.243.354-.11.831-.098 1.062.027.232.125.835.227 1.342.227 1.114-.001 3.612-.955 3.73-1.425.056-.22.41-.313 1.055-.278.534.028 1.151-.05 1.371-.175.708-.4 1.287-.196 1.367.484.043.364.293.674.556.689.262.015.28.139.037.275-.564.32-2.791-.006-3.04-.442-.155-.273-.342-.212-1.043.341-.47.371-1.37.837-2.001 1.036-.63.2-1.618.554-2.195.788-.843.342-1.273.346-2.203.02-.636-.223-1.444-.402-1.796-.397-.434.006-.627-.14-.6-.455.035-.383-.024-.412-.337-.163-.209.166-.517.232-.685.145a1.546 1.546 0 0 0-.7-.126c-.217.017-.465-.091-.55-.24-.084-.15-.52-.133-.968.037-.938.357-1.603.14-.861-.282zm2.534-.1c.028-.11-.175-.24-.45-.287-.304-.054-.323.025-.05.199.248.158.473.197.5.088zm-61.4-48.79c.406-.059.82-.236.918-.393.099-.157.291-.222.427-.145.135.077.393-.015.571-.203.212-.224.565-.26 1.014-.103.658.23.68.221.483-.194-.25-.526.08-1.576.588-1.876.202-.12.672-.246 1.042-.282.814-.077 2.011.534 1.34.684-.258.058-.29.208-.07.333.271.153.184.3-.267.449-.456.151-.756.684-.942 1.674-.397 2.113-.852 2.157-5.044.483-.663-.264-.673-.337-.06-.426zm-.771-2.202c.885-.497 3.053-.514 3.326-.025.136.24-.06.442-.646.66-1.342.503-2.076.542-2.771.148-.519-.295-.5-.452.09-.783zM52.92 24.423c.125-.51.515-.728.908-.505.176.1.096.383-.178.628-.56.503-.87.45-.73-.123zm-12.337-12.73c.09-.149.326-.18.523-.068.197.111.22.288.05.392-.168.104-.404.134-.522.067-.12-.067-.142-.244-.051-.392zm61.996 34.69c.094-.15-.117-.436-.47-.635-.591-.334-.53-1.696.159-3.478.304-.788 1.337-1.308 2.393-1.204 1.47.145 1.638.043.562-.34-1.211-.432-1.045-1.046.287-1.06.802-.01.816-.04.18-.398-.511-.287-.527-.404-.062-.451.465-.047.637-.261.664-.828.078-1.587-.205-1.97-2.501-3.39-2.583-1.594-3.229-2.157-2.637-2.295.227-.053.185-.334-.094-.625-.804-.84.066-.774 2.34.179 1.16.485 1.92.715 1.692.51-.667-.599.019-.731 1.356-.261.68.239 1.535.442 1.9.452.895.025-.324-.371-4.173-1.355-1.677-.429-3.3-.921-3.609-1.094-.308-.173-.634-.198-.723-.054-.09.143-.794.108-1.566-.078-1.058-.254-1.324-.248-1.088.027.219.255-.157.234-1.26-.07-.864-.237-1.345-.289-1.069-.114.684.432.07.742-.933.472-1.505-.406-5.448-3.114-5.372-3.689.038-.29-.23-.804-.595-1.144-.483-.448-.503-.673-.071-.822.402-.138.437-.292.11-.476-.265-.149-.406-.393-.313-.543.098-.159.465-.107.877.124.39.219.632.52.538.67-.093.15.053.41.326.576.477.293.468.3-.249.203-.588-.08-.553.014.168.45.501.302.974.822 1.05 1.154.154.666 2.33 1.996 3.516 2.15.53.067.424-.032-.358-.337-.61-.238-1.398-.754-1.751-1.147s-.442-.619-.197-.502c.245.118.578.134.739.037.16-.097.541-.11.846-.029.304.082-.15-.244-1.008-.723-1.513-.845-2.716-2.466-2.105-2.836.289-.174 2.07.296 2.535.67.161.13.534.463.828.74.526.495.531.494.312-.05-.216-.54-.184-.543 1.096-.124 3.853 1.258 14.964 7.168 14.603 7.77-.181.304 7.375 4.495 8.157 4.524 1.04.039 6.759 2.739 9.43 4.453 2.464 1.582 4.782 3.502 3.466 2.871-.258-.124-.55-.098-.648.057-.115.183.77.727 2.522 1.548 3.162 1.483 3.417 2.168.45 1.212-1.899-.613-3.397-.702-4.163-.248-.224.132-.344.36-.268.507.077.146-.13.128-.459-.041-.441-.226-.64-.21-.763.066-.24.543-1.253 1.062-1.642.843-.185-.104-.414-.065-.509.086-.102.161-.503.091-.975-.171-.44-.245-.787-.314-.77-.154.018.16-.217.527-.522.815-.418.395-.65.47-.945.303-.215-.12-.46-.112-.542.02-.169.267-3.166-.446-5.257-1.251-.75-.29-1.969-.563-2.709-.61-.739-.046-1.87-.27-2.512-.497-1.81-.64-2.295-.712-2.799-.411-.256.153-.716.235-1.021.183-.305-.053-1.19.108-1.967.356-1.068.341-1.556.37-2.005.115-.326-.184-.516-.458-.422-.608zm18.436 2.48c.304-.182-.262-.678-.667-.586-.247.057-.227.228.046.381.272.154.551.245.62.204zm-24.11-21.786c-.073-.143-.388-.325-.699-.406-.31-.081-.25.035.134.258.385.223.64.29.566.147zm-11.133 8.7c.093-.15.34-.175.55-.056.21.118.175.263-.079.322-.253.06-.5.085-.55.057-.05-.028-.014-.173.079-.323zm-1.571-1.251c.198-.318 1.332-.07 1.248.272-.042.172-.34.22-.727.118-.361-.095-.596-.27-.521-.39zM40.782 9.264l-.328-.475.648.33c.357.181.574.45.483.6-.187.306-.337.22-.803-.455zm43.058 24.05c-.116-.174.1-.314.827-.537l.983-.301.761 1.16c.419.638.656 1.224.528 1.301-.242.146-2.821-1.207-3.099-1.624zm33.844 19.115c-.427-.323-.578-.632-.336-.687.242-.055.247-.211.01-.348-.364-.21-.327-.245.242-.229.561.016.596-.024.216-.243-.25-.144-.266-.281-.035-.304.231-.022 1.477.534 2.77 1.237 1.716.934 2.322 1.403 2.24 1.734-.096.387-.294.426-1.356.261-1.619-.25-2.791-.695-3.751-1.42zM39.463 7.367c-.434-.902-1.243-1.671-1.555-1.478-.16.099-.306.091-.324-.018-.055-.343 2.312-1.46 2.669-1.259.498.282 1.096 1.68.876 2.05-.14.237-.093.269.164.113a.565.565 0 0 1 .654.075c1.023 1.011 1.172 1.244.902 1.41-.166.103-.56.04-.876-.138-.357-.201-.748-.216-1.035-.04-.527.327-1.11.043-1.475-.715zm1.948-3.916c.169-.105.589-.029.934.168.488.28.485.357-.016.349-.837-.013-1.307-.277-.918-.517zm120.64 67.833c-.192-.504.155-.957.559-.73.11.062.677.085 1.26.051 2.749-.158 5.006.376 9.031 2.142 2.863 1.256 1.958 1.495-1.163.309-2.45-.932-6.278-1.575-7.238-1.218-.24.089-.346.398-.236.687.177.465.073.454-.908-.099-.61-.343-1.197-.857-1.306-1.142zm69.125 38.998c.187-.105.52-.09.74.033.22.124.174.27-.1.327-.275.056-.608.04-.74-.034-.133-.074-.088-.221.1-.326zM82.104 25.844c-.472-.79-.413-1.185.133-.879.223.126.481.106.574-.043.105-.168.63-.013 1.373.404.744.418 1.029.72.745.787-.253.06-.348.171-.21.248.476.269-.626.666-1.341.484-.833-.212-.774-.165-1.274-1.001zm129.822 71.427c.394.13.906.419 1.14.64.232.222-.09.115-.717-.237-.626-.353-.817-.534-.423-.403zM77.37 20.796c.335-.08.13-.331-.617-.759-1.054-.604-1.063-.641-.162-.672.949-.032 2.201.709 3.067 1.814.248.317.408.355.547.13.267-.43 1.379-.22 1.266.24-.05.202.153.503.45.67.696.39.134.742-.75.47-1.843-.568-4.277-1.78-3.8-1.893zm6.753 3.262c-.282-.8.203-.855 1.439-.162 1.272.715 1.36 1.013.349 1.173-.8.127-1.535-.29-1.788-1.011zm2.3 1.425c.253-.06.713.033 1.022.207.31.173.486.438.393.588-.101.162-.514.079-1.023-.207-.508-.286-.667-.523-.392-.588zm124.709 70.214c.146-.578.757-.464 2.37.443 1.877 1.054 2.414 1.61 1.701 1.758-.509.106-4.156-1.866-4.071-2.201zm5.138 2.76c.212-.325 1.12.186 1.65.928.31.435.203.425-.734-.07-.604-.318-1.016-.704-.916-.858zM74.017 17.817c-.035-.255.246-.281 1.062-.099 2.033.453 3.238 1.01 2.785 1.285-.254.154-.923.067-1.717-.224-.716-.262-1.477-.508-1.692-.546-.214-.039-.411-.226-.438-.416zm72.028 39.788c-.224-.215-.3-.454-.17-.53.13-.077.04-.465-.204-.861-.47-.769-.14-1.216.642-.867.261.116.897.405 1.414.64.517.236 2.052.93 3.41 1.543 2.682 1.21 4.338 2.448 3.22 2.407-.356-.013-1.204-.33-1.884-.703-1.217-.669-3.972-1.207-5.001-.977-.535.119-.702.043-1.427-.652zM80.201 19.6c.453-.049 1.043.034 1.31.184.276.155.283.398.016.56-.331.2-.721.146-1.31-.185-.745-.419-.747-.48-.016-.56zm69.705 39.313c.416-.244 1.645.446 1.712.96.036.287-.23.237-.995-.189-.573-.319-.897-.666-.717-.771zM85.02 22.127c-.91-1.003-.442-1.1.819-.169 1.276.942 1.589 1.914.375 1.164a6.702 6.702 0 0 1-1.194-.995zm105.142 57.912c-.335-.837-.308-.877.443-.68 2.09.548 4.124 2.42 3.202 2.949-.674.386-3.218-1.198-3.645-2.27zm-24.63-14.31c-.052-.365-.111-.379 1.566.37.717.32 1.174.657 1.016.749-.375.218-2.524-.714-2.582-1.119z" style="fill:url(#f);fill-opacity:1;stroke-width:.247997"/>
  <path id="path15" d="M11.584 84.378c-.901-1-.973-3.127-.108-3.206.147-.013.515-.29.816-.614.408-.438.822-.646 1.615-.813.586-.123.971-.28.855-.348-.122-.072.288-.295.96-.523.687-.233 1.233-.29 1.315-.14.088.163.39.108.81-.147.49-.298.508-.371.063-.274-1.899.415 2.624-1.836 5.777-2.875.868-.286 2.312-.905 3.208-1.374.897-.47 2.66-1.334 3.917-1.919 1.26-.585 2.918-1.48 3.686-1.987 1.355-.896 1.391-.967 1.177-2.35-.193-1.252-.034-1.676 1.293-3.45.832-1.114 1.55-2.249 1.595-2.523.115-.706.91-1.245 2.05-1.388.572-.071.87-.186.714-.276-.642-.373 2.506-1.378 5.107-1.63 1.37-.132 3.869-2.422 2.95-2.704-.257-.08-.606-.03-.777.11-.375.309-1.042-.02-.808-.397.09-.148-.036-.385-.282-.527-.246-.142-.305-.344-.132-.449.174-.105.189-.42.033-.7-.156-.28-.096-.622.133-.76.69-.417.686-1.575-.01-2.232-.359-.34-.613-1.012-.565-1.493.068-.679-.108-.935-.787-1.144-.607-.186-1.1-.7-1.612-1.678-1.004-1.915-1.023-2.815-.066-3.21.551-.229.848-.696 1.1-1.734.191-.781.405-1.456.476-1.5.071-.042.228-.545.348-1.116.121-.57.425-1.37.677-1.777.456-.737.29-1.168-.311-.803-.175.106-.604.856-.955 1.668-.35.811-.758 1.548-.906 1.638-.147.09-.324.463-.391.83-.068.366-.271.681-.451.7-.466.047-.436-1.278.034-1.575.216-.135.319-.567.23-.959-.11-.48.045-.792.475-.956.35-.134.602-.399.56-.588-.043-.19.28-.83.717-1.423.544-.738.673-1.283.409-1.726-.268-.448-.085-1.193.593-2.416.957-1.728 1.027-1.794 2.995-2.826 2.83-1.483 3.274-1.956 3.015-3.213-.15-.724-.052-1.074.299-1.062.36.013.714-.734 1.138-2.4.512-2.015.491-2.49-.128-2.84-.408-.23-.83-.702-.938-1.048-.108-.345-.784-1.12-1.501-1.723-.717-.601-1.364-1.179-1.438-1.283-.074-.105-.494-.214-.934-.244-.44-.03-1.233-.185-1.763-.346-.77-.233-.866-.352-.475-.592.408-.25.353-.304-.337-.324-.455-.013-.842.04-.861.119-.02.078-.319.188-.665.245-.485.078-.474.143.05.279.495.129.533.233.142.381-.713.27-1.635-.043-1.375-.467.154-.25-.268-.363-1.695-.45-1.044-.064-2.099-.23-2.343-.368-.245-.139-.797-.278-1.227-.31-.43-.031-.961-.215-1.18-.407-.315-.277-.122-.292.912-.074 2.293.485 3.95.653 4.504.458.364-.128.356-.294-.023-.513-.31-.177-.808-.465-1.108-.638-.3-.174-.4-.474-.225-.666.177-.193.11-.385-.15-.428-.26-.042-.457-.42-.439-.84.03-.705.1-.771.943-.889.5-.07 1.413.053 2.027.272 1.387.495 1.766.07.458-.513-.88-.394-1.96-1.81-1.424-1.87.637-.071 2.706.724 2.636 1.013-.042.173.126.354.373.402.248.047.222-.414-.057-1.024-.52-1.138-.156-1.554.858-.983.314.177.994.332 1.51.345 1.484.037 4.409 1.153 5.332 2.036.446.427 1.713 1.388 2.815 2.136 1.103.749 2.55 1.826 3.216 2.393.882.753 1.992 1.334 4.089 2.142 1.585.61 2.901 1.221 2.925 1.358.023.136.698.647 1.5 1.136.803.49 1.825 1.255 2.27 1.701.663.664.84.74.967.42.123-.309.37-.302 1.172.036.85.357.821.306-.172-.304-.727-.447-1.01-.773-.731-.84.251-.06.287-.204.078-.321-.208-.118-.172-.262.08-.322.722-.173.1-.369-.741-.234-.817.13-1.498-.16-2.346-1-.648-.642-.541-.719 1.338-.962 1.434-.187 1.518-.161 2.93.883.8.592 1.606 1.387 1.791 1.766.186.38.877 1.01 1.535 1.4.658.39 1.187.873 1.174 1.072-.016.27.065.27.314 0 .243-.26.602-.279 1.283-.064 1.391.44 1.424.49.59.924-.594.31-.686.603-.419 1.325.297.8.238.936-.424.992-.544.046-1.108-.184-1.932-.788l-1.162-.852 1.09 1.122c1.29 1.328 2.393 2.023 2.99 1.883a.433.433 0 0 0 .326-.521c-.092-.371-.008-.394.726-.196.47.127.897.459.985.767.145.51.114.536-.503.419-.56-.107-.63-.077-.477.199.1.178.534.32.964.313.71-.01.761-.064.546-.577-.233-.555.472-1.285.97-1.005.149.084.459-.06.761-.352.665-.644 1.418-.614 2.718.11 1.112.62.67 1.1-.666.723-1.025-.29-1.598 0-1.318.667.131.311.032.615-.22.674-.252.06-.293.2-.092.314.202.114.218.298.034.409-.183.11-.138.208.1.216.588.021 1.08.767.583.883-.817.192-.266.63.702.558 1.535-.116 1.971-.522 1.1-1.026-1.357-.786-.66-2.09 1.051-1.96 1.1.085 2.172.723 1.483.885-.378.088-.334.16.146.24 1.618.267 2.332.651 2.405 1.294.042.364.37.757.729.873.55.178.56.15.06-.173-.953-.616-.371-.996.642-.42.774.44 1.444 1.491.738 1.158-.393-.186.673 1.34 1.697 2.428 1.011 1.074 1.12 1.563.402 1.81-.293.102-.117.667.455 1.46l.932 1.295-1.236-.025c-1.129-.024-1.26-.088-1.515-.738-.153-.392-.5-.756-.772-.81-.319-.063-.387.172-.194.665.164.42.067.946-.215 1.17-.446.356-.586.335-1.088-.161-.537-.532-.575-.533-.58-.025-.003.332-.13.48-.324.376-.614-.324-1.803-1.869-1.875-2.436-.04-.315-.586-.886-1.212-1.268-1.368-.836-1.055-1.335.421-.67.995.448 2.55.532 3.152.17.542-.325-.077-.773-.946-.684-.993.102-1.727-.188-1.231-.486.179-.108.694-.139 1.143-.068.578.09.709.059.444-.107-.206-.128-.28-.331-.167-.45.23-.24-.208-.627-1.38-1.223-.705-.359-.847-.34-1.625.216-.765.546-.973.578-2.026.315-.644-.16-1.189-.396-1.21-.524-.02-.127-.672-.179-1.447-.115-.775.064-1.792.008-2.26-.125-.467-.134-.988-.159-1.158-.056-.17.102-.5.077-.734-.055-.47-.265-3.228-.022-3.82.337-.207.125-.22.314-.032.42.189.108.174.43-.032.716-.207.286-.139.655.151.819.29.164.846.809 1.235 1.433.39.624 1.027 1.316 1.418 1.537.547.31.57.487.1.77-.336.202-.749.753-.919 1.223-.285.792-.242.848.594.767.738-.072.979-.192 1.318-.66.228-.316.477-.571.554-.568.077.004.627.054 1.222.111 1.281.124 2.269-.38 2.075-1.06-.1-.35.036-.511.494-.582.348-.054 1.026-.362 1.508-.684.876-.586.876-.586 1.987.164 1.568 1.06 2.217 2.186 1.548 2.69-.301.226-.448.65-.325.943.188.448.448.52 1.666.457l1.444-.074-.316 1.186c-.173.653-.464 1.268-.645 1.368-.182.1-.132.542.11.983.725 1.319.606 1.988-.453 2.563-1.577.855-1.704 1-1.15 1.316.555.315.163 1.344-.576 1.513-.48.11-1.808-.708-1.474-.908.12-.073-.165-.4-.634-.729l-.851-.597 1.833-.375 1.836-.376-.782-.18c-.43-.1-1.008-.163-1.285-.14-.277.021-.83-.143-1.228-.366-.555-.311-.713-.316-.676-.022.042.332-.006.354-.35.164-.617-.343-.804-.86-.347-.966.718-.166-.284-.518-1.91-.671-1.96-.185-2.28-.052-.51.212 1.718.257 1.951.654.691 1.177-.526.218-.842.436-.703.483.723.246 1.21.763.807.855-.645.149-.194.35.604.27.499-.049.638.026.57.307-.07.28-.303.336-.953.227-.474-.08-1.562-.252-2.419-.383-1.662-.253-1.944-.57-.68-.762 1.035-.158.9-.204-1.56-.535-2.066-.278-2.826-.181-2.537.322.093.16-.11.205-.544.121-.38-.073-1.095-.206-1.588-.296-.493-.09-1.5-.017-2.239.162-.737.179-1.357.227-1.376.107-.02-.12-.45.098-.957.485-.816.624-1.04.686-1.964.55-.572-.086-1.809-.121-2.747-.08l-1.704.075-1.102 1.138c-1.339 1.383-2.082 1.853-2.526 1.599-.402-.23.117-1.315.836-1.749.283-.17.53-.486.55-.7.046-.529-2.425-2.413-2.662-2.03-.28.45-1.125.17-1.709-.566-.472-.596-.741-.68-2.266-.71-1.053-.021-1.912.103-2.197.316-.257.194-1.07.625-1.806.959-1.057.479-1.485.82-2.037 1.626-.384.56-.55 1.193-.368 1.406.484.567 2.008.896 2.984.643 1.195-.31 1.673-.283 2.414.135.587.332.554.405-.358.792-.551.234-1.216.467-1.478.517-.26.05-.845.247-1.297.438-.763.321-.746.39.248.968 1.539.894 1.481 1.136-.507 2.131-2.17 1.086-2.432 1.852-.823 2.4.67.229 1.031.509 1.007.781-.03.35.257.389 1.61.222.906-.111 1.856-.083 2.11.064.255.147.667.22.916.163.717-.164 1.003.155.34.379-.708.24-.498.432.38.347.469-.045.64.099.695.582.079.703 1.04 1.415 2.442 1.808.642.18.751.287.38.37-.286.066-.409.183-.274.261.136.078.386.058.557-.044.17-.102.426-.12.568-.038.141.082-.012.239-.34.35-.328.11-.613.398-.634.638a19.6 19.6 0 0 1-.2 1.35c-.117.662.08 1.05.728 1.424 1 .578 1.132 1.67.299 2.466-.292.278-.514.626-.495.772.023.18-.223.305-.759.383-.678.1-.723.157-.314.394.264.153.403.4.31.55-.094.15.013.282.236.293.224.01.564.45.757.978.193.528.711 1.31 1.153 1.74.442.429.788 1.124.77 1.546-.018.421.107.846.277.945.442.257-.325 1.197-1.303 1.597-.457.187-1.957.515-3.332.73-1.374.214-2.835.59-3.248.836-1.176.7-4.439 1.881-5.788 2.095-.688.11-1.86.027-2.677-.188-1.901-.5-3.567-.453-4.54.127-.494.295-2.119.657-4.509 1.003-3.718.54-3.73.539-4.547-.113l-.819-.653-.39.677c-.375.652-.44.68-1.743.74-.845.04-1.641-.106-2.122-.389-.624-.367-.912-.383-1.528-.084-.58.281-.902.28-1.372-.008-.357-.219-.778-.278-1.006-.14-.216.129-.216.342-.001.473.343.21.267.243-.613.272-.553.018-1.306.14-1.676.27-.369.13-.827.144-1.019.032-.467-.276-1.04.1-1.036.68.002.435-.151.483-1.947.619-1.078.081-2.15.303-2.402.498-.585.45-.875 1.726-.449 1.979.18.106.176.285-.01.397-.186.111-.461.05-.611-.135-.15-.185-.512-.363-.804-.394-.292-.031-.743-.293-1.004-.581zm42.944-26.833c.174-.19.045-.178-.327.032-.336.19-.464.332-.284.314.18-.017.455-.173.611-.346zm.003-30.84c.11-.539.096-.537-.33.035-.245.328-.297.582-.116.563.182-.02.382-.289.446-.598zm20.712-3.733c.209-.127-.237-.462-1.22-.916-2.134-.986-2.567-.833-.67.236.936.528 1.692.8 1.89.68zm-56.93 62.496c.243-.054.743.079 1.11.296.368.217.531.477.364.577-.167.1-.667-.033-1.111-.296-.48-.284-.628-.518-.364-.577zm66.94 37.892c.093-.372.753-.36 1.064.019.168.204.121.41-.104.457-.475.099-1.033-.178-.96-.476zm53.768 29.138c-.398-.478.379-.678 2.197-.566.847.053 2.384.032 3.416-.047 1.032-.078 1.685-.033 1.451.099-.234.132-.238.253-.01.27.229.015.336.151.239.302-.218.337-2.558.723-2.979.49-.169-.092-.766-.06-1.328.072-1.645.387-2.252.261-2.986-.62zm-8.682-8.597.595-.77.975.574c.867.511.89.624.2 1.013-.697.394-1.561.426-2.148.08-.12-.07.051-.474.378-.897zm16.636 8.71c.344-.193.55-.466.457-.607-.13-.2.031-.282.723-.366.778-.094.963-.241 1.452-1.156.759-1.419 1.205-1.36.8.105-.319 1.156-.247 1.397.51 1.714.623.26-.314.558-2.284.724-2.166.183-2.551.087-1.658-.414zm-15.735-11.08c-.315-.262-.348-.921-.082-1.612.273-.708.243-1.21-.075-1.273-.433-.085-.353-.145.448-.334 1.168-.276 1.095-.387-.192-.294-.88.064-.915.007-.53-.839.282-.62.185-1.117-.304-1.569-.777-.717-3.275-1.587-4.84-1.686-.538-.034-1.367-.29-1.843-.57-.475-.28-1.424-.572-2.108-.65-1.02-.118-1.298-.256-1.554-.773-.3-.608 0-1.1.494-.81.405.237 1.45-.514 2.697-1.94 1.827-2.086 3.855-3.075 5.803-2.827 2.147.273 3.352.525 3.82.799.27.157 1.043.101 1.956-.143.831-.221 1.82-.329 2.197-.238.377.09.819.09.98-.003.163-.092.818-.144 1.457-.115 1.007.046 1.185.135 1.338.665.155.537.272.59.946.437 1.266-.288 2.543-.325 2.584-.073.022.13.268.106.548-.053.569-.323 1.06-.166.792.252-.096.15.203.493.665.762.913.532.634.849-.959 1.089-.89.134-.954.238-.8 1.313.27 1.866.44 1.87 4.262.096.932-.433 1.854-.777 2.05-.764.386.024-.454 1.124-1.164 1.526-.24.136-.313.398-.162.583.157.193-.175.742-.777 1.285-.668.602-1.187 1.535-1.426 2.56-.206.887-.476 1.67-.6 1.74-.123.07-.243.396-.265.725-.082 1.2-3.715 3.345-6.054 3.577-.514.05-1.852.347-2.972.658-1.432.398-2.178.482-2.514.285-.262-.155-.87-.306-1.35-.337-.67-.043-.85-.145-.776-.44.053-.213-.183-.424-.531-.475-.345-.051-.867-.291-1.16-.535zm-61.167-39.44c.054-.22.433-.595.843-.835s1.113-1.08 1.564-1.865c.454-.791 1.372-1.838 2.056-2.345.68-.504 1.697-1.54 2.259-2.3 1.206-1.632 2.095-2.205 4.356-2.802 2.77-.731 4.9-2.494 5.928-4.909.43-1.008.564-1.119 2.284-1.89 2.155-.965 2.528-1.611 1.19-2.064-.597-.202-.695-.403-.395-.812.31-.423.174-.67-.61-1.114-.554-.313-1.47-.606-2.035-.652-.665-.055-1.348-.34-1.939-.81-.523-.418-1.282-.761-1.78-.807-1.422-.13-1.48-.99-.321-4.75.496-1.613 1.411-2.551 2.872-2.945 1.36-.366 2.992-1.31 3.112-1.797.068-.276.454-.465 1.542-.755 3.521-.936 4.75-1.11 6.871-.968 1.005.068 1.648-.063 2.682-.546 1.035-.482 1.647-.607 2.554-.519 2.234.216 4.037-.771 2.275-1.247-.507-.137-.518-.3-.043-.687.768-.626 3.698-2.236 4.146-2.278.181-.017 1.097.44 2.036 1.014 1.662 1.017 1.735 1.034 2.695.644 1.269-.515 1.435-.808.98-1.733-.453-.918.015-.972 2.296-.263.963.3 2.09.495 2.504.435.414-.06.882-.036 1.04.054.159.09.886.084 1.615-.013.95-.126 1.572-.038 2.184.31.848.48.867.477 1.822-.264.866-.673 1.065-.732 1.939-.577 1.164.207 1.267.253.913.418-.8.373-.968.661-.528.91.523.297.818.045 1.438-1.223.247-.507.16-.586-.73-.662-.556-.047-1.275-.291-1.598-.542-.488-.379-.425-.586.367-1.215 1.17-.931 1.872-1.054 3.54-.62.7.181 2.645.31 4.324.287 3.705-.051 6.685.298 7.859.923.48.255 1.193.495 1.584.532 1.222.116 3.827 1.687 3.588 2.164-.116.232-.06.524.123.648 2.017 1.358 3.67 3.472 3.013 3.854-.658.383-1.772.03-3.074-.974-.643-.496-1.167-.766-1.165-.602.002.165-.183.489-.41.721-.227.232-.238.52-.025.641.231.13.47.09.59-.098.147-.23.424-.123 1.015.394.536.47.874.616.992.43.206-.324 1.845-.092 2.68.38.476.268.676.228 1.304-.257.697-.539.77-.54 1.214-.036.604.69.55.856-.272.823-.507-.02-.51.063-.01.35.36.205.834.335 1.053.287.709-.155 3.678.928 5.682 2.074 1.635.934 2.03 1.064 2.396.786.51-.387 1.385.222 2.793 1.945.461.564.994 1.012 1.184.995.19-.017.186-.219-.009-.448-.333-.392-.285-.5.445-.993.16-.108 1.002-.199 1.87-.201 1.933-.007 3.298.842 2.065 1.284-.404.145-.715.385-.69.535.026.15-.166.318-.425.374-.26.056-.56.318-.667.583-.166.406-.383.486-1.395.516-1.424.04-1.004.432.459.427.808-.003 1.011-.09 1.318-.561.2-.307.657-.653 1.017-.769.383-.123.522-.286.335-.392-.19-.106.179-.215.903-.265 1.194-.082 1.807.326.812.54-.285.062-.093.144.45.192.521.046 1.312.348 1.757.673.685.499.88.528 1.279.188.413-.353.666-.29 2.129.533.99.556 1.73.827 1.83.67.26-.404 2.35.253 6.208 1.95 1.923.845 3.737 1.53 4.03 1.522.291-.01.882.102 1.31.247.442.15.262-.055-.416-.472-1.107-.68-1.123-.735-.22-.743 1.11-.01 2.476.662 2.553 1.255.046.353.007.374-.343.197-.217-.11-.283.176-.145.636.163.547.616.98 1.306 1.249.581.226 1.38.797 1.774 1.27.669.8.653.858-.234.855-.522-.001-1.23-.16-1.572-.352-.741-.417-.937-.06-.252.46.265.2.512.41.55.468.036.057.59.381 1.228.72.64.34 1.686 1.057 2.327 1.592.641.535 1.292.902 1.446.814.385-.22 2.191.834 2.58 1.506.176.302.091.68-.187.838-.596.338.044 1.202.92 1.242.334.016 1.448.548 2.475 1.184 1.427.883 1.956 1.09 2.238.872.534-.412 5.364 2.524 5.967 3.629.258.471 1.257 1.278 2.337 1.886 1.37.771 1.811 1.169 1.608 1.45-.204.28.348.778 2.016 1.816 1.264.787 2.373 1.615 2.464 1.84.125.307.314.325.763.073.54-.302.798-.2 2.68 1.06 2.73 1.828 2.841 2.218.906 3.187-1.231.616-1.63.705-2.288.51-.722-.215-.802-.19-.842.255-.068.746-.555.876-1.428.384-.432-.245-1.97-.705-3.417-1.024-1.445-.318-2.854-.71-3.13-.869-1.4-.808-3.606-1.46-4.66-1.378-1.045.082-1.12.117-.728.339.536.303-.382.868-1.173.722-.315-.058-.785.014-1.044.159-.258.145-.644.166-.857.045-.213-.12-.68-.129-1.038-.017-.358.11-.768.135-.91.054-.143-.08-.947-.079-1.786.005-1.322.132-1.483.095-1.211-.28.172-.237.936-.863 1.698-1.391 1.095-.759 1.624-.987 2.509-1.081.616-.066 1.26-.041 1.43.055.322.182 5.197.546 6.224.465.385-.03.437-.13.153-.29-.237-.134-.568-.167-.736-.072-.468.263-2.767-.275-2.45-.573.144-.135-.075-.435-.486-.668-.82-.464-2.987-.65-3.229-.279-.224.345-2.443-.48-2.343-.87.05-.196-.929-.83-2.392-1.552-2.276-1.122-2.71-1.235-5.47-1.43-1.648-.115-3.188-.17-3.425-.12-.523.108.234 1.043.874 1.078.252.013.495.34.54.724.076.642.152.688.922.561.992-.163 1.006.137.033.69-.384.218-.96.736-1.282 1.152-.718.928-.756.95-1.204.695-.505-.286-1.407-.058-1.52.384-.141.561-.571.704-1.142.38-.462-.264-.325-.393 1.38-1.3 1.042-.555 1.923-1.118 1.956-1.25.078-.309-1.202-.054-2.016.4-1.355.758-8.634 1.209-9.176.57-.393-.464-2.096-.712-2.667-.388-.238.136-.86.202-1.382.148a16.776 16.776 0 0 0-1.135-.092c-.102.004-.288.332-.412.73-.317 1.013-1.537 1.647-2.736 1.422-1.482-.278-1.51-.397-.265-1.104.848-.482 1.052-.721.759-.889-.275-.157-.16-.321.366-.522.972-.371.732-.835-.556-1.075-1.175-.22-1.209-.476-.082-.625 1.235-.164.44-.493-1.145-.474-.698.008-1.442-.077-1.655-.189-.261-.137-.391.026-.402.505-.01.438.219.728.598.76.721.06 1.344.686.922.926-.161.092-.408.1-.55.02-.14-.08-.767-.166-1.39-.19l-1.133-.045-.486 1.016c-.553 1.155-2.376 2.516-3.385 2.528-.362.005-1.483.162-2.49.35-1.856.347-4.65.268-5.38-.151-.22-.127-.73-.262-1.132-.302a12.49 12.49 0 0 1-1.377-.224c-.422-.1-.777-.017-1.024.238-.48.494-1.697.663-2.298.317-.554-.319-.169-.585.89-.614 2.011-.055 1.785-1.018-.249-1.06-1.473-.031-2.14.44-2.637 1.865-.625 1.792-2.043 2.545-4.81 2.558-2.182.01-2.694-.092-2.118-.422.456-.261.909-2.069.567-2.266-.145-.083-.116-.235.063-.338.79-.453-.183-.35-1.662.175-1.8.639-1.873.722-2.241 2.55-.114.566-.483 1.186-.82 1.379a3.906 3.906 0 0 0-1.004.877c-.525.704-1.082.715-1.205.024l-.1-.56-.247.772c-.136.424-.405.861-.598.971-.193.11-.423.555-.511.988-.102.496-.523.995-1.14 1.351-.873.503-.91.655-.348 1.404.347.462.905.893 1.24.956.334.064.694.42.8.792.105.371.31.845.456 1.054.6.86-.435.326-2.183-1.126-1.271-1.056-1.817-1.733-1.717-2.132.08-.322.05-.64-.066-.708-.315-.182.546-2.64 1.36-3.88.39-.595.875-1.66 1.077-2.365.327-1.146.43-1.258.96-1.057.35.131.554.75.496 1.5-.055.702-.04 1.312.034 1.354.243.141 2.59-2.42 2.6-2.839.007-.273.558-.71 1.639-1.298.896-.488 2.132-1.33 2.745-1.868.89-.784.986-1.003.476-1.089-1.113-.187-1.476-.467-1.005-.776.25-.164.678-.441.95-.615.272-.174.616-.701.764-1.172.148-.47.482-.977.742-1.127.26-.149.402-.31.317-.36-.522-.3-3.087-.76-4.01-.72-4.833.209-5.961.224-6.203.085-.152-.088-.39-.099-.53-.025-3.09 1.645-3.925 1.973-5.454 2.148-1.27.146-1.637.099-1.61-.206.02-.217.178-.477.351-.577.174-.1.62-.535.991-.967 1.978-2.3 2.88-3.203 4.038-4.04 1.154-.834 1.212-.955.59-1.254-.51-.245-.545-.51-.137-1.018.304-.378.434-.856.289-1.062-.145-.205-.111-.532.075-.726.254-.265-.107-.607-1.46-1.383-2.259-1.295-3.034-2.056-2.444-2.398.343-.199.21-.352-.528-.604-1.13-.386-1.45-1.096-1.101-2.43.238-.909-.225-1.193-1.107-.68-.257.149-.5.54-.538.87-.038.329-.27.715-.516.857-.265.154-.224.3.101.36.373.068.345.218-.087.469-.962.558.326 1.141 2.213 1.002l1.548-.115-.837.486c-.64.37-.746.63-.448 1.1.518.817-.046 1.353-1.592 1.512-.684.07-1.417.228-1.627.35-.21.122-.496.157-.634.077s-.762-.111-1.385-.07c-.624.04-1.524-.049-2-.198-.478-.15-1.136-.186-1.463-.08-.328.106-.74.115-.915.02-.176-.093-1.032-.258-1.903-.364-.87-.106-1.708-.26-1.863-.343-.155-.083-.898-.25-1.652-.371-1.235-.2-1.38-.173-1.493.281-.113.454.086.567 2.046 1.169 1.194.367 2.233.702 2.306.744.313.18-1.174.779-3.602 1.45-2.544.702-3.255.79-9.066 1.123-3.12.178-6.177.838-6.306 1.36-.044.178-.335.406-.647.507-.311.1-.73.46-.93.8-.2.339-1.084 1.1-1.963 1.69-1.393.936-1.762 1.087-2.885 1.181-.707.06-1.418.03-1.58-.064-.161-.094-.959-.124-1.773-.065-1.324.094-1.621.205-2.853 1.063-1.315.917-1.428.952-2.622.824-.899-.097-1.469-.004-2.044.331-.85.497-4.646 1.108-6.432 1.037-.579-.023-1.806-.356-2.728-.74-.921-.384-2.03-.799-2.464-.922-.471-.134-.75-.386-.691-.624zM116.394 89.7c.59-.426 1.26-1.12 1.487-1.543.228-.423.559-.853.736-.957.178-.103.261-.402.186-.664-.075-.262.136-.635.47-.83.333-.194.762-.736.953-1.204.191-.468.611-1.24.934-1.713.411-.604.409-.943-.01-1.135-.617-.282-.704-.218-1.388 1.03-.226.414-.57.844-.763.957-.193.112-.424.497-.513.855-.089.358-.516.857-.95 1.11-.99.577-1.955 2.243-2.14 3.691-.077.611-.125 1.126-.107 1.144.017.019.515-.315 1.105-.74zm-.124-13.916c.873-.51 1.987-.115 2.477.88.24.488 1.291 1.4 2.537 2.199l2.13 1.367 1.796-.475c2.922-.771 2.972-.967.608-2.395-2.236-1.35-2.406-1.976-.744-2.738.785-.36.82-.76.102-1.17-.208-.118-.44-.071-.556.114-.138.218-.308.187-.549-.099-.342-.407-.356-.4-.778.316-.296.501-.556.703-.831.644-.221-.048-.607.033-.857.18s-.563.206-.693.131c-.28-.16.936-2.293 1.678-2.946.283-.248.374-.81.203-1.248-.171-.439-.224-1.013-.118-1.276.106-.263.052-.558-.12-.655-.17-.098-.18-.313-.021-.478.198-.205.063-.228-.432-.073-.786.246-1.3 1.782-.709 2.119.18.102.181.27.005.374-.177.104-.172.274.01.377.182.104.242.413.131.686-.178.444-.235.447-.528.031-.232-.33-.386-.374-.527-.152-.109.173-.546.364-.97.425-.667.095-.71.03-.313-.473.387-.493.347-1.444-.119-2.803-.054-.159.12-.417.385-.573.377-.222.263-.354-.517-.6-.55-.173-1.59-.563-2.31-.865-.817-.344-1.463-.458-1.725-.304-.23.135-1.111.205-1.959.155-.938-.056-1.662.037-1.852.238-.476.503-2.537.55-3.59.084-.516-.229-1.059-.318-1.205-.198-.459.375.733 1.06 2.347 1.349 1.586.284 6.213 2.25 6.473 2.75.146.281-.872.954-1.73 1.143-.522.115-.332.853.423 1.646.28.294.485.736.455.982-.066.547.628 1.637 1.062 1.669.174.013.593-.14.932-.338zm8.84 2.494c.08-.127.437-.151.793-.054.356.097.532.244.39.326-.379.221-1.353-.003-1.183-.272zm-4.253-2.805c.092-.147.375-.055.663.215.674.635.573.84-.198.4-.345-.198-.554-.474-.465-.615zm-4.042-3.828c-.332-.637-.15-.7.88-.308.69.262.745.397.276.672-.649.38-.79.336-1.156-.364zm-.87-2.69c.275-.24.659-.45.853-.469a2.18 2.18 0 0 0 .733-.253c.21-.121.548-.21.75-.196.203.013-.204.408-.903.877-.937.63-1.358.804-1.602.664-.183-.104-.106-.385.169-.624zm11.385 5.766c.23-.05.93.081 1.554.293 1.074.365 1.632.673 4.367 2.408 1.503.953 2.153.598 1.686-.92-.282-.919-.21-1.15.39-1.235 1.029-.145 1-.448-.07-.747-.841-.235-.904-.218-.894.247.009.462-.063.478-.943.207-1.053-.324-1.26-.684-.61-1.064a.401.401 0 0 0 .113-.625c-.23-.273-.901-.296-2.483-.084-2.305.308-2.68.428-2.614.83.065.394-.457.598-1.087.427-.514-.139-.534-.129-.2.1.204.14.56.214.79.163zm4.194-8.988c.517.234 1.097.49 1.29.57.192.078.623-.017.957-.213.838-.49 2.034-.496 2.378-.01.293.414.976.234.897-.236-.093-.561.908-.416 2.21.321 1.03.582 1.396.682 1.466.401.066-.267-.335-.513-1.405-.861-1.726-.561-2.245-1.269-1.327-1.806.33-.193.683-.43.784-.527.102-.097 1.104-.1 2.228-.007 1.732.143 2.003.108 1.765-.228-.332-.468-2.06-.829-2.563-.535-.192.113-.987.107-1.767-.013-1.753-.269-2.43-.135-2.65.526-.192.578-1.367 1.06-1.878.77-.186-.104-.61-.03-.945.166-.806.473-1.583.479-3.311.024-1.022-.269-1.41-.478-1.349-.727.121-.488-.214-.62-.76-.3-.734.432-.197.795 3.98 2.685zm-42.1 40.494c-.063-.457 1.877-1.857 2.735-1.973.403-.054 1.11-.346 1.57-.648 1.463-.959 1.932-1.117 2.669-.903.787.229 2.582.17 3.834-.124 1.025-.242.914.209-.286 1.168-.632.505-.917.638-.949.442-.028-.17-.3-.132-.69.095-.354.205-2.024.862-3.71 1.458-3.578 1.264-5.046 1.402-5.173.485zm66.203 35.485c.043-.547.21-.802.439-.669.372.216.41 1.46.05 1.661-.387.217-.557-.128-.489-.992zm8.998 2.422c.182-.102.559-.051.838.112.28.163.292.34.027.392-.266.053-.643.002-.838-.112-.196-.114-.208-.29-.027-.392zm1.977.023c.902.048 1.229.24.618.36a1.468 1.468 0 0 1-.895-.151c-.357-.212-.318-.242.277-.21zm-5.653-4.45c.192-.107.368-.079.392.063.023.142-.022.294-.102.339-.08.045-.256.017-.391-.062-.136-.08-.09-.232.101-.34zm.58-3.426c.191-.107.367-.08.39.062.025.142-.021.295-.101.34-.08.044-.256.017-.392-.062-.135-.08-.09-.232.102-.34zm-21.97-13.137c-.034-.203.127-.383.358-.4.23-.018.376.138.324.348-.123.494-.603.53-.682.052zm1.94 1.137c.51-.29 2.53-.11 2.858.254.247.275.122.303-.703.16-.552-.095-1.231-.126-1.51-.07-.633.13-1.07-.102-.645-.344zm13.089 6.856c.24-1.13-.078-1.453-1.185-1.202-.584.132-.897.03-1.357-.442a8.044 8.044 0 0 0-1.249-1.018c-.691-.429-.59-.62.37-.691 1.047-.078 1.358-.796.787-1.815-.307-.547-.737-1.05-.956-1.12-.36-.113-.08-.43.672-.764.155-.068.172-.383.039-.699-.284-.67.513-.741 1.569-.138.507.29.492.533-.07 1.08-.657.637-.611 1.231.064.848.152-.086.678-.097 1.17-.025 1.125.165 3.031 3.013 2.71 4.048-.117.371-.093.744.051.828.144.084.017.229-.283.321-.696.215-1.125 1.051-1.022 1.989l.082.732-.803-.464c-.556-.322-.737-.77-.59-1.467zm6.453 4.291c.363-.204 1.776-.219 1.726-.018-.084.333-.635.556-.682.276-.024-.141-.2-.17-.391-.061-.192.107-.46.131-.595.052-.135-.079-.162-.19-.058-.249zm-22.088-13.759c.26-.053.694.03.961.186.268.155.273.326.012.38-.262.054-.695-.03-.962-.185-.268-.156-.273-.327-.011-.38zm1.703.99c.105-.164.533-.053 1.08.28.722.442.75.528.137.429-1.053-.17-1.423-.386-1.217-.708zm21.225 11.591c.097-.15.288-.209.423-.13.136.079.167.266.07.417-.097.15-.288.21-.423.13-.136-.079-.167-.266-.07-.417zm-12.008-8.271c.28-.159.62-.225.754-.147.135.078.107.22-.063.317-.169.096-.508.162-.754.146-.245-.015-.217-.157.063-.316zm11.036 6.552c.307-.476.73-.37.525.133-.118.29-.288.406-.451.311-.144-.083-.178-.283-.074-.444zm-3.005-2.096c-.042-.33.04-.352.496-.14.301.14.685.315.852.39.168.073.739.101 1.269.062.901-.066.957-.1.867-.514-.053-.243.029-.374.183-.291.153.083.17.454.034.826-.134.371-.275.533-.312.36-.038-.178-.237-.218-.462-.091-.497.28-2.008.282-2.502.003-.205-.117-.397-.389-.425-.605zm-14.419-9.91c1.028-.794 2.562-1.43 3.794-1.574.649-.076 1.083.058 1.553.48.391.35.965.577 1.43.566.49-.012.65.054.432.179-.558.316-1.385.171-2.45-.43-.714-.402-1.132-.481-1.483-.281-.515.293-.42.37.916.741l.829.23-1.1.045c-1.056.042-1.122.076-1.66.836-.985 1.393-1.963 1.221-1.142-.2l.527-.911-.923.681c-1.23.91-1.92.562-.722-.362zm-2.251-1.479c.042-.17-.668-.837-1.442-1.355-.426-.285 1.073-2.145 1.952-2.42.36-.114.876-.078 1.149.08.272.158.639.205.814.105.176-.1.686-.076 1.134.054.448.13.933.168 1.078.086.144-.083 1.166-.161 2.27-.175l2.01-.024-.033.76c-.018.42-.131.705-.252.635-.12-.07-.668-.035-1.217.077-.837.17-1.063.312-1.4.876-.22.37-.506.613-.633.54-.29-.169-2.861.48-3.621.913-.312.178-.829.273-1.15.212-.71-.136-.715-.138-.66-.364zm7.601 3.87c.18-.101.596-.029.924.162.329.19.518.47.422.62-.103.159-.487.092-.924-.162-.412-.238-.601-.517-.422-.62zm2.045-1.444c.236-.314.685-.593 1.114-.692.65-.148.7-.118.527.31-.144.352-.378.498-.906.566-.391.05-.735.188-.765.306-.03.119-.124.175-.209.126-.085-.05.023-.326.24-.616zm2.486-3.308c-.078-.149.146-.434.498-.634.538-.306.505-.377-.202-.448-.671-.067-.74-.141-.338-.37.276-.157.663-.218.859-.137.196.082.496.21.667.286.17.075.709.127 1.196.115.766-.02.852.031.638.374-.344.552-1.081.926-2.138 1.088-.955.146-.962.144-1.18-.274zm-22.884-14.259c.706-.595 1.831-1.023 2.172-.826.336.193-.727 1.317-1.468 1.553-.991.315-1.418-.125-.704-.727zm22.446 10.7c.686-.112 1.355-.149 1.485-.08.131.068-.39.185-1.157.259-1.779.17-1.933.087-.328-.178zm2.29 1.311c.27-.154.4-.332.287-.397-.113-.065.016-.244.287-.398.27-.154.591-.222.714-.152.422.244-.015 1.065-.677 1.272-.844.264-1.259.044-.611-.325zm1.534.51c.15-.12.396-.316.545-.437.15-.12.426-.322.615-.447s.224-.382.078-.57a5.465 5.465 0 0 1-.46-.726c-.154-.304-.28-.296-.603.036-.29.299-.464.337-.598.132-.104-.16.162-.449.596-.647.43-.197.654-.433.495-.525-.2-.115.14-.35 1.112-.766 1.823-.78 1.98-.803 2.36-.351.334.396-.545 1.082-1.327 1.037-.824-.048-1.754.68-1.245.975.264.151.408.658.322 1.126-.134.723-.309.89-1.161 1.116-.552.146-.88.167-.729.047zm-97.7-62.33c-.617-.544-.486-1.09.17-.712.344.198.605.18.824-.055.232-.248.448-.243.78.019 1.278 1.009 1.405 2.132.16 1.416-.294-.17-.746-.297-1.004-.285-.258.012-.677-.16-.93-.383zm-2.407-1.829c.389-.234.635-.092.696.4.038.308-.053.324-.48.084-.288-.164-.386-.381-.216-.484zm5.573 3.206c.171-.103.468-.097.66.014.192.11.21.285.038.387-.171.103-.468.096-.66-.014s-.209-.285-.038-.387zm-43.765-26.09c.491-.301.957-.166.726.21-.08.132-.376.2-.658.152-.312-.053-.338-.195-.068-.362zm39.78 22.337c.25-.058.292-.198.093-.313-.2-.114-.251-.274-.116-.356.495-.297-1.057-1.81-1.932-1.883-.639-.053-.711-.109-.324-.251.914-.337 2.336.152 2.898.997.74 1.112 1.23 2.744.836 2.782-.573.057-1.943-.864-1.454-.977zm105.238 58.09c.74-.42 2.412-.663 2.33-.337-.055.218-2.691 1.025-2.92.893-.106-.06.16-.31.59-.556zM60.5 49.856c.075-.306.534-.546.778-.406.114.066.058.28-.125.477-.338.363-.748.319-.653-.07zm1.735-.953c-.31-.45-.295-.464.208-.21.298.15.466.395.374.543-.092.149-.186.243-.208.21l-.374-.543zm112.992 60.438c.273-.155.385-.346.248-.424-.486-.278.288-.417 2.137-.383 1.08.02 2.209.223 2.656.478.46.263 1.038.362 1.418.243.354-.11.831-.098 1.062.027.232.125.835.227 1.342.227 1.114-.001 3.612-.955 3.73-1.425.056-.22.41-.313 1.055-.278.534.028 1.151-.05 1.371-.175.708-.4 1.287-.196 1.367.484.043.364.293.674.556.689.262.015.28.139.037.275-.564.32-2.791-.006-3.04-.442-.155-.273-.342-.212-1.043.341-.47.371-1.37.837-2.001 1.036-.63.2-1.618.554-2.195.788-.843.342-1.273.346-2.203.02-.636-.223-1.444-.402-1.796-.397-.434.006-.627-.14-.6-.455.035-.383-.024-.412-.337-.163-.209.166-.517.232-.685.145a1.546 1.546 0 0 0-.7-.126c-.217.017-.465-.091-.55-.24-.084-.15-.52-.133-.968.037-.938.357-1.603.14-.861-.282zm2.534-.1c.028-.11-.175-.24-.45-.287-.304-.054-.323.025-.05.199.248.158.473.197.5.088zm-61.4-48.79c.406-.059.82-.236.918-.393.099-.157.291-.222.427-.145.135.077.393-.015.571-.203.212-.224.565-.26 1.014-.103.658.23.68.221.483-.194-.25-.526.08-1.576.588-1.876.202-.12.672-.246 1.042-.282.814-.077 2.011.534 1.34.684-.258.058-.29.208-.07.333.271.153.184.3-.267.449-.456.151-.756.684-.942 1.674-.397 2.113-.852 2.157-5.044.483-.663-.264-.673-.337-.06-.426zm-.771-2.202c.885-.497 3.053-.514 3.326-.025.136.24-.06.442-.646.66-1.342.503-2.076.542-2.771.148-.519-.295-.5-.452.09-.783zm-63.165-35.81c.125-.51.515-.728.908-.505.176.1.096.383-.178.628-.56.503-.87.45-.73-.123zM40.088 9.71c.09-.149.326-.18.523-.068.197.111.22.288.05.392-.168.104-.404.134-.522.067-.12-.067-.142-.244-.051-.392zm61.996 34.69c.094-.15-.117-.435-.47-.635-.591-.334-.53-1.696.16-3.478.303-.788 1.336-1.308 2.392-1.204 1.47.145 1.638.043.562-.34-1.211-.432-1.045-1.046.287-1.06.802-.01.816-.04.18-.398-.511-.287-.527-.404-.062-.451.465-.047.637-.261.664-.828.078-1.587-.205-1.97-2.501-3.39-2.583-1.594-3.229-2.157-2.637-2.295.227-.053.185-.334-.094-.625-.804-.84.066-.774 2.34.179 1.16.485 1.92.715 1.692.51-.667-.599.019-.73 1.356-.261.68.239 1.535.442 1.9.452.895.025-.324-.37-4.173-1.355-1.677-.429-3.3-.921-3.609-1.094-.308-.173-.634-.198-.723-.054-.09.143-.794.108-1.566-.078-1.058-.254-1.324-.248-1.088.027.219.255-.157.234-1.26-.07-.864-.237-1.345-.289-1.069-.114.684.432.07.743-.933.472-1.505-.406-5.448-3.114-5.372-3.689.038-.29-.23-.804-.595-1.144-.483-.448-.503-.673-.071-.822.402-.138.437-.292.11-.476-.265-.149-.406-.393-.313-.543.098-.159.465-.107.877.124.39.219.632.52.538.67-.093.15.053.41.326.577.477.292.468.3-.249.202-.588-.08-.553.014.168.45.501.302.974.822 1.05 1.154.154.666 2.33 1.996 3.516 2.15.53.067.424-.032-.358-.337-.61-.238-1.398-.754-1.751-1.147s-.442-.619-.197-.502c.245.118.578.134.739.037.16-.097.541-.11.846-.029.304.082-.15-.244-1.008-.723-1.513-.845-2.716-2.466-2.105-2.836.289-.174 2.07.296 2.535.67.161.13.534.463.828.74.526.495.531.494.312-.05-.216-.54-.184-.543 1.096-.124 3.853 1.258 14.964 7.168 14.603 7.77-.181.304 7.375 4.495 8.157 4.524 1.04.039 6.759 2.739 9.43 4.453 2.464 1.582 4.782 3.502 3.466 2.871-.258-.124-.55-.098-.648.057-.115.183.77.727 2.522 1.548 3.162 1.483 3.417 2.168.45 1.212-1.899-.613-3.397-.702-4.163-.248-.224.133-.344.36-.268.507.077.146-.13.128-.459-.041-.441-.226-.64-.21-.763.066-.24.543-1.253 1.062-1.642.843-.185-.104-.414-.065-.509.086-.102.161-.503.091-.975-.171-.44-.245-.787-.314-.77-.154.018.16-.217.527-.522.815-.418.395-.65.47-.945.303-.215-.12-.46-.112-.542.02-.169.267-3.166-.446-5.257-1.251-.75-.289-1.969-.563-2.709-.61-.739-.046-1.87-.27-2.512-.497-1.81-.64-2.295-.712-2.799-.411-.256.153-.716.235-1.021.183-.305-.053-1.19.108-1.967.356-1.068.341-1.556.37-2.005.115-.326-.184-.516-.458-.422-.608zm18.436 2.48c.304-.181-.262-.678-.667-.585-.247.056-.227.227.046.38.272.154.551.245.62.204zM96.41 25.092c-.073-.143-.388-.325-.699-.406-.31-.081-.25.035.134.258.385.223.64.29.566.147zm-11.133 8.7c.093-.15.34-.175.55-.056.21.118.175.263-.079.323-.253.059-.5.084-.55.056-.05-.028-.014-.173.079-.323zm-1.571-1.251c.198-.318 1.332-.07 1.248.272-.042.172-.34.22-.727.118-.361-.095-.596-.27-.521-.39zM40.286 7.28l-.328-.475.648.33c.357.181.574.45.483.6-.187.306-.337.22-.803-.455zm43.058 24.05c-.116-.174.1-.314.827-.537l.983-.301.761 1.16c.419.638.656 1.224.528 1.301-.242.146-2.821-1.207-3.099-1.624zm33.844 19.115c-.427-.323-.578-.632-.336-.687.242-.055.247-.211.01-.348-.364-.21-.327-.245.242-.229.561.016.596-.024.216-.243-.25-.144-.266-.281-.035-.304.231-.022 1.477.534 2.77 1.238 1.716.933 2.322 1.402 2.24 1.733-.096.387-.294.426-1.356.261-1.619-.25-2.791-.695-3.751-1.42zM38.967 5.383c-.434-.902-1.243-1.671-1.555-1.478-.16.099-.306.091-.324-.018-.055-.343 2.312-1.46 2.669-1.259.498.282 1.096 1.68.876 2.05-.14.237-.093.269.164.113a.565.565 0 0 1 .654.075c1.023 1.011 1.172 1.244.902 1.41-.166.103-.56.04-.876-.138-.357-.201-.748-.216-1.035-.04-.527.327-1.11.043-1.475-.715Zm1.948-3.916c.169-.105.589-.029.934.168.488.28.485.357-.016.349-.837-.013-1.307-.277-.918-.517ZM161.555 69.3c-.192-.504.155-.957.559-.73.11.062.677.085 1.26.051 2.749-.158 5.006.376 9.031 2.142 2.863 1.256 1.958 1.495-1.163.309-2.45-.932-6.278-1.575-7.238-1.218-.24.089-.346.398-.236.687.177.465.073.454-.908-.099-.61-.343-1.197-.857-1.306-1.142zm69.125 38.998c.187-.105.52-.09.74.033.22.124.174.27-.1.327-.275.056-.608.04-.74-.034-.133-.074-.088-.221.1-.326zM81.608 23.86c-.472-.79-.413-1.185.133-.879.223.126.481.106.574-.043.105-.168.63-.013 1.373.404.744.418 1.029.72.745.787-.253.06-.348.171-.21.249.476.268-.626.665-1.341.483-.833-.212-.774-.165-1.274-1.001zM211.43 95.287c.394.13.906.419 1.14.64.232.222-.09.115-.717-.237-.626-.353-.817-.534-.423-.403zM76.875 18.812c.335-.08.13-.331-.617-.759-1.054-.604-1.063-.641-.162-.672.949-.032 2.201.709 3.067 1.814.248.317.408.355.547.13.267-.43 1.379-.22 1.266.24-.05.202.153.503.45.67.696.39.134.742-.75.47-1.843-.568-4.277-1.78-3.8-1.893zm6.753 3.262c-.282-.8.203-.855 1.439-.162 1.272.715 1.36 1.013.349 1.173-.8.127-1.535-.289-1.788-1.011zm2.3 1.425c.253-.06.714.033 1.022.207.31.173.486.438.393.588-.101.162-.514.079-1.023-.207-.508-.286-.667-.523-.392-.588zm124.709 70.214c.146-.578.757-.464 2.37.443 1.877 1.054 2.414 1.61 1.701 1.758-.509.106-4.156-1.866-4.071-2.201zm5.138 2.76c.212-.325 1.12.186 1.65.928.31.435.203.425-.734-.07-.604-.318-1.016-.704-.916-.858zM73.52 15.833c-.035-.255.246-.28 1.062-.099 2.033.453 3.238 1.01 2.785 1.285-.253.154-.923.067-1.717-.224-.716-.262-1.477-.508-1.692-.546-.214-.039-.411-.226-.438-.416zm72.03 39.787c-.224-.215-.3-.454-.17-.53.13-.077.04-.465-.204-.861-.47-.769-.14-1.216.642-.867.261.116.897.405 1.414.64.517.236 2.052.93 3.41 1.543 2.682 1.21 4.338 2.448 3.22 2.407-.356-.013-1.204-.33-1.884-.703-1.217-.669-3.972-1.207-5.001-.977-.535.119-.702.043-1.427-.652zM79.705 17.617c.453-.049 1.043.034 1.31.184.276.155.283.398.016.56-.331.2-.721.146-1.31-.185-.745-.418-.747-.48-.016-.56zM149.41 56.93c.416-.244 1.645.446 1.712.96.036.287-.23.237-.995-.189-.573-.319-.897-.666-.717-.771zM84.524 20.143c-.91-1.003-.442-1.1.819-.169 1.276.942 1.589 1.914.375 1.164a6.702 6.702 0 0 1-1.194-.995zm105.142 57.912c-.335-.837-.308-.877.443-.68 2.09.548 4.124 2.42 3.202 2.949-.674.386-3.218-1.198-3.645-2.27zm-24.63-14.31c-.052-.365-.111-.379 1.566.37.717.32 1.174.658 1.016.749-.375.218-2.524-.714-2.582-1.119z" style="fill:url(#g);fill-opacity:1;stroke:none;stroke-width:.247997"/>
  <ellipse id="ellipse20" cx="130.919" cy="78.704" rx=".406" ry=".374" style="opacity:1;mix-blend-mode:normal;fill:#fff;fill-opacity:1;stroke:#f0f;stroke-width:.18465;stroke-linecap:round;stroke-linejoin:round;stroke-miterlimit:4;stroke-dasharray:none;stroke-dashoffset:0;stroke-opacity:.587558;paint-order:markers fill stroke"/>
  <ellipse id="ellipse21" cx="161.785" cy="106.172" rx=".406" ry=".374" style="opacity:1;mix-blend-mode:normal;fill:#fff;fill-opacity:1;stroke:#f0f;stroke-width:.18465;stroke-linecap:round;stroke-linejoin:round;stroke-miterlimit:4;stroke-dasharray:none;stroke-dashoffset:0;stroke-opacity:.587558;paint-order:markers fill stroke"/>
  <ellipse id="ellipse22" cx="111.104" cy="65.673" rx=".406" ry=".374" style="opacity:1;mix-blend-mode:normal;fill:#fff;fill-opacity:1;stroke:#f0f;stroke-width:.18465;stroke-linecap:round;stroke-linejoin:round;stroke-miterlimit:4;stroke-dasharray:none;stroke-dashoffset:0;stroke-opacity:.587558;paint-order:markers fill stroke"/>
  <ellipse id="ellipse23" cx="114.525" cy="81.204" rx=".406" ry=".374" style="opacity:1;mix-blend-mode:normal;fill:#fff;fill-opacity:1;stroke:#f0f;stroke-width:.187462;stroke-linecap:round;stroke-linejoin:round;stroke-miterlimit:4;stroke-dasharray:none;stroke-dashoffset:0;stroke-opacity:.587558;paint-order:markers fill stroke"/>
  <ellipse id="ellipse24" cx="134.294" cy="62.176" rx=".406" ry=".374" style="opacity:1;mix-blend-mode:normal;fill:#fff;fill-opacity:1;stroke:#f0f;stroke-width:.18465;stroke-linecap:round;stroke-linejoin:round;stroke-miterlimit:4;stroke-dasharray:none;stroke-dashoffset:0;stroke-opacity:.587558;paint-order:markers fill stroke"/>
  <ellipse id="ellipse25" cx="125.991" cy="71.64" rx=".406" ry=".374" style="opacity:1;mix-blend-mode:normal;fill:#fff;fill-opacity:1;stroke:#f0f;stroke-width:.18465;stroke-linecap:round;stroke-linejoin:round;stroke-miterlimit:4;stroke-dasharray:none;stroke-dashoffset:0;stroke-opacity:.587558;paint-order:markers fill stroke"/>
  <ellipse id="ellipse26" cx="117.358" cy="64.69" rx=".406" ry=".374" style="opacity:1;mix-blend-mode:normal;fill:#fff;fill-opacity:1;stroke:#f0f;stroke-width:.18465;stroke-linecap:round;stroke-linejoin:round;stroke-miterlimit:4;stroke-dasharray:none;stroke-dashoffset:0;stroke-opacity:.587558;paint-order:markers fill stroke"/>
  <ellipse id="ellipse27" cx="120.176" cy="69.814" rx=".406" ry=".374" style="opacity:1;mix-blend-mode:normal;fill:#fff;fill-opacity:1;stroke:#f0f;stroke-width:.18465;stroke-linecap:round;stroke-linejoin:round;stroke-miterlimit:4;stroke-dasharray:none;stroke-dashoffset:0;stroke-opacity:.587558;paint-order:markers fill stroke"/>
  <ellipse id="ellipse28" cx="103.577" cy="73.335" rx=".406" ry=".374" style="opacity:1;mix-blend-mode:normal;fill:#fff;fill-opacity:1;stroke:#f0f;stroke-width:.18465;stroke-linecap:round;stroke-linejoin:round;stroke-miterlimit:4;stroke-dasharray:none;stroke-dashoffset:0;stroke-opacity:.587558;paint-order:markers fill stroke"/>
  <ellipse id="ellipse29" cx="123.943" cy="65.85" rx=".406" ry=".374" style="opacity:1;mix-blend-mode:normal;fill:#fff;fill-opacity:1;stroke:#f0f;stroke-width:.18465;stroke-linecap:round;stroke-linejoin:round;stroke-miterlimit:4;stroke-dasharray:none;stroke-dashoffset:0;stroke-opacity:.587558;paint-order:markers fill stroke"/>
  <ellipse id="ellipse30" cx="49.46" cy="34.64" rx=".406" ry=".374" style="opacity:1;mix-blend-mode:normal;fill:#fff;fill-opacity:1;stroke:#f0f;stroke-width:.18465;stroke-linecap:round;stroke-linejoin:round;stroke-miterlimit:4;stroke-dasharray:none;stroke-dashoffset:0;stroke-opacity:.587558;paint-order:markers fill stroke"/>
  <ellipse id="ellipse31" cx="73.21" cy="43.122" rx=".446" ry=".41" style="opacity:1;mix-blend-mode:normal;fill:#fff;fill-opacity:1;stroke:#f0f;stroke-width:.193086;stroke-linecap:round;stroke-linejoin:round;stroke-miterlimit:4;stroke-dasharray:none;stroke-dashoffset:0;stroke-opacity:.587558;paint-order:markers fill stroke"/>
  <ellipse id="ellipse34" cx="46.711" cy="74.707" rx=".406" ry=".374" style="opacity:1;mix-blend-mode:normal;fill:#fff;fill-opacity:1;stroke:#f0f;stroke-width:.18465;stroke-linecap:round;stroke-linejoin:round;stroke-miterlimit:4;stroke-dasharray:none;stroke-dashoffset:0;stroke-opacity:.587558;paint-order:markers fill stroke"/>
  <ellipse id="ellipse35" cx="56.606" cy="66.004" rx=".406" ry=".374" style="opacity:1;mix-blend-mode:normal;fill:#fff;fill-opacity:1;stroke:#f0f;stroke-width:.187462;stroke-linecap:round;stroke-linejoin:round;stroke-miterlimit:4;stroke-dasharray:none;stroke-dashoffset:0;stroke-opacity:.587558;paint-order:markers fill stroke"/>
  <ellipse id="ellipse36" cx="119.645" cy="61.067" rx=".406" ry=".374" style="opacity:1;mix-blend-mode:normal;fill:#fff;fill-opacity:1;stroke:#f0f;stroke-width:.18465;stroke-linecap:round;stroke-linejoin:round;stroke-miterlimit:4;stroke-dasharray:none;stroke-dashoffset:0;stroke-opacity:.587558;paint-order:markers fill stroke"/>
  <ellipse id="ellipse37" cx="180.868" cy="101.675" rx=".406" ry=".374" style="opacity:1;mix-blend-mode:normal;fill:#fff;fill-opacity:1;stroke:#f0f;stroke-width:.18465;stroke-linecap:round;stroke-linejoin:round;stroke-miterlimit:4;stroke-dasharray:none;stroke-dashoffset:0;stroke-opacity:.587558;paint-order:markers fill stroke"/>
  <ellipse id="ellipse38" cx="136.07" cy="131.123" rx=".406" ry=".374" style="opacity:1;mix-blend-mode:normal;fill:#fff;fill-opacity:1;stroke:#f0f;stroke-width:.18465;stroke-linecap:round;stroke-linejoin:round;stroke-miterlimit:4;stroke-dasharray:none;stroke-dashoffset:0;stroke-opacity:.587558;paint-order:markers fill stroke"/>
  <ellipse id="ellipse39" cx="140.664" cy="96.032" rx=".446" ry=".41" style="opacity:1;mix-blend-mode:normal;fill:#fff;fill-opacity:1;stroke:#f0f;stroke-width:.193086;stroke-linecap:round;stroke-linejoin:round;stroke-miterlimit:4;stroke-dasharray:none;stroke-dashoffset:0;stroke-opacity:.587558;paint-order:markers fill stroke"/>
  <ellipse id="ellipse56" cx="137.595" cy="-16.628" rx="26.633" ry="25.304" style="fill:url(#linearGradient56);stroke-width:.054492;stroke-linecap:round;stroke-linejoin:round;paint-order:stroke fill markers" transform="matrix(.91074 .41298 -.08642 .99626 0 0)"/>
  <ellipse id="path51" cx="134.644" cy="-14.346" rx="26.633" ry="25.304" style="fill:url(#linearGradient52);stroke-width:.054492;stroke-linecap:round;stroke-linejoin:round;paint-order:stroke fill markers" transform="matrix(.91074 .41298 -.08642 .99626 0 0)"/>
  <path id="text52" d="M123.865 41.313c3.711 1.682 7.058-.064 7.397-3.976.335-3.856-2.462-8.446-6.173-10.129-3.764-1.707-7.063.119-7.397 3.976-.34 3.911 2.41 8.422 6.173 10.129zm4.565 3.902-.9-.408c-1.22.077-2.516-.225-3.894-.85a12.59 12.59 0 0 1-3.793-2.636l-.902-.409c-3.922-1.778-7.395.14-7.748 4.217l-.196 2.26c-.13 1.487.884 3.149 2.315 3.798l18.66 8.461c1.378.625 2.645-.003 2.774-1.49l.196-2.26c.353-4.077-2.589-8.904-6.512-10.683z" aria-label="user" style="font-weight:900;font-size:28.2094px;line-height:1;font-family:'Font Awesome 5 Free';-inkscape-font-specification:'Font Awesome 5 Free Heavy';text-align:center;text-anchor:middle;fill:#fefeff;stroke-width:.0529168;stroke-linecap:round;stroke-linejoin:round;paint-order:stroke fill markers"/>
  <ellipse id="ellipse57" cx="134.644" cy="-14.346" rx="33.55" ry="31.877" style="fill:none;stroke-width:1.33505273;stroke-linecap:round;stroke-linejoin:round;paint-order:stroke fill markers;stroke:url(#linearGradient58);stroke-dasharray:none" transform="matrix(.91074 .41298 -.08642 .99626 0 0)"/>
  <ellipse id="ellipse58" cx="134.644" cy="-14.346" rx="29.29" ry="27.829" style="fill:none;stroke:url(#linearGradient59);stroke-width:1.33505;stroke-linecap:round;stroke-linejoin:round;stroke-dasharray:none;paint-order:stroke fill markers" transform="matrix(.91074 .41298 -.08642 .99626 0 0)"/>
  <ellipse id="ellipse59" cx="200.27" cy="14.403" rx="13.405" ry="12.736" style="fill:#0094b9;stroke-width:.0544918;stroke-linecap:round;stroke-linejoin:round;paint-order:stroke fill markers;fill-opacity:1" transform="matrix(.91074 .41298 -.08642 .99626 0 0)"/>
  <ellipse id="ellipse60" cx="198.785" cy="15.552" rx="13.405" ry="12.736" style="fill:#0cf;stroke-width:.0544918;stroke-linecap:round;stroke-linejoin:round;paint-order:stroke fill markers;fill-opacity:1" transform="matrix(.91074 .41298 -.08642 .99626 0 0)"/>
  <path id="path60" d="M179.697 97.588c1.868.847 3.553-.032 3.724-2.001.168-1.941-1.24-4.251-3.108-5.098-1.894-.86-3.554.06-3.723 2-.17 1.97 1.213 4.24 3.107 5.099zm2.298 1.964-.453-.206c-.614.039-1.266-.113-1.96-.427a6.337 6.337 0 0 1-1.91-1.327l-.453-.206c-1.974-.895-3.722.07-3.9 2.123l-.098 1.137c-.065.748.444 1.585 1.165 1.911l9.392 4.26c.693.314 1.33-.003 1.396-.751l.098-1.137c.178-2.052-1.302-4.482-3.277-5.377z" aria-label="user" style="font-weight:900;font-size:28.2094px;line-height:1;font-family:'Font Awesome 5 Free';-inkscape-font-specification:'Font Awesome 5 Free Heavy';text-align:center;text-anchor:middle;fill:#fefeff;stroke-width:.0529169;stroke-linecap:round;stroke-linejoin:round;paint-order:stroke fill markers"/>
  <ellipse id="ellipse61" cx="117.309" cy="33.547" rx="13.405" ry="12.736" style="fill:#f8a833;stroke-width:.0544918;stroke-linecap:round;stroke-linejoin:round;paint-order:stroke fill markers;fill-opacity:1" transform="matrix(.91074 .41298 -.08642 .99626 0 0)"/>
  <ellipse id="ellipse62" cx="115.823" cy="34.696" rx="13.405" ry="12.736" style="fill:#ffc751;stroke-width:.0544918;stroke-linecap:round;stroke-linejoin:round;paint-order:stroke fill markers;fill-opacity:1" transform="matrix(.91074 .41298 -.08642 .99626 0 0)"/>
  <path id="path62" d="M102.487 82.399c1.867.847 3.552-.032 3.723-2.001.168-1.941-1.24-4.251-3.108-5.098-1.894-.86-3.554.06-3.723 2-.17 1.97 1.213 4.24 3.108 5.099zm2.297 1.964-.453-.206c-.614.039-1.266-.113-1.96-.427a6.337 6.337 0 0 1-1.909-1.327l-.454-.206c-1.974-.895-3.722.07-3.9 2.123l-.098 1.137c-.065.748.445 1.585 1.165 1.911l9.392 4.259c.694.315 1.331-.002 1.396-.75l.099-1.137c.178-2.052-1.303-4.482-3.278-5.377z" aria-label="user" style="font-weight:900;font-size:28.2094px;line-height:1;font-family:'Font Awesome 5 Free';-inkscape-font-specification:'Font Awesome 5 Free Heavy';text-align:center;text-anchor:middle;fill:#fefeff;stroke-width:.0529169;stroke-linecap:round;stroke-linejoin:round;paint-order:stroke fill markers"/>
  <ellipse id="ellipse63" cx="57.178" cy="39.416" rx="13.405" ry="12.736" style="fill:#19b09b;stroke-width:.0544918;stroke-linecap:round;stroke-linejoin:round;paint-order:stroke fill markers;fill-opacity:1" transform="matrix(.91074 .41298 -.08642 .99626 0 0)"/>
  <ellipse id="ellipse64" cx="55.692" cy="40.564" rx="13.405" ry="12.736" style="fill:#58f9bd;stroke-width:.0544918;stroke-linecap:round;stroke-linejoin:round;paint-order:stroke fill markers;fill-opacity:1" transform="matrix(.91074 .41298 -.08642 .99626 0 0)"/>
  <path id="path64" d="M47.216 63.412c1.867.847 3.552-.032 3.723-2 .168-1.942-1.24-4.252-3.108-5.099-1.894-.859-3.554.06-3.723 2.001-.17 1.97 1.213 4.24 3.108 5.098zm2.297 1.965-.453-.206c-.614.039-1.266-.113-1.96-.428a6.337 6.337 0 0 1-1.91-1.326l-.453-.206c-1.974-.895-3.722.07-3.9 2.122l-.098 1.137c-.065.749.445 1.585 1.165 1.912l9.392 4.259c.693.314 1.33-.002 1.396-.75l.098-1.137c.178-2.053-1.302-4.482-3.277-5.377z" aria-label="user" style="font-weight:900;font-size:28.2094px;line-height:1;font-family:'Font Awesome 5 Free';-inkscape-font-specification:'Font Awesome 5 Free Heavy';text-align:center;text-anchor:middle;fill:#fefeff;stroke-width:.0529169;stroke-linecap:round;stroke-linejoin:round;paint-order:stroke fill markers"/>
  <ellipse id="ellipse65" cx="75.325" cy="-3.681" rx="13.405" ry="12.736" style="fill:#95f;stroke-width:.0544918;stroke-linecap:round;stroke-linejoin:round;paint-order:stroke fill markers;fill-opacity:1" transform="matrix(.91074 .41298 -.08642 .99626 0 0)"/>
  <ellipse id="ellipse66" cx="73.84" cy="-2.532" rx="13.405" ry="12.736" style="fill:#c555ff;stroke-width:.0544918;stroke-linecap:round;stroke-linejoin:round;paint-order:stroke fill markers;fill-opacity:1" transform="matrix(.91074 .41298 -.08642 .99626 0 0)"/>
  <path id="path66" d="M67.468 27.971c1.867.847 3.552-.032 3.723-2 .168-1.942-1.24-4.252-3.108-5.099-1.894-.859-3.554.06-3.723 2.001-.17 1.97 1.213 4.24 3.108 5.098zm2.297 1.965-.453-.206c-.614.039-1.266-.113-1.96-.428a6.337 6.337 0 0 1-1.91-1.326l-.453-.206c-1.974-.895-3.722.07-3.9 2.122l-.098 1.137c-.065.749.445 1.585 1.165 1.912l9.392 4.259c.693.314 1.33-.002 1.396-.75l.098-1.138c.178-2.052-1.302-4.481-3.277-5.376z" aria-label="user" style="font-weight:900;font-size:28.2094px;line-height:1;font-family:'Font Awesome 5 Free';-inkscape-font-specification:'Font Awesome 5 Free Heavy';text-align:center;text-anchor:middle;fill:#fefeff;stroke-width:.0529169;stroke-linecap:round;stroke-linejoin:round;paint-order:stroke fill markers"/>
  <ellipse id="ellipse79" cx="162.303" cy="37.179" rx="13.405" ry="12.736" style="fill:#c7003e;fill-opacity:1;stroke-width:.0544918;stroke-linecap:round;stroke-linejoin:round;paint-order:stroke fill markers" transform="matrix(.91074 .41298 -.08642 .99626 0 0)"/>
  <ellipse id="ellipse80" cx="160.817" cy="38.328" rx="13.405" ry="12.736" style="fill:#ff3976;fill-opacity:1;stroke-width:.0544918;stroke-linecap:round;stroke-linejoin:round;paint-order:stroke fill markers" transform="matrix(.91074 .41298 -.08642 .99626 0 0)"/>
  <path id="path80" d="M143.15 104.599c1.868.847 3.553-.032 3.724-2.001.168-1.941-1.24-4.251-3.107-5.098-1.895-.86-3.555.06-3.723 2-.171 1.97 1.212 4.24 3.107 5.099zm2.298 1.964-.453-.206c-.614.039-1.266-.113-1.96-.427a6.337 6.337 0 0 1-1.909-1.327l-.453-.206c-1.975-.895-3.722.07-3.9 2.123l-.1 1.137c-.064.748.446 1.585 1.166 1.911l9.392 4.26c.694.314 1.331-.003 1.396-.751l.099-1.137c.178-2.052-1.303-4.482-3.278-5.377z" aria-label="user" style="font-weight:900;font-size:28.2094px;line-height:1;font-family:'Font Awesome 5 Free';-inkscape-font-specification:'Font Awesome 5 Free Heavy';text-align:center;text-anchor:middle;fill:#fefeff;stroke-width:.0529169;stroke-linecap:round;stroke-linejoin:round;paint-order:stroke fill markers"/>
</svg>
