<svg xmlns="http://www.w3.org/2000/svg" xmlns:xlink="http://www.w3.org/1999/xlink" width="717.529" height="615.67" fill="none"><defs><linearGradient id="b"><stop offset="0" style="stop-color:#fa02d1;stop-opacity:1"/><stop offset=".455" style="stop-color:#8400ff;stop-opacity:1"/><stop offset="1" style="stop-color:#2600ba;stop-opacity:1"/></linearGradient><linearGradient xlink:href="#b" id="i" x1="64.583" x2="451.458" y1="74.339" y2="359.723" gradientTransform="translate(-40.902 -29.08)" gradientUnits="userSpaceOnUse"/><linearGradient xlink:href="#b" id="h" x1="60.078" x2="395.227" y1="100.551" y2="583.135" gradientTransform="translate(-35.49 -49.413)" gradientUnits="userSpaceOnUse"/><linearGradient xlink:href="#c" id="j" x1="348.006" x2="240.03" y1="98.052" y2="82.644" gradientTransform="matrix(3.77953 0 0 3.77953 -899.354 149.48)" gradientUnits="userSpaceOnUse"/><linearGradient id="c"><stop offset="0" style="stop-color:#9c20f9;stop-opacity:1"/><stop offset="1" style="stop-color:#421ef8;stop-opacity:1"/></linearGradient><linearGradient xlink:href="#c" id="k" x1="348.006" x2="240.03" y1="98.052" y2="82.644" gradientTransform="matrix(3.77953 0 0 3.77953 -899.354 149.48)" gradientUnits="userSpaceOnUse"/><linearGradient xlink:href="#d" id="l" x1="304.529" x2="368.21" y1="-79.36" y2="-79.36" gradientTransform="matrix(3.28348 1.87178 0 3.77953 -861.041 126.23)" gradientUnits="userSpaceOnUse"/><linearGradient id="d"><stop offset="0" style="stop-color:#060d95;stop-opacity:1"/><stop offset="1" style="stop-color:#9d20f8;stop-opacity:1"/></linearGradient><linearGradient xlink:href="#e" id="m" x1="416.45" x2="293.038" y1="-137.639" y2="-84.45" gradientTransform="matrix(3.13742 2.10746 0 3.77953 -899.354 149.48)" gradientUnits="userSpaceOnUse"/><linearGradient id="e"><stop offset="0" style="stop-color:#701ff9;stop-opacity:1"/><stop offset="1" style="stop-color:#4f1ef7;stop-opacity:1"/></linearGradient><linearGradient xlink:href="#f" id="n" x1="334.09" x2="406.127" y1="-165.21" y2="-111.64" gradientUnits="userSpaceOnUse"/><linearGradient id="f"><stop offset="0" style="stop-color:#f71fcd;stop-opacity:1"/><stop offset=".607" style="stop-color:#8a1ff6;stop-opacity:1"/><stop offset="1" style="stop-color:#3013b9;stop-opacity:1"/></linearGradient><linearGradient xlink:href="#g" id="o" x1="334.09" x2="403.504" y1="-165.21" y2="-108.301" gradientUnits="userSpaceOnUse"/><linearGradient id="g"><stop offset="0" style="stop-color:#fc9d68;stop-opacity:1"/><stop offset=".566" style="stop-color:#ef35c2;stop-opacity:1"/><stop offset="1" style="stop-color:#a821fa;stop-opacity:1"/></linearGradient><linearGradient xlink:href="#e" id="p" x1="336.465" x2="400.953" y1="-162.91" y2="-113.922" gradientUnits="userSpaceOnUse"/><linearGradient xlink:href="#g" id="q" x1="332.118" x2="406.594" y1="-115.914" y2="-132.346" gradientTransform="matrix(3.13742 2.10746 0 3.77953 -899.354 149.48)" gradientUnits="userSpaceOnUse"/><linearGradient xlink:href="#g" id="r" x1="347.469" x2="323.788" y1="-98.988" y2="-89.85" gradientTransform="matrix(3.13742 2.10746 0 3.77953 -899.354 149.48)" gradientUnits="userSpaceOnUse"/><linearGradient xlink:href="#d" id="s" x1="304.529" x2="368.21" y1="-79.36" y2="-79.36" gradientTransform="matrix(3.28348 1.87178 0 3.77953 -899.354 149.48)" gradientUnits="userSpaceOnUse"/><linearGradient xlink:href="#d" id="t" x1="304.529" x2="368.21" y1="-79.36" y2="-79.36" gradientTransform="matrix(3.28348 1.87178 0 3.77953 -886.583 141.948)" gradientUnits="userSpaceOnUse"/><linearGradient xlink:href="#d" id="u" x1="304.529" x2="368.21" y1="-79.36" y2="-79.36" gradientTransform="matrix(3.28348 1.87178 0 3.77953 -873.812 134.089)" gradientUnits="userSpaceOnUse"/><linearGradient xlink:href="#d" id="v" x1="304.529" x2="368.21" y1="-79.36" y2="-79.36" gradientTransform="matrix(3.28348 1.87178 0 3.77953 -861.041 126.23)" gradientUnits="userSpaceOnUse"/><linearGradient xlink:href="#d" id="w" x1="353.445" x2="353.686" y1="-78.038" y2="-80.471" gradientTransform="matrix(3.28348 1.87178 0 3.77953 -829.54 144.642)" gradientUnits="userSpaceOnUse"/><linearGradient xlink:href="#d" id="x" x1="304.529" x2="368.21" y1="-79.36" y2="-79.36" gradientTransform="matrix(3.28348 1.87178 0 3.77953 -841.067 115.096)" gradientUnits="userSpaceOnUse"/><linearGradient xlink:href="#d" id="y" x1="353.445" x2="353.686" y1="-78.038" y2="-80.471" gradientTransform="matrix(3.28348 1.87178 0 3.77953 -808.47 133.76)" gradientUnits="userSpaceOnUse"/></defs><path d="M332.365 12.735a1.494 1.494 0 0 0-.225.03c-1.398.296-2.975.805-4.568 1.44h-.002c-4.213 1.683-8.54 4.28-9.985 6.382.428.983.843 1.956.86 2.07l2.968.588s5.525 1.035 5.698 1.035c.003 0 .05-.02.056-.022v268.588c0 4.192 2.928 9.245 6.565 11.328l320.395 196.197c4.27-.023 13.63-7.577 14.04-8.046.66-.803 1.041-1.991 1.041-3.506v-276.33c0-4.192-2.927-9.244-6.564-11.328L335.1 13.497c-.862-.334-1.944-.807-2.736-.762z" style="fill:url(#h);fill-opacity:1;stroke:none;stroke-width:1.22499;stroke-linecap:round;stroke-linejoin:round;paint-order:fill markers stroke"/><path d="M322.484 16.762c-2.185 1.274-4.063 2.609-4.899 3.825.428.983.843 1.956.86 2.07l2.968.588s5.525 1.035 5.698 1.035c.003 0 .05-.02.056-.022v268.588c0 4.192 2.928 9.245 6.565 11.328L654.126 500.37c.96-.005 2.194-.424 3.508-1.024 1.353-1.101 2.241-3.367 2.541-8.136V217.786c0-4.192-2.927-9.243-6.564-11.326L322.667 16.846c-.062-.035-.12-.05-.181-.084h-.002z" style="fill:#fff;fill-opacity:1;stroke:none;stroke-width:1.22499;stroke-linecap:round;stroke-linejoin:round;paint-order:fill markers stroke"/><rect width="393.011" height="291.367" x="364.328" y="-164.436" ry="7.566" style="fill:url(#i);fill-opacity:1;stroke:none;stroke-width:1.31509;stroke-linecap:round;stroke-linejoin:round;paint-order:fill markers stroke" transform="skewY(29.811) scale(.86767 1)"/><g transform="matrix(1.28888 .74344 0 1.28888 700.817 408.8)"><path d="M-279.94-106.496a.856.856 0 0 0-.856.856V60.862a.856.856 0 0 0 .856.855h227.209a.856.856 0 0 0 .855-.855V-105.64a.856.856 0 0 0-.855-.856zm.855 1.713h225.498V60.004h-225.498zm16.51 18.27c-1.108 0-2 .892-2 2v69.236c0 1.108.892 2 2 2h16.115c1.108 0 2-.892 2-2v-69.236c0-1.108-.892-2-2-2zm91.506 9.164c-1.108 0-2 .892-2 2v13.535c0 1.108.892 2 2 2h13.879c1.108 0 2-.892 2-2v-13.535c0-1.108-.892-2-2-2zm68.595 10.142c-1.108 0-2 .892-2 2v18.522c0 1.108.892 2 2 2h23.162c1.108 0 2-.892 2-2v-18.522c0-1.108-.892-2-2-2zm-62.363 8.186-1 .025.025.998 1-.023zm31.162.713a2.249 2.249 0 0 0-2.25 2.25 2.249 2.249 0 0 0 2.25 2.248 2.249 2.249 0 0 0 2.248-2.248 2.249 2.249 0 0 0-2.248-2.25zm3.96 1.506v1h1v-1zm3 0v1h1v-1zm3 0v1h1v-1zm3 0v1h1v-1zm3 0v1h1v-1zm3 0v1h1v-1zm3 0v1h1v-1zm3 0v1h1v-1zm3 0v1h1v-1zm-132.19.176c-1.108 0-2 .892-2 2v39.35c0 1.107.892 2 2 2h16.115c1.108 0 2-.893 2-2v-39.35c0-1.108-.892-2-2-2zm73.144.603-1 .025.026 1 1-.025zm.076 3-1 .025.026 1 1-.025zm30.327.578v1h1v-1zm-30.25 2.42-1 .025.025 1 1-.025zm30.25.58v1h1v-1zm-30.174 2.42-1 .025.025 1 .998-.025zm30.174.58v.213H-151.3c-1.108 0-2 .892-2 2v30.063h-.515v1h.515v5.51c0 1.107.892 2 2 2h35.885c1.108 0 2-.893 2-2v-36.573c0-1.108-.892-2-2-2h-17.943v-.213zm-30.1 2.418-.998.026.025 1 .998-.026zm.076 3-.998.026.026 1 .998-.026zm.076 2.998-.998.026.026 1 .998-.026zm.077 3-1 .026.025 1 1-.026zm.076 2.998-1 .026.025 1 1-.026zm.076 3-1 .026.025 1 .233-.006a2.249 2.249 0 0 0-1.66 2.168 2.249 2.249 0 0 0 2.25 2.248 2.249 2.249 0 0 0 2.248-2.248 2.249 2.249 0 0 0-2.073-2.243zm-49.158.416c-1.108 0-2 .892-2 2v11.338c0 1.108.892 2 2 2h16.115c1.108 0 2-.892 2-2v-11.338c0-1.108-.892-2-2-2zm126.734.422a2.249 2.249 0 0 0-2.248 2.25 2.249 2.249 0 0 0 1.8 2.197v.475h1v-.496a2.249 2.249 0 0 0 1.696-2.176 2.249 2.249 0 0 0-2.248-2.25zm-18.924 1.66v1.26h1v-.76l-.26.26v-.76zm2.74 0v1h1v-1zm3 0v1h1v-1zm3 0v1h1v-1zm3 0v1h1v-1zm3 0v1h1v-1zm-71.158.366v1h1v-1zm3 0v1h1v-1zm3 0v1h1v-1zm50.418 2.894v1h1v-1zm18.477 2.002v1h1v-1zm-18.477.998v1h1v-1zm18.477 2.002v1h1v-1zm-18.002.56a2.249 2.249 0 0 0-2.25 2.25 2.249 2.249 0 0 0 2.25 2.249 2.249 2.249 0 0 0 2.248-2.248 2.249 2.249 0 0 0-2.248-2.25zm-66.602 1.678a2.249 2.249 0 0 0-2.248 2.248 2.249 2.249 0 0 0 2.248 2.25 2.249 2.249 0 0 0 2.25-2.25 2.249 2.249 0 0 0-2.25-2.248zm58.444.076v1h1v-1zm3 0v1h1v-1zm23.16.686v1h1v-1zm-81.867 1.102v1h1v-1zm3 0v1h1v-1zm3 0v1h1v-1zm3 0v1h1v-1zm3 0v1h1v-1zm69.867 1.898v1h1v-1zm-177.627.822a.75.75 45 0 0-.75.75.75.75 45 0 0 .75.75h69.455a.75.75 45 0 0 .75-.75.75.75 45 0 0-.75-.75zm92.52.041v1h1v-1zm85.107 2.137v1h1v-1zm-85.108.863v1h1v-1zm85.108 2.137v1h1v-1zm-85.108.863v1h1v-1zm40.846.055v1h1v-1zm44.262 2.082v1h1v-1zm-85.108.863v1h1v-1zm40.846.055v1h1v-1zm26.672 1.162c-1.108 0-2 .892-2 2v36.057c0 1.108.892 2 2 2h35.885c1.108 0 2-.892 2-2V.809c0-1.108-.892-2-2-2zM-172.056.592v1h1v-1Zm40.846.055v1h1v-1Zm-40.846 2.945v1h1v-1zm40.846.055v1h1v-1zm-40.846 2.945v1h1v-1Zm40.846.055v1h1v-1Zm-40.846 2.945v1h1v-1Zm40.846.055v1h1v-1Zm-40.846 2.945v1h1v-1zm40.846.055v1h1v-1zm-40.342 1.162a2.249 2.249 0 0 0-2.248 2.25 2.249 2.249 0 0 0 2.248 2.248 2.249 2.249 0 0 0 2.25-2.248 2.249 2.249 0 0 0-2.25-2.25zm-52.24.576c-1.108 0-2 .892-2 2v36.057c0 1.108.892 2 2 2h35.885c1.108 0 2-.892 2-2V35.059h.47v-1h-.47V16.385c0-1.108-.892-2-2-2zm54.746 1.198v1h1v-1zm3 0v1h1v-1zm3 0v1h1v-1zm31.836.064v1h1v-1zm-30.27 1.37v1h1v-1zm30.27 1.63v.207h-11.437c-1.108 0-2 .892-2 2v18.521c0 1.108.892 2 2 2h23.162c1.108 0 2-.892 2-2V20.854c0-1.108-.892-2-2-2h-10.725v-.207zm-30.27 1.37v1h1v-1zm0 3v1h1v-1zm0 3v1h1v-1zm0 3v1h1v-1zm0 3v.284a2.249 2.249 0 0 0-1.837 2.207 2.249 2.249 0 0 0 2.248 2.248 2.249 2.249 0 0 0 2.25-2.248 2.249 2.249 0 0 0-1.66-2.17v-.322zm-21.957 2.042v1h1v-1zm3 0v1h1v-1zm3 0v1h1v-1zm3 0v1h1v-1zm3 0v1h1v-1zm3 0v1h1v-1zm3 0v1h1v-1z" style="color:#000;opacity:.2;fill:#1a1a1a;stroke-dasharray:1,2;-inkscape-stroke:none"/><g transform="translate(25.662 -32.095)"><path d="M-132.639 8.01v1.26h1v-.76l-.26.26v-.76Zm2.74 0v1h1v-1zm3 0v1h1v-1zm3 0v1h1v-1zm3 0v1h1v-1zm3 0v1h1v-1zm3 0v1h1v-1zm.737 2.261v1h1v-1zm-18.477.999v1h1v-1zm18.477 2.001v1h1v-1zm-18.477.999v1h1v-1zm18.477 2.001v1h1v-1zm-18.477.999v1h1v-1zm-10.683 1.316v1h1v-1zm3 0v1h1v-1zm3 0v1h1v-1zm3 0v1h1v-1zm20.16.685v1h1v-1zm0 3v1h1v-1zm0 3v1h1v-1zm0 3v1h1v-1zm0 3v1h1v-1zm0 3v1h1v-1zM-159.93-22.26v1h1v-1zm3 0v1h1v-1zm3 0v1h1v-1zm3 0v1h1v-1zm3 0v1h1v-1zm3 0v1h1v-1zm3 0v1h1v-1zm3 0v1h1v-1zm3 0v1h1v-1zm3 0v1h1v-1zm3 0v1h.1v-1zm-31.642 1.358v1h1v-1zm0 3v1h1v-1zm0 3v1h1v-1zm0 3v1h1v-1zm0 3v1h1v-1zM-192.203-30.477l-1 .026.025.998 1-.026zm.076 2.998-1 .026.025 1 1-.026zm.076 3-1 .026.026.998 1-.024zm.076 2.999-1 .025.026 1 1-.025zm.077 3-1 .025.025 1 1-.025zm.076 2.998-1 .025.025 1 1-.025zm.076 3-1 .025.025 1 .999-.025zm.074 2.998-.998.025.026 1 .998-.025zm.076 3-.998.025.026 1 .998-.025zm.077 2.998-.998.025.025 1 .998-.025zm.076 3-1 .025.025 1 1-.025zm.076 2.998-1 .025.025 1 1-.025zm.076 3-1 .025.026 1 1-.025zm.073 2.863.004.135-1 .025.021.84h1.137v-1zm2.162 0v1h1v-1zm3 0v1h1v-1zm3 0v1h1v-1zm3 0v1h1v-1z" style="color:#000;fill:#4118d8;stroke-dasharray:1,2;-inkscape-stroke:none"/><rect width="17.879" height="17.535" x="-200.283" y="-42.807" ry="2" style="fill:#f49643;fill-opacity:1;stroke-linecap:round;stroke-linejoin:round"/><path d="M-158.424 26.19v1h1v-1zm0 3v1h1v-1zm0 3v1h1v-1zm0 3v1h1v-1zm0 3v1h1v-1zm0 3v1h1v-1zm0 3v1h1v-1zm0 3v1h1v-1zm0 3v1h1v-1zm0 3v1h1v-1z" style="color:#000;fill:#4118d8;stroke-dasharray:1,2;-inkscape-stroke:none"/><rect width="39.885" height="40.572" x="-180.512" y="-11.69" ry="2" style="fill:#f51bad;fill-opacity:1;stroke-linecap:round;stroke-linejoin:round"/><rect width="27.163" height="22.521" x="-131.688" y="-32.664" ry="2" style="fill:#8186e2;fill-opacity:1;stroke-linecap:round;stroke-linejoin:round"/><rect width="39.885" height="40.057" x="-133.751" y="33.352" ry="2" style="fill:#f49643;fill-opacity:1;stroke-linecap:round;stroke-linejoin:round"/><path d="M-112.406 39.369a13.898 14.355 0 0 1 12.84 8.862 13.898 14.355 0 0 1-3.013 15.643 13.898 14.355 0 0 1-15.146 3.112 13.898 14.355 0 0 1-8.579-13.262h13.898z" style="fill:#fff;fill-opacity:1;stroke-width:1.06369;stroke-linecap:round;stroke-linejoin:round"/><path d="M-129.708 51.536A13.898 14.355 0 0 1-115.81 37.18v14.355z" style="fill:#f51bad;fill-opacity:1;stroke-width:1.06369;stroke-linecap:round;stroke-linejoin:round"/><g style="font-size:28.6044px;line-height:1.25;font-family:Poppins;-inkscape-font-specification:Poppins;text-align:center;letter-spacing:0;word-spacing:0;text-anchor:middle;stroke-width:1.53237"><path d="m-148.035 11.469-2.403-1.341c.28-1.341.28-2.626 0-3.967l2.403-1.34a.642.642 0 0 0 .28-.783c-.615-2.011-1.677-3.799-3.018-5.307a.677.677 0 0 0-.838-.112l-2.402 1.34a11.23 11.23 0 0 0-3.352-1.955v-2.737c0-.28-.224-.559-.559-.615-2.067-.503-4.134-.447-6.09 0-.335.056-.502.336-.502.615v2.737a10.006 10.006 0 0 0-3.408 2.012l-2.403-1.397a.677.677 0 0 0-.838.112c-1.34 1.508-2.402 3.296-3.016 5.307-.112.28 0 .615.279.782l2.402 1.341a11.818 11.818 0 0 0 0 3.967l-2.402 1.34c-.28.168-.391.503-.28.783.615 2.011 1.677 3.799 3.017 5.307.224.224.56.28.838.112l2.403-1.34c1.005.837 2.123 1.508 3.408 1.954v2.738c0 .28.223.559.503.67 2.067.447 4.134.391 6.09 0 .334-.111.558-.39.558-.67v-2.738a11.23 11.23 0 0 0 3.352-1.955l2.402 1.34c.28.169.615.113.838-.11 1.397-1.51 2.403-3.297 3.073-5.308a.751.751 0 0 0-.335-.782zm-12.906 1.117c-2.514 0-4.47-1.955-4.47-4.47a4.447 4.447 0 0 1 4.47-4.469 4.483 4.483 0 0 1 4.47 4.47 4.447 4.447 0 0 1-4.47 4.469z" aria-label="cog" style="font-weight:900;font-family:&quot;Font Awesome 5 Free&quot;;-inkscape-font-specification:&quot;Font Awesome 5 Free Heavy&quot;;fill:#fff"/></g><path d="M-126.875-27.203a.9.9 0 0 0-.9.9.9.9 0 0 0 .9.9h17.45a.9.9 0 0 0 .9-.9.9.9 0 0 0-.9-.9zm0 4.512a.9.9 0 0 0-.9.9.9.9 0 0 0 .9.9h17.45a.9.9 0 0 0 .9-.9.9.9 0 0 0-.9-.9zm0 4.513a.9.9 0 0 0-.9.9.9.9 0 0 0 .9.901h17.45a.9.9 0 0 0 .9-.9.9.9 0 0 0-.9-.9z" style="color:#000;fill:#fff;stroke-linecap:round;-inkscape-stroke:none"/><g style="font-size:11.1883px;line-height:1.25;font-family:Poppins;-inkscape-font-specification:Poppins;text-align:center;letter-spacing:0;word-spacing:0;text-anchor:middle;stroke-width:.599374"><path d="M-192.703-30.465a.58.58 0 0 0 .808 0l6.425-6.424a.58.58 0 0 0 0-.809l-.787-.786a.554.554 0 0 0-.787 0l-5.244 5.244-2.47-2.447a.554.554 0 0 0-.786 0l-.787.786a.58.58 0 0 0 0 .809z" aria-label="check" style="font-weight:900;font-family:&quot;Font Awesome 5 Free&quot;;-inkscape-font-specification:&quot;Font Awesome 5 Free Heavy&quot;;fill:#fff"/></g><circle cx="-160.889" cy="-21.517" r="2.249" style="fill:#b826ed;fill-opacity:1;stroke-width:1.8;stroke-linecap:round;stroke-linejoin:round;stroke-miterlimit:4;stroke-dasharray:none"/><circle cx="-191.444" cy="8.699" r="2.249" style="fill:#b826ed;fill-opacity:1;stroke-width:1.8;stroke-linecap:round;stroke-linejoin:round;stroke-miterlimit:4;stroke-dasharray:none"/><circle cx="-132.164" cy="19.081" r="2.249" style="fill:#b826ed;fill-opacity:1;stroke-width:1.8;stroke-linecap:round;stroke-linejoin:round;stroke-miterlimit:4;stroke-dasharray:none"/><circle cx="-113.715" cy="8.598" r="2.249" style="fill:#b826ed;fill-opacity:1;stroke-width:1.8;stroke-linecap:round;stroke-linejoin:round;stroke-miterlimit:4;stroke-dasharray:none"/><path d="M-199.27 20.373v.762h.739l-.239.238h.74v-1zm3.24 0v1h1v-1zm3 0v1h1v-1zm3 0v1h1v-1zm3 0v1h1v-1zm3 0v1h1v-1zm3 0v1h1v-1zm-18.24 2.762v1h1v-1zm0 3v1h1v-1zm0 3v1h1v-1zm0 3v1h1v-1zm0 3v1h1v-1zm0 3v1h1v-1zm0 3v1h1v-1zm0 3v1h1v-1zm0 3v1h1v-1zm.5 2.99.01.01h-.51v.99h1.01v-1zm2.51 0v1h1v-1zm3 0v1h1v-1zm3 0v1h1v-1zm1.567 1.434v1h1v-1zm0 3v1h1v-1zm0 3v1h1v-1zm0 3v1h1v-1zm0 3v1h1v-1zm0 3v1h1v-1zm-24.957 2.043v1h1v-1zm3 0v1h1v-1zm3 0v1h1v-1zm3 0v1h1v-1zm3 0v1h1v-1zm3 0v1h1v-1zm3 0v1h1v-1zm3 0v1h1v-1zm3 0v1h1v-1z" style="color:#000;fill:#4118d8;stroke-dasharray:1,2;-inkscape-stroke:none"/><rect width="27.163" height="22.521" x="144.699" y="-75.918" ry="2" style="fill:#8186e2;fill-opacity:1;stroke-linecap:round;stroke-linejoin:round" transform="scale(-1)"/><rect width="39.885" height="40.057" x="213.122" y="-88.983" ry="2" style="fill:#f49643;fill-opacity:1;stroke-linecap:round;stroke-linejoin:round" transform="scale(-1)"/><circle cx="20.757" cy="198.765" r="2.249" style="fill:#b826ed;fill-opacity:1;stroke-width:1.8;stroke-linecap:round;stroke-linejoin:round;stroke-miterlimit:4;stroke-dasharray:none" transform="rotate(90)"/><circle cx="50.6" cy="198.765" r="2.249" style="fill:#b826ed;fill-opacity:1;stroke-width:1.8;stroke-linecap:round;stroke-linejoin:round;stroke-miterlimit:4;stroke-dasharray:none" transform="rotate(90)"/><circle cx="69.049" cy="188.282" r="2.249" style="fill:#b826ed;fill-opacity:1;stroke-width:1.8;stroke-linecap:round;stroke-linejoin:round;stroke-miterlimit:4;stroke-dasharray:none" transform="rotate(90)"/></g><path d="M-132.618 32.562a3.674 3.674 0 0 0 3.666-3.667c0-2.005-1.661-3.666-3.666-3.666a3.674 3.674 0 0 0-3.667 3.666 3.655 3.655 0 0 0 3.667 3.667zm2.55.917h-.488c-.63.315-1.318.458-2.062.458-.745 0-1.461-.143-2.091-.458h-.487c-2.12 0-3.839 1.747-3.839 3.867v1.175c0 .773.602 1.375 1.375 1.375h10.083c.745 0 1.375-.602 1.375-1.375v-1.175c0-2.12-1.747-3.867-3.867-3.867z" style="font-weight:900;font-size:14.6667px;line-height:1.25;font-family:&quot;Font Awesome 5 Free&quot;;-inkscape-font-specification:&quot;Font Awesome 5 Free Heavy&quot;;text-align:center;letter-spacing:0;word-spacing:0;text-anchor:middle;fill:#fff;stroke-width:1.66573"/><path d="M-281.492-104.049a.856.856 0 0 0-.856.856V63.309a.856.856 0 0 0 .856.855h227.209a.856.856 0 0 0 .855-.855v-166.502a.856.856 0 0 0-.855-.856zm.855 1.713h225.498V62.451h-225.498Z" style="color:#000;fill:#4118d8;stroke-linecap:round;stroke-linejoin:round;-inkscape-stroke:none"/><g style="font-size:18.6667px;line-height:1.25;font-family:Poppins;-inkscape-font-specification:Poppins;text-align:center;letter-spacing:0;word-spacing:0;text-anchor:middle"><path d="M-198.433 34.49c-.839.657-1.896 1.459-5.615 4.157-.729.546-2.078 1.75-3.354 1.75-1.313 0-2.625-1.204-3.39-1.75-3.72-2.698-4.777-3.5-5.615-4.157-.146-.11-.328 0-.328.183v7.437c0 .984.765 1.75 1.75 1.75h15.166a1.75 1.75 0 0 0 1.75-1.75v-7.437c0-.183-.218-.292-.364-.183zm-8.969 4.703c.839.037 2.042-1.057 2.661-1.494 4.85-3.5 5.214-3.829 6.308-4.704a.83.83 0 0 0 .364-.692v-.693c0-.948-.802-1.75-1.75-1.75h-15.166a1.75 1.75 0 0 0-1.75 1.75v.693c0 .291.109.547.328.692 1.094.875 1.458 1.204 6.307 4.704.62.437 1.823 1.53 2.698 1.494z" aria-label="envelope" style="font-weight:900;font-family:&quot;Font Awesome 5 Free&quot;;-inkscape-font-specification:&quot;Font Awesome 5 Free Heavy&quot;;fill:#fff"/></g><path d="M-266.127-8.252h69.454" style="color:#000;fill:#fff;stroke-width:1.5;stroke-linecap:round;-inkscape-stroke:none"/><path d="M-266.127-9.002a.75.75 0 0 0-.75.75.75.75 0 0 0 .75.75h69.455a.75.75 0 0 0 .75-.75.75.75 0 0 0-.75-.75z" style="color:#000;fill:#fff;stroke-linecap:round;-inkscape-stroke:none"/><rect width="20.114" height="73.236" x="-266.127" y="-84.067" ry="2" style="fill:#f51bad;fill-opacity:1;stroke:none;stroke-width:2;stroke-linecap:round;stroke-linejoin:round;stroke-miterlimit:4;stroke-dasharray:none;stroke-dashoffset:0"/><rect width="20.114" height="43.349" x="-241.457" y="-54.179" ry="2" style="fill:#f49643;fill-opacity:1;stroke:none;stroke-width:1.5387;stroke-linecap:round;stroke-linejoin:round;stroke-miterlimit:4;stroke-dasharray:none;stroke-dashoffset:0"/><rect width="20.114" height="15.338" x="-216.787" y="-26.168" ry="2" style="fill:#8186e2;fill-opacity:1;stroke:none;stroke-width:.915264;stroke-linecap:round;stroke-linejoin:round;stroke-miterlimit:4;stroke-dasharray:none;stroke-dashoffset:0"/></g><path d="M316.12 154.035v146.45c0 4.191 2.927 9.244 6.564 11.327l164.377 94.18 22.753-137.558c.238-1.435-1.015-3.211-2.275-3.938l-191.42-110.46z" style="opacity:.2;fill:#1a1a1a;fill-opacity:1;stroke-width:2.70839;stroke-linecap:round;stroke-linejoin:round;paint-order:markers fill stroke"/><path d="M159.65 354.762c-1.706.171-3.323 1.2-5.29 2.33L6.2 442.204c-.895.514-1.643.966-2.14 1.426l-.15-.086c-3.259 2.23 2.966 14.59 3.935 18.29l250.649 144.14c2.716 1.826 5.232 1.446 7.64-.116l149.811-85.789c.46-.63 8.451-14.736 3.064-17.566a10.447 10.447 0 0 0-1.742-1.225L162.912 355.544c-1.182-.677-2.238-.884-3.262-.782z" style="fill:url(#j);fill-opacity:1;stroke:none;stroke-width:.999999px;stroke-linecap:butt;stroke-linejoin:miter;stroke-opacity:1"/><path d="M3.909 443.543c-3.259 2.23 2.967 14.592 3.936 18.292l250.65 144.138c2.716 1.827 5.232 1.446 7.64-.116l149.81-85.788c.47-.64 8.744-15.243 2.78-17.713l-157.336 88.45z" style="fill:url(#k);fill-opacity:1;stroke:none;stroke-width:.999999px;stroke-linecap:butt;stroke-linejoin:miter;stroke-opacity:1"/><path d="m146.255 395.64 201.397 115.678c.151.086.424.383.273.47-2.143 1.23-4.932 3.112-6.97 4.283-.167.097-.325.155-.486-.008L139.19 400.243c-.15-.086-.422-.38-.273-.47l6.877-4.081c.221-.128.292-.148.46-.051z" style="fill:url(#l);fill-opacity:1;stroke-width:1.51484;stroke-linecap:round;stroke-linejoin:round;paint-order:markers fill stroke"/><path d="M159.65 356.762c-1.706.171-3.323 1.2-5.29 2.33L6.2 444.204c-3.559 2.044-4.819 3.091 3.013 7.605l249.771 143.975c3.146 1.813 5.814 1.574 8.961-.238l149.445-86.083c3.995-2.3 3.366-4.186-.123-6.185L162.912 357.544c-1.182-.677-2.238-.884-3.262-.782z" style="fill:#fff;fill-opacity:1;stroke-width:2.7;stroke-linecap:round;stroke-linejoin:round;paint-order:markers fill stroke"/><path d="m162.911 355.543 254.357 145.735c3.489 1.998 4.118 3.884.123 6.185l-149.446 86.082c-3.146 1.812-5.815 2.053-8.961.239L9.21 449.809c-7.83-4.514-6.569-5.56-3.01-7.605l148.158-85.112c3.149-1.809 5.401-3.354 8.552-1.55z" style="fill:url(#m);fill-opacity:1;stroke-width:2.7;stroke-linecap:round;stroke-linejoin:round;paint-order:markers fill stroke"/><path d="m336.194-166.813 78.632.017c.384 0 .767.278.694.694l-9.812 56.294c-.06.347-1.215 1.418-1.822 1.751-.121.067-.223.064-.287.064l-79.211.196c-.385.001-.767-.279-.695-.695l9.702-56.023c.02-.112.034-.299.299-.557.722-.705 2.218-1.74 2.5-1.74z" style="fill:url(#n);fill-opacity:1;stroke-width:.769943;stroke-linecap:round;stroke-linejoin:round;paint-order:markers fill stroke" transform="matrix(3.27392 1.88845 0 3.77953 -899.354 149.48)"/><path d="m334.09-165.21 79.46-.408c.386-.002.769.279.695.695l-9.952 56.235c-.074.417-.31.694-.694.695l-79.211.196c-.385.001-.767-.279-.695-.695l9.702-56.023c.072-.416.309-.693.695-.695z" style="fill:url(#o);fill-opacity:1;stroke-width:.769943;stroke-linecap:round;stroke-linejoin:round;paint-order:markers fill stroke" transform="matrix(3.27392 1.88845 0 3.77953 -899.354 149.48)"/><path d="m336.465-162.91 74.186-.279c.385 0 .768.279.694.695l-9.103 51.4c-.074.417-.31.695-.695.695l-74.26-.01c-.384 0-.769-.279-.694-.695l9.178-51.11c.074-.418.309-.694.694-.696z" style="fill:url(#p);fill-opacity:1;stroke-width:.769943;stroke-linecap:round;stroke-linejoin:round;paint-order:markers fill stroke" transform="matrix(3.27392 1.88845 0 3.77953 -899.354 149.48)"/><path d="M232.803 207.263a1.181.847 68.65 0 0-.403.579l-27.443 136.56a1.181.847 68.65 0 0 .668 1.53l170.887 98.644a1.181.847 68.65 0 0 1.08-.522l27.443-136.56a1.181.847 68.65 0 0-.668-1.53L233.48 207.32a1.181.847 68.65 0 0-.677-.057zm1.14 2.612L403.08 307.51 376.05 442.02l-169.137-97.635zm8.26 21.752c-1.386-.127-2.554.777-2.887 2.433l-19.22 95.639c-.444 2.209.771 4.893 2.722 6.02l53.672 30.984c1.952 1.126 3.88.254 4.324-1.955l19.221-95.639c.444-2.209-.771-4.893-2.723-6.02l-53.671-30.982a3.53 3.53 0 0 0-1.438-.48zm71.094 46.064c-1.386-.126-2.554.777-2.887 2.434l-6.21 30.902c-.445 2.209.769 4.893 2.72 6.02l69.473 40.101c1.95 1.127 3.878.256 4.322-1.953l6.21-30.9c.445-2.21-.769-4.895-2.72-6.022l-69.473-40.101a3.523 3.523 0 0 0-1.435-.48zm14.924 67.375a28.43 20.378 68.65 0 0-17.569 15.295 28.43 20.378 68.65 0 0 16.084 36.818 28.43 20.378 68.65 0 0 18.793-.136 17.668 12.664 68.65 0 0 10.213 16.879 17.668 12.664 68.65 0 0 16.156-7.784 17.668 12.664 68.65 0 0-9.994-22.878 17.668 12.664 68.65 0 0-8.781-1.36 28.43 20.378 68.65 0 0-16.47-34.062 28.43 20.378 68.65 0 0-8.432-2.772z" style="opacity:.1;fill:#1a1a1a;fill-opacity:1;stroke:none;stroke-width:1.2429;stroke-linecap:round;stroke-linejoin:round;stroke-miterlimit:4;stroke-dasharray:none;stroke-dashoffset:0"/><g transform="matrix(.87421 .50464 -.20599 1.02498 517.245 141.85)"><circle cx="-113.182" cy="308.158" r="14.958" style="fill:#8186e2;fill-opacity:1;stroke:none;stroke-width:1.2429;stroke-linecap:round;stroke-linejoin:round;stroke-miterlimit:4;stroke-dasharray:none;stroke-dashoffset:0"/><path d="M-281.055 205.199h195.474v133.233h-195.474z" style="fill:none;fill-opacity:1;stroke:#4118d8;stroke-width:2;stroke-linecap:round;stroke-linejoin:round;stroke-miterlimit:4;stroke-dasharray:none;stroke-dashoffset:0"/><rect width="87.526" height="37.928" x="-187.208" y="225.135" ry="3.89" style="fill:#fff;fill-opacity:1;stroke:none;stroke-width:2;stroke-linecap:round;stroke-linejoin:round;stroke-miterlimit:4;stroke-dasharray:none;stroke-dashoffset:0"/><path d="M-149.352 238.686a.9.9 0 1 0 0 1.801h13.62a.9.9 0 1 0 0-1.8zm18.598 0a.9.9 0 1 0 0 1.801h20.488a.9.9 0 1 0 0-1.8zm-18.598 4.512a.9.9 0 1 0 0 1.8h20.791a.9.9 0 1 0 0-1.8zm25.71 0a.9.9 0 1 0 0 1.8h17.449a.9.9 0 1 0 0-1.8zm-25.71 4.514a.9.9 0 1 0 0 1.8h17.145a.9.9 0 1 0 0-1.8zm21.456 0a.9.9 0 1 0 0 1.8h15.808a.9.9 0 1 0 0-1.8z" style="color:#000;fill:#8186e2;fill-opacity:1;stroke-linecap:round;-inkscape-stroke:none"/><path d="m-167.223 231.701.004 7a5.4 5.4 0 0 1 5.348 5.399 5.4 5.4 0 0 1-5.344 5.392l.004 7.002a12.4 12.4 0 0 0 12.34-12.394 12.4 12.4 0 0 0-12.351-12.399z" style="fill:#f51bad;fill-opacity:1;stroke:none;stroke-width:2;stroke-linecap:round;stroke-linejoin:round;stroke-miterlimit:4;stroke-dasharray:none;stroke-dashoffset:0"/><path d="M-167.271 231.7a12.4 12.4 0 0 0-12.399 12.4 12.4 12.4 0 0 0 1.69 6.19l6.064-3.5a5.4 5.4 0 0 1-.754-2.69 5.4 5.4 0 0 1 5.399-5.4 5.4 5.4 0 0 1 .09.003l-.042-7.002a12.4 12.4 0 0 0-.048-.002z" style="fill:#f49643;fill-opacity:1;stroke:none;stroke-width:1px;stroke-linecap:butt;stroke-linejoin:miter;stroke-opacity:1"/><path d="m-171.916 246.79-6.064 3.5a12.4 12.4 0 0 0 10.709 6.208 12.4 12.4 0 0 0 .06-.004l.035-7.006a5.4 5.4 0 0 1-.095.01 5.4 5.4 0 0 1-4.645-2.709z" style="fill:#8186e2;fill-opacity:1;stroke:none;stroke-width:1px;stroke-linecap:butt;stroke-linejoin:miter;stroke-opacity:1"/><rect width="69.454" height="101.087" x="-269.565" y="220.741" ry="3.89" style="fill:#8186e2;fill-opacity:1;stroke:none;stroke-width:2;stroke-linecap:round;stroke-linejoin:round;stroke-miterlimit:4;stroke-dasharray:none;stroke-dashoffset:0"/><path d="M-257.847 238.808a.9.9 0 1 0 0 1.8h13.62a.9.9 0 1 0 0-1.8zm18.598 0a.9.9 0 1 0 0 1.8h20.488a.9.9 0 1 0 0-1.8zm-18.598 4.511a.9.9 0 1 0 0 1.801h20.791a.9.9 0 1 0 0-1.8zm25.71 0a.9.9 0 1 0 0 1.801h17.448a.9.9 0 1 0 0-1.8zm-25.71 4.514a.9.9 0 1 0 0 1.8h17.145a.9.9 0 1 0 0-1.8zm21.455 0a.9.9 0 1 0 0 1.8h15.809a.9.9 0 1 0 0-1.8zM-257.847 259.96a.9.9 0 1 0 0 1.8h13.62a.9.9 0 1 0 0-1.8zm18.598 0a.9.9 0 1 0 0 1.8h16.488a.9.9 0 1 0 0-1.8zm-18.598 4.512a.9.9 0 1 0 0 1.8h8.791a.9.9 0 1 0 0-1.8zm13.71 0a.9.9 0 1 0 0 1.8h25.448a.9.9 0 1 0 0-1.8zm-13.71 4.513a.9.9 0 1 0 0 1.801h27.145a.9.9 0 1 0 0-1.8zm31.455 0a.9.9 0 1 0 0 1.801h13.809a.9.9 0 1 0 0-1.8zM-257.847 273.94a.9.9 0 1 0 0 1.8h19.62a.9.9 0 1 0 0-1.8zm24.598 0a.9.9 0 1 0 0 1.8h16.488a.9.9 0 1 0 0-1.8zm-24.598 4.511a.9.9 0 1 0 0 1.801h14.791a.9.9 0 1 0 0-1.8zm19.71 0a.9.9 0 1 0 0 1.801h17.448a.9.9 0 1 0 0-1.8zm-19.71 4.514a.9.9 0 1 0 0 1.8h21.145a.9.9 0 1 0 0-1.8zm25.455 0a.9.9 0 1 0 0 1.8h17.809a.9.9 0 1 0 0-1.8z" style="color:#000;fill:#fff;fill-opacity:1;stroke-linecap:round;-inkscape-stroke:none"/><rect width="53.853" height="15.195" x="-260.389" y="302.814" ry="3.89" style="fill:#f49643;fill-opacity:1;stroke:none;stroke-width:2;stroke-linecap:round;stroke-linejoin:round;stroke-miterlimit:4;stroke-dasharray:none;stroke-dashoffset:0"/><path d="M-249.602 309.512a.9.9 0 1 0 0 1.8h17.874a.9.9 0 1 0 0-1.8zm22.853 0a.9.9 0 1 0 0 1.8h9.426a.9.9 0 1 0 0-1.8z" style="color:#000;fill:#fff;fill-opacity:1;stroke-linecap:round;-inkscape-stroke:none"/><circle cx="-146.362" cy="299.046" r="24.07" style="fill:#f51bad;fill-opacity:1;stroke:none;stroke-width:2;stroke-linecap:round;stroke-linejoin:round;stroke-miterlimit:4;stroke-dasharray:none;stroke-dashoffset:0"/><g style="font-size:39.5736px;line-height:1.25;font-family:Poppins;-inkscape-font-specification:Poppins;text-align:center;letter-spacing:0;word-spacing:0;text-anchor:middle;stroke-width:2.12001"><path d="M-159.699 290.676q0-2.69 1.623-4.274 1.622-1.622 4.155-1.622 2.533 0 4.155 1.622 1.623 1.583 1.623 4.274 0 2.73-1.623 4.353-1.622 1.583-4.155 1.583-2.533 0-4.155-1.583-1.623-1.622-1.623-4.353zm23.111-5.461-16.027 27.622h-3.562l16.028-27.622zm-17.333 1.78q-1.345 0-2.137.95-.752.91-.752 2.731 0 1.82.752 2.77.792.95 2.137.95 1.346 0 2.137-.95.792-.99.792-2.77 0-1.82-.792-2.73-.791-.95-2.137-.95zm9.38 20.381q0-2.73 1.622-4.313 1.622-1.623 4.155-1.623 2.533 0 4.115 1.623 1.623 1.583 1.623 4.313 0 2.691-1.623 4.314-1.582 1.622-4.115 1.622-2.533 0-4.155-1.583-1.623-1.622-1.623-4.353zm5.737-3.68q-1.345 0-2.137.95-.791.91-.791 2.73 0 1.781.791 2.73.792.911 2.137.911 1.346 0 2.137-.91.792-.95.792-2.73 0-1.821-.792-2.731-.791-.95-2.137-.95z" aria-label="%" style="fill:#fff"/></g><g style="font-size:39.5736px;line-height:1.25;font-family:Poppins;-inkscape-font-specification:Poppins;text-align:center;letter-spacing:0;word-spacing:0;text-anchor:middle;stroke-width:2.12001"><g aria-label="%" style="font-size:14.6667px;stroke-width:1.66573"><path d="M-145.847 307.126a3.674 3.674 0 0 0 3.667-3.667c0-2.005-1.661-3.666-3.667-3.666a3.674 3.674 0 0 0-3.666 3.666 3.655 3.655 0 0 0 3.666 3.667zm2.55.917h-.487c-.63.315-1.318.458-2.063.458-.744 0-1.46-.143-2.09-.458h-.488c-2.12 0-3.838 1.747-3.838 3.867v1.174c0 .774.601 1.375 1.375 1.375h10.083c.745 0 1.375-.601 1.375-1.375v-1.174c0-2.12-1.747-3.867-3.867-3.867z" aria-label="user" style="font-weight:900;font-family:&quot;Font Awesome 5 Free&quot;;-inkscape-font-specification:&quot;Font Awesome 5 Free Heavy&quot;;fill:#fff" transform="translate(32.664 1.032)"/></g></g></g><path d="m314.352 265.816-142.337 84.335c.048.031.096.07.145.098L415.28 490.526c1.26.727 2.034.122 2.275-1.312l26.69-158.584-125.574-64.597c-2-1.282-2.415-1.345-4.32-.217z" style="opacity:.05;fill:#fff;stroke:none;stroke-width:.999999px;stroke-linecap:butt;stroke-linejoin:miter;stroke-opacity:1"/><path d="M169.64 378.859 377.99 497.87c3.49 1.994 4.131 3.909.122 6.185l-70.34 39.939c-3.159 1.793-5.81 2.043-8.962.239L95.104 427.61c-7.845-4.491-6.57-5.562-3.01-7.605l68.994-39.596c3.15-1.808 5.538-3.574 8.552-1.55z" style="fill:url(#q);fill-opacity:1;stroke-width:2.7;stroke-linecap:round;stroke-linejoin:round;paint-order:markers fill stroke"/><path d="m149.592 469.65 56.59 31.38c3.516 1.95 4.147 3.936.123 6.185l-37.3 20.844c-3.17 1.772-5.8 2.027-8.962.24l-51.566-29.154c-7.869-4.448-6.573-5.567-3.01-7.605l35.572-20.34c3.153-1.803 5.538-3.574 8.552-1.55z" style="fill:url(#r);fill-opacity:1;stroke-width:2.7;stroke-linecap:round;stroke-linejoin:round;paint-order:markers fill stroke"/><path d="M166.955 377.958c-1.897-.015-3.702 1.208-5.867 2.45l-68.995 39.597c-2.576 1.478-3.933 2.452-1.527 4.576l74.5-42.744c2.026-1.17 2.095-1.162 3.703-.233l211.328 120.988c1.588-1.664.611-3.17-2.107-4.722L169.64 378.858c-.942-.633-1.823-.894-2.685-.9zM146.908 468.75c-1.896-.013-3.702 1.21-5.87 2.45l-35.572 20.34c-2.22 1.269-3.558 2.182-2.351 3.765l40.996-24.554c1.726-.931 2.376-1.45 4.322-.405l60.405 34.705c.75-1.401-.31-2.72-2.657-4.021l-56.59-31.379c-.942-.633-1.821-.894-2.683-.9z" style="fill:#8086e3;fill-opacity:1;stroke:none;stroke-width:.999999px;stroke-linecap:butt;stroke-linejoin:miter;stroke-opacity:1"/><path d="M107.942 418.89 309.34 534.567c.15.087.424.383.273.47-2.144 1.23-4.933 3.113-6.97 4.284-.168.096-.325.154-.487-.007L100.88 423.493c-.151-.087-.423-.381-.273-.47l6.876-4.082c.222-.128.293-.148.46-.05z" style="fill:url(#s);fill-opacity:1;stroke-width:1.51484;stroke-linecap:round;stroke-linejoin:round;paint-order:markers fill stroke"/><path d="m120.713 411.359 201.398 115.677c.15.086.424.383.273.47-2.144 1.23-4.933 3.112-6.97 4.283-.168.097-.326.154-.487-.008L113.65 415.961c-.15-.087-.422-.38-.273-.47l6.877-4.082c.222-.127.292-.147.46-.05z" style="fill:url(#t);fill-opacity:1;stroke-width:1.51484;stroke-linecap:round;stroke-linejoin:round;paint-order:markers fill stroke"/><path d="m133.484 403.5 201.398 115.677c.15.086.423.383.272.47-2.143 1.23-4.932 3.112-6.97 4.283-.167.097-.325.155-.486-.008L126.42 408.102c-.15-.087-.422-.38-.273-.47l6.877-4.081c.222-.128.292-.148.46-.051z" style="fill:url(#u);fill-opacity:1;stroke-width:1.51484;stroke-linecap:round;stroke-linejoin:round;paint-order:markers fill stroke"/><path d="M146.045 395.583a.75.75 0 0 0-.25.109l-6.877 4.082c-.15.089.122.382.273.469l171.414 98.637a564.542 564.542 0 0 1 7.313-4.641L146.256 395.64c-.084-.048-.145-.067-.211-.058z" style="fill:url(#v);fill-opacity:1;stroke-width:1.51484;stroke-linecap:round;stroke-linejoin:round;paint-order:markers fill stroke"/><path d="m331.781 502.52-7.793 4.346 18.12 10.426a564.542 564.542 0 0 1 7.312-4.641z" style="fill:url(#w);fill-opacity:1;stroke-width:1.51484;stroke-linecap:round;stroke-linejoin:round;paint-order:markers fill stroke"/><path d="M166.02 384.448a.75.75 0 0 0-.25.11l-6.878 4.081c-.15.09.123.384.274.471L342.838 494.8l7.468-4.565L166.23 384.506c-.084-.048-.144-.067-.21-.058z" style="fill:url(#x);fill-opacity:1;stroke-width:1.51484;stroke-linecap:round;stroke-linejoin:round;paint-order:markers fill stroke"/><path d="m360.867 496.24-8.012 4.23 10.322 5.939a565.204 565.204 0 0 1 7.313-4.64z" style="fill:url(#y);fill-opacity:1;stroke-width:1.51484;stroke-linecap:round;stroke-linejoin:round;paint-order:markers fill stroke"/><rect width="11.746" height="4.058" x="349.938" y="735.717" ry=".893" style="fill:#0e30ae;fill-opacity:1;stroke:none;stroke-width:2.39567;stroke-linecap:round;stroke-linejoin:round;stroke-miterlimit:4;stroke-dasharray:none;stroke-opacity:1;paint-order:markers fill stroke" transform="skewY(-27.493) scale(.88707 1)"/><rect width="11.746" height="4.058" x="366.513" y="734.917" ry=".893" style="fill:#0e30ae;fill-opacity:1;stroke:none;stroke-width:2.39567;stroke-linecap:round;stroke-linejoin:round;stroke-miterlimit:4;stroke-dasharray:none;stroke-opacity:1;paint-order:markers fill stroke" transform="skewY(-27.493) scale(.88707 1)"/></svg>